<svg xmlns="http://www.w3.org/2000/svg" version="1.1" xmlns:xlink="http://www.w3.org/1999/xlink" xmlns:svgjs="http://svgjs.com/svgjs" width="1920" height="80" preserveAspectRatio="none" viewBox="0 0 1920 80">
    <g mask="url(&quot;#SvgjsMask1006&quot;)" fill="none">
        <rect width="1920" height="80" x="0" y="0" fill="url(#SvgjsLinearGradient1007)"></rect>
        <g>
            <path d="M1016 40L984 72L904 72L840 8L712 8" stroke-width="2.67" stroke="rgba(218, 165, 32, 1)"></path>
            <path d="M1013.33 40 a2.67 2.67 0 1 0 5.34 0 a2.67 2.67 0 1 0 -5.34 0zM709.33 8 a2.67 2.67 0 1 0 5.34 0 a2.67 2.67 0 1 0 -5.34 0z" fill="rgba(218, 165, 32, 1)"></path>
            <path d="M360 8L56 8" stroke-width="2.67" stroke="rgba(218, 165, 32, 1)"></path>
            <path d="M357.33 8 a2.67 2.67 0 1 0 5.34 0 a2.67 2.67 0 1 0 -5.34 0zM53.33 8 a2.67 2.67 0 1 0 5.34 0 a2.67 2.67 0 1 0 -5.34 0z" fill="rgba(218, 165, 32, 1)"></path>
            <path d="M488 24L440 72L184 72" stroke-width="2.67" stroke="rgba(218, 165, 32, 1)"></path>
            <path d="M485.33 24 a2.67 2.67 0 1 0 5.34 0 a2.67 2.67 0 1 0 -5.34 0zM181.33 72 a2.67 2.67 0 1 0 5.34 0 a2.67 2.67 0 1 0 -5.34 0z" fill="rgba(218, 165, 32, 1)"></path>
            <path d="M1880 24L1880 72" stroke-width="2.67" stroke="rgba(218, 165, 32, 1)"></path>
            <path d="M1877.33 24 a2.67 2.67 0 1 0 5.34 0 a2.67 2.67 0 1 0 -5.34 0zM1877.33 72 a2.67 2.67 0 1 0 5.34 0 a2.67 2.67 0 1 0 -5.34 0z" fill="rgba(218, 165, 32, 1)"></path>
            <path d="M1144 72L1000 72" stroke-width="2.67" stroke="rgba(218, 165, 32, 1)"></path>
            <path d="M1141.33 72 a2.67 2.67 0 1 0 5.34 0 a2.67 2.67 0 1 0 -5.34 0zM997.33 72 a2.67 2.67 0 1 0 5.34 0 a2.67 2.67 0 1 0 -5.34 0z" fill="rgba(218, 165, 32, 1)"></path>
            <path d="M680 8L616 72L456 72" stroke-width="2.67" stroke="rgba(218, 165, 32, 1)"></path>
            <path d="M677.33 8 a2.67 2.67 0 1 0 5.34 0 a2.67 2.67 0 1 0 -5.34 0zM453.33 72 a2.67 2.67 0 1 0 5.34 0 a2.67 2.67 0 1 0 -5.34 0z" fill="rgba(218, 165, 32, 1)"></path>
            <path d="M504 56L472 56" stroke-width="2.67" stroke="rgba(218, 165, 32, 1)"></path>
            <path d="M501.33 56 a2.67 2.67 0 1 0 5.34 0 a2.67 2.67 0 1 0 -5.34 0zM469.33 56 a2.67 2.67 0 1 0 5.34 0 a2.67 2.67 0 1 0 -5.34 0z" fill="rgba(218, 165, 32, 1)"></path>
            <path d="M1496 24L1800 24" stroke-width="2.67" stroke="rgba(218, 165, 32, 1)"></path>
            <path d="M1493.33 24 a2.67 2.67 0 1 0 5.34 0 a2.67 2.67 0 1 0 -5.34 0zM1797.33 24 a2.67 2.67 0 1 0 5.34 0 a2.67 2.67 0 1 0 -5.34 0z" fill="rgba(218, 165, 32, 1)"></path>
            <path d="M1224 8L1000 8L968 40" stroke-width="2.67" stroke="rgba(218, 165, 32, 1)"></path>
            <path d="M1221.33 8 a2.67 2.67 0 1 0 5.34 0 a2.67 2.67 0 1 0 -5.34 0zM965.33 40 a2.67 2.67 0 1 0 5.34 0 a2.67 2.67 0 1 0 -5.34 0z" fill="rgba(218, 165, 32, 1)"></path>
            <path d="M1592 72L1560 40L1496 40L1464 72L1288 72" stroke-width="2.67" stroke="rgba(218, 165, 32, 1)"></path>
            <path d="M1589.33 72 a2.67 2.67 0 1 0 5.34 0 a2.67 2.67 0 1 0 -5.34 0zM1285.33 72 a2.67 2.67 0 1 0 5.34 0 a2.67 2.67 0 1 0 -5.34 0z" fill="rgba(218, 165, 32, 1)"></path>
            <path d="M72 72L8 72" stroke-width="2.67" stroke="rgba(218, 165, 32, 1)"></path>
            <path d="M69.33 72 a2.67 2.67 0 1 0 5.34 0 a2.67 2.67 0 1 0 -5.34 0zM5.33 72 a2.67 2.67 0 1 0 5.34 0 a2.67 2.67 0 1 0 -5.34 0z" fill="rgba(218, 165, 32, 1)"></path>
            <path d="M488 40L504 40L520 56L616 56L664 8" stroke-width="2.67" stroke="rgba(218, 165, 32, 1)"></path>
            <path d="M485.33 40 a2.67 2.67 0 1 0 5.34 0 a2.67 2.67 0 1 0 -5.34 0zM661.33 8 a2.67 2.67 0 1 0 5.34 0 a2.67 2.67 0 1 0 -5.34 0z" fill="rgba(218, 165, 32, 1)"></path>
            <path d="M104 40L136 72L168 72L184 56L312 56L344 24L392 24L408 8" stroke-width="2.67" stroke="rgba(218, 165, 32, 1)"></path>
            <path d="M101.33 40 a2.67 2.67 0 1 0 5.34 0 a2.67 2.67 0 1 0 -5.34 0zM405.33 8 a2.67 2.67 0 1 0 5.34 0 a2.67 2.67 0 1 0 -5.34 0z" fill="rgba(218, 165, 32, 1)"></path>
            <path d="M280 40L120 40L104 24L56 24L40 8L8 8" stroke-width="2.67" stroke="rgba(218, 165, 32, 1)"></path>
            <path d="M277.33 40 a2.67 2.67 0 1 0 5.34 0 a2.67 2.67 0 1 0 -5.34 0zM5.33 8 a2.67 2.67 0 1 0 5.34 0 a2.67 2.67 0 1 0 -5.34 0z" fill="rgba(218, 165, 32, 1)"></path>
            <path d="M1160 72L1208 24L1304 24L1336 56L1464 56" stroke-width="2.67" stroke="rgba(218, 165, 32, 1)"></path>
            <path d="M1157.33 72 a2.67 2.67 0 1 0 5.34 0 a2.67 2.67 0 1 0 -5.34 0zM1461.33 56 a2.67 2.67 0 1 0 5.34 0 a2.67 2.67 0 1 0 -5.34 0z" fill="rgba(218, 165, 32, 1)"></path>
            <path d="M1144 56L1016 56" stroke-width="2.67" stroke="rgba(218, 165, 32, 1)"></path>
            <path d="M1141.33 56 a2.67 2.67 0 1 0 5.34 0 a2.67 2.67 0 1 0 -5.34 0zM1013.33 56 a2.67 2.67 0 1 0 5.34 0 a2.67 2.67 0 1 0 -5.34 0z" fill="rgba(218, 165, 32, 1)"></path>
            <path d="M376 40L392 56L440 56L488 8L616 8L632 24" stroke-width="2.67" stroke="rgba(218, 165, 32, 1)"></path>
            <path d="M373.33 40 a2.67 2.67 0 1 0 5.34 0 a2.67 2.67 0 1 0 -5.34 0zM629.33 24 a2.67 2.67 0 1 0 5.34 0 a2.67 2.67 0 1 0 -5.34 0z" fill="rgba(218, 165, 32, 1)"></path>
            <path d="M104 72L88 72L40 24L8 24" stroke-width="2.67" stroke="rgba(218, 165, 32, 1)"></path>
            <path d="M101.33 72 a2.67 2.67 0 1 0 5.34 0 a2.67 2.67 0 1 0 -5.34 0zM5.33 24 a2.67 2.67 0 1 0 5.34 0 a2.67 2.67 0 1 0 -5.34 0z" fill="rgba(218, 165, 32, 1)"></path>
            <path d="M1896 8L1592 8" stroke-width="2.67" stroke="rgba(218, 165, 32, 1)"></path>
            <path d="M1893.33 8 a2.67 2.67 0 1 0 5.34 0 a2.67 2.67 0 1 0 -5.34 0zM1589.33 8 a2.67 2.67 0 1 0 5.34 0 a2.67 2.67 0 1 0 -5.34 0z" fill="rgba(218, 165, 32, 1)"></path>
            <path d="M1496 72L1544 72L1560 56" stroke-width="2.67" stroke="rgba(218, 165, 32, 1)"></path>
            <path d="M1493.33 72 a2.67 2.67 0 1 0 5.34 0 a2.67 2.67 0 1 0 -5.34 0zM1557.33 56 a2.67 2.67 0 1 0 5.34 0 a2.67 2.67 0 1 0 -5.34 0z" fill="rgba(218, 165, 32, 1)"></path>
            <path d="M728 56L728 24" stroke-width="2.67" stroke="rgba(218, 165, 32, 1)"></path>
            <path d="M725.33 56 a2.67 2.67 0 1 0 5.34 0 a2.67 2.67 0 1 0 -5.34 0zM725.33 24 a2.67 2.67 0 1 0 5.34 0 a2.67 2.67 0 1 0 -5.34 0z" fill="rgba(218, 165, 32, 1)"></path>
            <path d="M840 40L872 72L888 72" stroke-width="2.67" stroke="rgba(218, 165, 32, 1)"></path>
            <path d="M837.33 40 a2.67 2.67 0 1 0 5.34 0 a2.67 2.67 0 1 0 -5.34 0zM885.33 72 a2.67 2.67 0 1 0 5.34 0 a2.67 2.67 0 1 0 -5.34 0z" fill="rgba(218, 165, 32, 1)"></path>
            <path d="M296 24L120 24" stroke-width="2.67" stroke="rgba(218, 165, 32, 1)"></path>
            <path d="M293.33 24 a2.67 2.67 0 1 0 5.34 0 a2.67 2.67 0 1 0 -5.34 0zM117.33 24 a2.67 2.67 0 1 0 5.34 0 a2.67 2.67 0 1 0 -5.34 0z" fill="rgba(218, 165, 32, 1)"></path>
            <path d="M1320 8L1240 8" stroke-width="2.67" stroke="rgba(218, 165, 32, 1)"></path>
            <path d="M1317.33 8 a2.67 2.67 0 1 0 5.34 0 a2.67 2.67 0 1 0 -5.34 0zM1237.33 8 a2.67 2.67 0 1 0 5.34 0 a2.67 2.67 0 1 0 -5.34 0z" fill="rgba(218, 165, 32, 1)"></path>
            <path d="M1672 40L1688 40L1720 72L1864 72" stroke-width="2.67" stroke="rgba(218, 165, 32, 1)"></path>
            <path d="M1669.33 40 a2.67 2.67 0 1 0 5.34 0 a2.67 2.67 0 1 0 -5.34 0zM1861.33 72 a2.67 2.67 0 1 0 5.34 0 a2.67 2.67 0 1 0 -5.34 0z" fill="rgba(218, 165, 32, 1)"></path>
            <path d="M1192 72L1192 56L1208 40L1256 40L1272 56L1320 56" stroke-width="2.67" stroke="rgba(218, 165, 32, 1)"></path>
            <path d="M1189.33 72 a2.67 2.67 0 1 0 5.34 0 a2.67 2.67 0 1 0 -5.34 0zM1317.33 56 a2.67 2.67 0 1 0 5.34 0 a2.67 2.67 0 1 0 -5.34 0z" fill="rgba(218, 165, 32, 1)"></path>
            <path d="M712 72L680 40L680 24L696 8" stroke-width="2.67" stroke="rgba(218, 165, 32, 1)"></path>
            <path d="M709.33 72 a2.67 2.67 0 1 0 5.34 0 a2.67 2.67 0 1 0 -5.34 0zM693.33 8 a2.67 2.67 0 1 0 5.34 0 a2.67 2.67 0 1 0 -5.34 0z" fill="rgba(218, 165, 32, 1)"></path>
            <path d="M1224 72L1272 72" stroke-width="2.67" stroke="rgba(218, 165, 32, 1)"></path>
            <path d="M1221.33 72 a2.67 2.67 0 1 0 5.34 0 a2.67 2.67 0 1 0 -5.34 0zM1269.33 72 a2.67 2.67 0 1 0 5.34 0 a2.67 2.67 0 1 0 -5.34 0z" fill="rgba(218, 165, 32, 1)"></path>
            <path d="M808 72L824 56L824 24" stroke-width="2.67" stroke="rgba(218, 165, 32, 1)"></path>
            <path d="M805.33 72 a2.67 2.67 0 1 0 5.34 0 a2.67 2.67 0 1 0 -5.34 0zM821.33 24 a2.67 2.67 0 1 0 5.34 0 a2.67 2.67 0 1 0 -5.34 0z" fill="rgba(218, 165, 32, 1)"></path>
            <path d="M1416 40L1448 8L1576 8" stroke-width="2.67" stroke="rgba(218, 165, 32, 1)"></path>
            <path d="M1413.33 40 a2.67 2.67 0 1 0 5.34 0 a2.67 2.67 0 1 0 -5.34 0zM1573.33 8 a2.67 2.67 0 1 0 5.34 0 a2.67 2.67 0 1 0 -5.34 0z" fill="rgba(218, 165, 32, 1)"></path>
            <path d="M936 8L920 8L888 40" stroke-width="2.67" stroke="rgba(218, 165, 32, 1)"></path>
            <path d="M933.33 8 a2.67 2.67 0 1 0 5.34 0 a2.67 2.67 0 1 0 -5.34 0zM885.33 40 a2.67 2.67 0 1 0 5.34 0 a2.67 2.67 0 1 0 -5.34 0z" fill="rgba(218, 165, 32, 1)"></path>
            <path d="M1080 24L1128 24L1160 56" stroke-width="2.67" stroke="rgba(218, 165, 32, 1)"></path>
            <path d="M1077.33 24 a2.67 2.67 0 1 0 5.34 0 a2.67 2.67 0 1 0 -5.34 0zM1157.33 56 a2.67 2.67 0 1 0 5.34 0 a2.67 2.67 0 1 0 -5.34 0z" fill="rgba(218, 165, 32, 1)"></path>
            <path d="M1368 24L1352 40L1336 40L1320 24" stroke-width="2.67" stroke="rgba(218, 165, 32, 1)"></path>
            <path d="M1365.33 24 a2.67 2.67 0 1 0 5.34 0 a2.67 2.67 0 1 0 -5.34 0zM1317.33 24 a2.67 2.67 0 1 0 5.34 0 a2.67 2.67 0 1 0 -5.34 0z" fill="rgba(218, 165, 32, 1)"></path>
            <path d="M1544 56L1496 56" stroke-width="2.67" stroke="rgba(218, 165, 32, 1)"></path>
            <path d="M1541.33 56 a2.67 2.67 0 1 0 5.34 0 a2.67 2.67 0 1 0 -5.34 0zM1493.33 56 a2.67 2.67 0 1 0 5.34 0 a2.67 2.67 0 1 0 -5.34 0z" fill="rgba(218, 165, 32, 1)"></path>
            <path d="M1240 56L1208 56" stroke-width="2.67" stroke="rgba(218, 165, 32, 1)"></path>
            <path d="M1237.33 56 a2.67 2.67 0 1 0 5.34 0 a2.67 2.67 0 1 0 -5.34 0zM1205.33 56 a2.67 2.67 0 1 0 5.34 0 a2.67 2.67 0 1 0 -5.34 0z" fill="rgba(218, 165, 32, 1)"></path>
            <path d="M1864 40L1800 40L1784 56L1752 56L1736 40L1720 40" stroke-width="2.67" stroke="rgba(218, 165, 32, 1)"></path>
            <path d="M1861.33 40 a2.67 2.67 0 1 0 5.34 0 a2.67 2.67 0 1 0 -5.34 0zM1717.33 40 a2.67 2.67 0 1 0 5.34 0 a2.67 2.67 0 1 0 -5.34 0z" fill="rgba(218, 165, 32, 1)"></path>
            <path d="M904 8L856 8" stroke-width="2.67" stroke="rgba(218, 165, 32, 1)"></path>
            <path d="M901.33 8 a2.67 2.67 0 1 0 5.34 0 a2.67 2.67 0 1 0 -5.34 0zM853.33 8 a2.67 2.67 0 1 0 5.34 0 a2.67 2.67 0 1 0 -5.34 0z" fill="rgba(218, 165, 32, 1)"></path>
            <path d="M328 24L312 40L296 40" stroke-width="2.67" stroke="rgba(218, 165, 32, 1)"></path>
            <path d="M325.33 24 a2.67 2.67 0 1 0 5.34 0 a2.67 2.67 0 1 0 -5.34 0zM293.33 40 a2.67 2.67 0 1 0 5.34 0 a2.67 2.67 0 1 0 -5.34 0z" fill="rgba(218, 165, 32, 1)"></path>
            <path d="M1064 24L1016 24L1000 40L984 40" stroke-width="2.67" stroke="rgba(218, 165, 32, 1)"></path>
            <path d="M1061.33 24 a2.67 2.67 0 1 0 5.34 0 a2.67 2.67 0 1 0 -5.34 0zM981.33 40 a2.67 2.67 0 1 0 5.34 0 a2.67 2.67 0 1 0 -5.34 0z" fill="rgba(218, 165, 32, 1)"></path>
            <path d="M360 40L344 40L328 56" stroke-width="2.67" stroke="rgba(218, 165, 32, 1)"></path>
            <path d="M357.33 40 a2.67 2.67 0 1 0 5.34 0 a2.67 2.67 0 1 0 -5.34 0zM325.33 56 a2.67 2.67 0 1 0 5.34 0 a2.67 2.67 0 1 0 -5.34 0z" fill="rgba(218, 165, 32, 1)"></path>
            <path d="M1176 40L1160 40L1144 24" stroke-width="2.67" stroke="rgba(218, 165, 32, 1)"></path>
            <path d="M1173.33 40 a2.67 2.67 0 1 0 5.34 0 a2.67 2.67 0 1 0 -5.34 0zM1141.33 24 a2.67 2.67 0 1 0 5.34 0 a2.67 2.67 0 1 0 -5.34 0z" fill="rgba(218, 165, 32, 1)"></path>
            <path d="M760 56L776 72L792 72L808 56" stroke-width="2.67" stroke="rgba(218, 165, 32, 1)"></path>
            <path d="M757.33 56 a2.67 2.67 0 1 0 5.34 0 a2.67 2.67 0 1 0 -5.34 0zM805.33 56 a2.67 2.67 0 1 0 5.34 0 a2.67 2.67 0 1 0 -5.34 0z" fill="rgba(218, 165, 32, 1)"></path>
            <path d="M664 56L648 56L632 72" stroke-width="2.67" stroke="rgba(218, 165, 32, 1)"></path>
            <path d="M661.33 56 a2.67 2.67 0 1 0 5.34 0 a2.67 2.67 0 1 0 -5.34 0zM629.33 72 a2.67 2.67 0 1 0 5.34 0 a2.67 2.67 0 1 0 -5.34 0z" fill="rgba(218, 165, 32, 1)"></path>
            <path d="M136 56L168 56" stroke-width="2.67" stroke="rgba(218, 165, 32, 1)"></path>
            <path d="M133.33 56 a2.67 2.67 0 1 0 5.34 0 a2.67 2.67 0 1 0 -5.34 0zM165.33 56 a2.67 2.67 0 1 0 5.34 0 a2.67 2.67 0 1 0 -5.34 0z" fill="rgba(218, 165, 32, 1)"></path>
            <path d="M1064 40L1032 40" stroke-width="2.67" stroke="rgba(218, 165, 32, 1)"></path>
            <path d="M1061.33 40 a2.67 2.67 0 1 0 5.34 0 a2.67 2.67 0 1 0 -5.34 0zM1029.33 40 a2.67 2.67 0 1 0 5.34 0 a2.67 2.67 0 1 0 -5.34 0z" fill="rgba(218, 165, 32, 1)"></path>
            <path d="M1432 8L1416 8L1384 40L1368 40" stroke-width="2.67" stroke="rgba(218, 165, 32, 1)"></path>
            <path d="M1429.33 8 a2.67 2.67 0 1 0 5.34 0 a2.67 2.67 0 1 0 -5.34 0zM1365.33 40 a2.67 2.67 0 1 0 5.34 0 a2.67 2.67 0 1 0 -5.34 0z" fill="rgba(218, 165, 32, 1)"></path>
            <path d="M744 56L744 40L760 24L776 24" stroke-width="2.67" stroke="rgba(218, 165, 32, 1)"></path>
            <path d="M741.33 56 a2.67 2.67 0 1 0 5.34 0 a2.67 2.67 0 1 0 -5.34 0zM773.33 24 a2.67 2.67 0 1 0 5.34 0 a2.67 2.67 0 1 0 -5.34 0z" fill="rgba(218, 165, 32, 1)"></path>
            <path d="M1912 8L1896 24L1896 40" stroke-width="2.67" stroke="rgba(218, 165, 32, 1)"></path>
            <path d="M1909.33 8 a2.67 2.67 0 1 0 5.34 0 a2.67 2.67 0 1 0 -5.34 0zM1893.33 40 a2.67 2.67 0 1 0 5.34 0 a2.67 2.67 0 1 0 -5.34 0z" fill="rgba(218, 165, 32, 1)"></path>
            <path d="M1864 24L1816 24" stroke-width="2.67" stroke="rgba(218, 165, 32, 1)"></path>
            <path d="M1861.33 24 a2.67 2.67 0 1 0 5.34 0 a2.67 2.67 0 1 0 -5.34 0zM1813.33 24 a2.67 2.67 0 1 0 5.34 0 a2.67 2.67 0 1 0 -5.34 0z" fill="rgba(218, 165, 32, 1)"></path>
            <path d="M1672 72L1656 72L1624 40L1608 40" stroke-width="2.67" stroke="rgba(218, 165, 32, 1)"></path>
            <path d="M1669.33 72 a2.67 2.67 0 1 0 5.34 0 a2.67 2.67 0 1 0 -5.34 0zM1605.33 40 a2.67 2.67 0 1 0 5.34 0 a2.67 2.67 0 1 0 -5.34 0z" fill="rgba(218, 165, 32, 1)"></path>
            <path d="M696 72L648 72" stroke-width="2.67" stroke="rgba(218, 165, 32, 1)"></path>
            <path d="M693.33 72 a2.67 2.67 0 1 0 5.34 0 a2.67 2.67 0 1 0 -5.34 0zM645.33 72 a2.67 2.67 0 1 0 5.34 0 a2.67 2.67 0 1 0 -5.34 0z" fill="rgba(218, 165, 32, 1)"></path>
            <path d="M600 40L568 40" stroke-width="2.67" stroke="rgba(218, 165, 32, 1)"></path>
            <path d="M597.33 40 a2.67 2.67 0 1 0 5.34 0 a2.67 2.67 0 1 0 -5.34 0zM565.33 40 a2.67 2.67 0 1 0 5.34 0 a2.67 2.67 0 1 0 -5.34 0z" fill="rgba(218, 165, 32, 1)"></path>
            <path d="M584 24L616 24" stroke-width="2.67" stroke="rgba(218, 165, 32, 1)"></path>
            <path d="M581.33 24 a2.67 2.67 0 1 0 5.34 0 a2.67 2.67 0 1 0 -5.34 0zM613.33 24 a2.67 2.67 0 1 0 5.34 0 a2.67 2.67 0 1 0 -5.34 0z" fill="rgba(218, 165, 32, 1)"></path>
            <path d="M1672 56L1656 56L1640 40" stroke-width="2.67" stroke="rgba(218, 165, 32, 1)"></path>
            <path d="M1669.33 56 a2.67 2.67 0 1 0 5.34 0 a2.67 2.67 0 1 0 -5.34 0zM1637.33 40 a2.67 2.67 0 1 0 5.34 0 a2.67 2.67 0 1 0 -5.34 0z" fill="rgba(218, 165, 32, 1)"></path>
            <path d="M56 56L40 56L24 40" stroke-width="2.67" stroke="rgba(218, 165, 32, 1)"></path>
            <path d="M53.33 56 a2.67 2.67 0 1 0 5.34 0 a2.67 2.67 0 1 0 -5.34 0zM21.33 40 a2.67 2.67 0 1 0 5.34 0 a2.67 2.67 0 1 0 -5.34 0z" fill="rgba(218, 165, 32, 1)"></path>
        </g>
    </g>
    <defs>
        <mask id="SvgjsMask1006">
            <rect width="1920" height="80" fill="#ffffff"></rect>
        </mask>
        <linearGradient x1="50%" y1="100%" x2="50%" y2="0%" gradientUnits="userSpaceOnUse" id="SvgjsLinearGradient1007">
            <stop stop-color="rgba(47, 57, 67, 1)" offset="0"></stop>
            <stop stop-color="rgba(24, 33, 43, 1)" offset="0.8"></stop>
        </linearGradient>
    </defs>
</svg>