<svg xmlns="http://www.w3.org/2000/svg" version="1.1" xmlns:xlink="http://www.w3.org/1999/xlink" xmlns:svgjs="http://svgjs.com/svgjs" width="1920" height="1080" preserveAspectRatio="none" viewBox="0 0 1920 1080">
    <g mask="url(&quot;#SvgjsMask1003&quot;)" fill="none">
        <rect width="1920" height="1080" x="0" y="0" fill="rgba(249, 249, 249, 1)"></rect>
        <g mask="url(&quot;#SvgjsMask1005&quot;)">
            <path d="M967.5 742.5L982.5 727.5M967.5 652.5L952.5 637.5M967.5 787.5L982.5 772.5M952.5 802.5L952.5 787.5L952.5 772.5L952.5 757.5L952.5 742.5M967.5 757.5L982.5 742.5M937.5 862.5L922.5 847.5M967.5 577.5L982.5 562.5L982.5 547.5L982.5 532.5L982.5 517.5L982.5 502.5M967.5 1042.5L982.5 1027.5M967.5 727.5L952.5 712.5L952.5 697.5L952.5 682.5L952.5 667.5M967.5 622.5L982.5 607.5L982.5 592.5L997.5 577.5L997.5 562.5L997.5 547.5L997.5 532.5L997.5 517.5M967.5 1102.5L967.5 1087.5L967.5 1072.5L967.5 1057.5L967.5 1042.5L967.5 1027.5L967.5 1012.5L967.5 997.5L967.5 982.5L967.5 967.5L967.5 952.5L952.5 937.5L937.5 922.5L937.5 907.5L937.5 892.5L937.5 877.5L937.5 862.5L937.5 847.5L937.5 832.5L952.5 817.5L952.5 802.5L967.5 787.5L967.5 772.5L967.5 757.5L967.5 742.5L967.5 727.5L967.5 712.5L967.5 697.5L967.5 682.5L967.5 667.5L967.5 652.5L967.5 637.5L967.5 622.5L967.5 607.5L967.5 592.5L967.5 577.5L967.5 562.5L967.5 547.5L967.5 532.5L967.5 517.5L967.5 502.5" stroke="url(#SvgjsLinearGradient1004)" stroke-width="2.5"></path>
            <path d="M963.75 502.5 a3.75 3.75 0 1 0 7.5 0 a3.75 3.75 0 1 0 -7.5 0zM978.75 727.5 a3.75 3.75 0 1 0 7.5 0 a3.75 3.75 0 1 0 -7.5 0zM948.75 637.5 a3.75 3.75 0 1 0 7.5 0 a3.75 3.75 0 1 0 -7.5 0zM978.75 772.5 a3.75 3.75 0 1 0 7.5 0 a3.75 3.75 0 1 0 -7.5 0zM948.75 742.5 a3.75 3.75 0 1 0 7.5 0 a3.75 3.75 0 1 0 -7.5 0zM978.75 742.5 a3.75 3.75 0 1 0 7.5 0 a3.75 3.75 0 1 0 -7.5 0zM918.75 847.5 a3.75 3.75 0 1 0 7.5 0 a3.75 3.75 0 1 0 -7.5 0zM978.75 502.5 a3.75 3.75 0 1 0 7.5 0 a3.75 3.75 0 1 0 -7.5 0zM978.75 1027.5 a3.75 3.75 0 1 0 7.5 0 a3.75 3.75 0 1 0 -7.5 0zM948.75 667.5 a3.75 3.75 0 1 0 7.5 0 a3.75 3.75 0 1 0 -7.5 0zM993.75 517.5 a3.75 3.75 0 1 0 7.5 0 a3.75 3.75 0 1 0 -7.5 0z" fill="url(#SvgjsLinearGradient1004)"></path>
            <path d="M952.5 1012.5L937.5 997.5L937.5 982.5M952.5 967.5L937.5 952.5M952.5 1027.5L937.5 1012.5M952.5 1102.5L952.5 1087.5L952.5 1072.5L952.5 1057.5L952.5 1042.5L952.5 1027.5L952.5 1012.5L952.5 997.5L952.5 982.5L952.5 967.5L952.5 952.5L937.5 937.5L922.5 922.5L907.5 907.5" stroke="url(#SvgjsLinearGradient1004)" stroke-width="2.5"></path>
            <path d="M903.75 907.5 a3.75 3.75 0 1 0 7.5 0 a3.75 3.75 0 1 0 -7.5 0zM933.75 982.5 a3.75 3.75 0 1 0 7.5 0 a3.75 3.75 0 1 0 -7.5 0zM933.75 952.5 a3.75 3.75 0 1 0 7.5 0 a3.75 3.75 0 1 0 -7.5 0zM933.75 1012.5 a3.75 3.75 0 1 0 7.5 0 a3.75 3.75 0 1 0 -7.5 0z" fill="url(#SvgjsLinearGradient1004)"></path>
            <path d="M982.5 982.5L982.5 967.5L982.5 952.5M997.5 1057.5L982.5 1042.5M997.5 1072.5L982.5 1057.5M982.5 1102.5L982.5 1087.5L997.5 1072.5L997.5 1057.5L997.5 1042.5L997.5 1027.5L982.5 1012.5L982.5 997.5L982.5 982.5L997.5 967.5L997.5 952.5" stroke="url(#SvgjsLinearGradient1004)" stroke-width="2.5"></path>
            <path d="M993.75 952.5 a3.75 3.75 0 1 0 7.5 0 a3.75 3.75 0 1 0 -7.5 0zM978.75 952.5 a3.75 3.75 0 1 0 7.5 0 a3.75 3.75 0 1 0 -7.5 0zM978.75 1042.5 a3.75 3.75 0 1 0 7.5 0 a3.75 3.75 0 1 0 -7.5 0zM978.75 1057.5 a3.75 3.75 0 1 0 7.5 0 a3.75 3.75 0 1 0 -7.5 0z" fill="url(#SvgjsLinearGradient1004)"></path>
            <path d="M922.5 997.5L907.5 982.5L907.5 967.5M922.5 1042.5L937.5 1027.5M922.5 1012.5L907.5 997.5M937.5 1102.5L937.5 1087.5L937.5 1072.5L937.5 1057.5L922.5 1042.5L922.5 1027.5L922.5 1012.5L922.5 997.5L922.5 982.5L922.5 967.5L922.5 952.5" stroke="url(#SvgjsLinearGradient1004)" stroke-width="2.5"></path>
            <path d="M918.75 952.5 a3.75 3.75 0 1 0 7.5 0 a3.75 3.75 0 1 0 -7.5 0zM903.75 967.5 a3.75 3.75 0 1 0 7.5 0 a3.75 3.75 0 1 0 -7.5 0zM933.75 1027.5 a3.75 3.75 0 1 0 7.5 0 a3.75 3.75 0 1 0 -7.5 0zM903.75 997.5 a3.75 3.75 0 1 0 7.5 0 a3.75 3.75 0 1 0 -7.5 0z" fill="url(#SvgjsLinearGradient1004)"></path>
            <path d="M1012.5 682.5L997.5 667.5L982.5 652.5L982.5 637.5M1012.5 637.5L1027.5 622.5L1027.5 607.5L1042.5 592.5L1042.5 577.5M1012.5 967.5L1027.5 952.5L1042.5 937.5L1042.5 922.5L1042.5 907.5L1042.5 892.5L1042.5 877.5L1042.5 862.5L1057.5 847.5L1057.5 832.5L1057.5 817.5L1057.5 802.5L1057.5 787.5L1057.5 772.5M997.5 1012.5L1012.5 997.5M1012.5 667.5L1027.5 652.5L1027.5 637.5M1027.5 862.5L1027.5 847.5L1027.5 832.5L1027.5 817.5L1027.5 802.5L1027.5 787.5L1027.5 772.5L1027.5 757.5L1012.5 742.5L997.5 727.5L997.5 712.5L997.5 697.5L982.5 682.5M1012.5 1027.5L1012.5 1012.5L1027.5 997.5L1027.5 982.5L1027.5 967.5L1042.5 952.5M1012.5 532.5L1027.5 517.5M1012.5 577.5L1027.5 562.5L1027.5 547.5L1027.5 532.5M1012.5 472.5L997.5 457.5L997.5 442.5L997.5 427.5L997.5 412.5L997.5 397.5L997.5 382.5M1012.5 652.5L997.5 637.5L997.5 622.5L997.5 607.5L997.5 592.5M1012.5 937.5L997.5 922.5L997.5 907.5L997.5 892.5L997.5 877.5M997.5 1102.5L997.5 1087.5L1012.5 1072.5L1012.5 1057.5L1012.5 1042.5L1012.5 1027.5L997.5 1012.5L997.5 997.5L997.5 982.5L1012.5 967.5L1012.5 952.5L1012.5 937.5L1012.5 922.5L1012.5 907.5L1012.5 892.5L1027.5 877.5L1027.5 862.5L1042.5 847.5L1042.5 832.5L1042.5 817.5L1042.5 802.5L1042.5 787.5L1042.5 772.5L1042.5 757.5L1027.5 742.5L1012.5 727.5L1012.5 712.5L1012.5 697.5L1012.5 682.5L1012.5 667.5L1012.5 652.5L1012.5 637.5L1012.5 622.5L1012.5 607.5L1012.5 592.5L1012.5 577.5L1012.5 562.5L1012.5 547.5L1012.5 532.5L1012.5 517.5L1012.5 502.5L1012.5 487.5L1012.5 472.5L1012.5 457.5L1012.5 442.5L1012.5 427.5L1012.5 412.5L1012.5 397.5L1012.5 382.5L1012.5 367.5" stroke="url(#SvgjsLinearGradient1004)" stroke-width="2.5"></path>
            <path d="M1008.75 367.5 a3.75 3.75 0 1 0 7.5 0 a3.75 3.75 0 1 0 -7.5 0zM978.75 637.5 a3.75 3.75 0 1 0 7.5 0 a3.75 3.75 0 1 0 -7.5 0zM1038.75 577.5 a3.75 3.75 0 1 0 7.5 0 a3.75 3.75 0 1 0 -7.5 0zM1053.75 772.5 a3.75 3.75 0 1 0 7.5 0 a3.75 3.75 0 1 0 -7.5 0zM1008.75 997.5 a3.75 3.75 0 1 0 7.5 0 a3.75 3.75 0 1 0 -7.5 0zM1023.75 637.5 a3.75 3.75 0 1 0 7.5 0 a3.75 3.75 0 1 0 -7.5 0zM978.75 682.5 a3.75 3.75 0 1 0 7.5 0 a3.75 3.75 0 1 0 -7.5 0zM1038.75 952.5 a3.75 3.75 0 1 0 7.5 0 a3.75 3.75 0 1 0 -7.5 0zM1023.75 517.5 a3.75 3.75 0 1 0 7.5 0 a3.75 3.75 0 1 0 -7.5 0zM1023.75 532.5 a3.75 3.75 0 1 0 7.5 0 a3.75 3.75 0 1 0 -7.5 0zM993.75 382.5 a3.75 3.75 0 1 0 7.5 0 a3.75 3.75 0 1 0 -7.5 0zM993.75 592.5 a3.75 3.75 0 1 0 7.5 0 a3.75 3.75 0 1 0 -7.5 0zM993.75 877.5 a3.75 3.75 0 1 0 7.5 0 a3.75 3.75 0 1 0 -7.5 0z" fill="url(#SvgjsLinearGradient1004)"></path>
            <path d="M922.5 1102.5L922.5 1087.5L922.5 1072.5L922.5 1057.5L907.5 1042.5L907.5 1027.5" stroke="url(#SvgjsLinearGradient1004)" stroke-width="2.5"></path>
            <path d="M903.75 1027.5 a3.75 3.75 0 1 0 7.5 0 a3.75 3.75 0 1 0 -7.5 0z" fill="url(#SvgjsLinearGradient1004)"></path>
            <path d="M1087.5 892.5L1072.5 877.5L1072.5 862.5L1072.5 847.5L1072.5 832.5M1057.5 952.5L1057.5 937.5L1057.5 922.5L1057.5 907.5L1057.5 892.5L1057.5 877.5L1057.5 862.5M1087.5 817.5L1072.5 802.5L1072.5 787.5L1072.5 772.5L1072.5 757.5M1072.5 907.5L1072.5 892.5M1027.5 1027.5L1027.5 1012.5M1012.5 1102.5L1012.5 1087.5L1027.5 1072.5L1027.5 1057.5L1027.5 1042.5L1027.5 1027.5L1042.5 1012.5L1042.5 997.5L1042.5 982.5L1057.5 967.5L1057.5 952.5L1072.5 937.5L1072.5 922.5L1072.5 907.5L1087.5 892.5L1087.5 877.5L1087.5 862.5L1087.5 847.5L1087.5 832.5L1087.5 817.5L1087.5 802.5" stroke="url(#SvgjsLinearGradient1004)" stroke-width="2.5"></path>
            <path d="M1083.75 802.5 a3.75 3.75 0 1 0 7.5 0 a3.75 3.75 0 1 0 -7.5 0zM1068.75 832.5 a3.75 3.75 0 1 0 7.5 0 a3.75 3.75 0 1 0 -7.5 0zM1053.75 862.5 a3.75 3.75 0 1 0 7.5 0 a3.75 3.75 0 1 0 -7.5 0zM1068.75 757.5 a3.75 3.75 0 1 0 7.5 0 a3.75 3.75 0 1 0 -7.5 0zM1068.75 892.5 a3.75 3.75 0 1 0 7.5 0 a3.75 3.75 0 1 0 -7.5 0zM1023.75 1012.5 a3.75 3.75 0 1 0 7.5 0 a3.75 3.75 0 1 0 -7.5 0z" fill="url(#SvgjsLinearGradient1004)"></path>
            <path d="M877.5 742.5L892.5 727.5L892.5 712.5L892.5 697.5L907.5 682.5M892.5 922.5L877.5 907.5L877.5 892.5L877.5 877.5L877.5 862.5L877.5 847.5L877.5 832.5L877.5 817.5M892.5 832.5L907.5 817.5L922.5 802.5L922.5 787.5L922.5 772.5L922.5 757.5L922.5 742.5L922.5 727.5L922.5 712.5L922.5 697.5L922.5 682.5M892.5 982.5L877.5 967.5L877.5 952.5L877.5 937.5L877.5 922.5M862.5 667.5L862.5 652.5L862.5 637.5L862.5 622.5L862.5 607.5L862.5 592.5L877.5 577.5L877.5 562.5L877.5 547.5L877.5 532.5L862.5 517.5L862.5 502.5M892.5 802.5L907.5 787.5L907.5 772.5L907.5 757.5L892.5 742.5M877.5 712.5L877.5 697.5L877.5 682.5L877.5 667.5L877.5 652.5M892.5 787.5L892.5 772.5L892.5 757.5M892.5 997.5L877.5 982.5M907.5 1102.5L907.5 1087.5L907.5 1072.5L907.5 1057.5L892.5 1042.5L892.5 1027.5L892.5 1012.5L892.5 997.5L892.5 982.5L892.5 967.5L892.5 952.5L892.5 937.5L892.5 922.5L892.5 907.5L892.5 892.5L892.5 877.5L892.5 862.5L892.5 847.5L892.5 832.5L892.5 817.5L892.5 802.5L892.5 787.5L877.5 772.5L877.5 757.5L877.5 742.5L877.5 727.5L877.5 712.5L862.5 697.5L862.5 682.5L862.5 667.5L847.5 652.5L847.5 637.5L847.5 622.5L847.5 607.5L847.5 592.5L862.5 577.5L862.5 562.5L862.5 547.5" stroke="url(#SvgjsLinearGradient1004)" stroke-width="2.5"></path>
            <path d="M858.75 547.5 a3.75 3.75 0 1 0 7.5 0 a3.75 3.75 0 1 0 -7.5 0zM903.75 682.5 a3.75 3.75 0 1 0 7.5 0 a3.75 3.75 0 1 0 -7.5 0zM873.75 817.5 a3.75 3.75 0 1 0 7.5 0 a3.75 3.75 0 1 0 -7.5 0zM918.75 682.5 a3.75 3.75 0 1 0 7.5 0 a3.75 3.75 0 1 0 -7.5 0zM873.75 922.5 a3.75 3.75 0 1 0 7.5 0 a3.75 3.75 0 1 0 -7.5 0zM858.75 502.5 a3.75 3.75 0 1 0 7.5 0 a3.75 3.75 0 1 0 -7.5 0zM888.75 742.5 a3.75 3.75 0 1 0 7.5 0 a3.75 3.75 0 1 0 -7.5 0zM873.75 652.5 a3.75 3.75 0 1 0 7.5 0 a3.75 3.75 0 1 0 -7.5 0zM888.75 757.5 a3.75 3.75 0 1 0 7.5 0 a3.75 3.75 0 1 0 -7.5 0zM873.75 982.5 a3.75 3.75 0 1 0 7.5 0 a3.75 3.75 0 1 0 -7.5 0z" fill="url(#SvgjsLinearGradient1004)"></path>
            <path d="M1027.5 1102.5L1027.5 1087.5" stroke="url(#SvgjsLinearGradient1004)" stroke-width="2.5"></path>
            <path d="M1023.75 1087.5 a3.75 3.75 0 1 0 7.5 0 a3.75 3.75 0 1 0 -7.5 0z" fill="url(#SvgjsLinearGradient1004)"></path>
            <path d="M862.5 832.5L847.5 817.5L847.5 802.5L847.5 787.5L847.5 772.5L847.5 757.5L847.5 742.5L847.5 727.5L847.5 712.5M862.5 907.5L847.5 892.5L847.5 877.5L847.5 862.5M862.5 937.5L847.5 922.5L847.5 907.5M862.5 802.5L877.5 787.5M877.5 1012.5L877.5 997.5M862.5 847.5L847.5 832.5M892.5 1102.5L892.5 1087.5L892.5 1072.5L892.5 1057.5L877.5 1042.5L877.5 1027.5L877.5 1012.5L862.5 997.5L862.5 982.5L862.5 967.5L862.5 952.5L862.5 937.5L862.5 922.5L862.5 907.5L862.5 892.5L862.5 877.5L862.5 862.5L862.5 847.5L862.5 832.5L862.5 817.5L862.5 802.5L862.5 787.5L862.5 772.5L862.5 757.5L862.5 742.5L862.5 727.5L862.5 712.5L847.5 697.5L847.5 682.5L847.5 667.5L832.5 652.5L832.5 637.5L832.5 622.5L832.5 607.5" stroke="url(#SvgjsLinearGradient1004)" stroke-width="2.5"></path>
            <path d="M828.75 607.5 a3.75 3.75 0 1 0 7.5 0 a3.75 3.75 0 1 0 -7.5 0zM843.75 712.5 a3.75 3.75 0 1 0 7.5 0 a3.75 3.75 0 1 0 -7.5 0zM843.75 862.5 a3.75 3.75 0 1 0 7.5 0 a3.75 3.75 0 1 0 -7.5 0zM843.75 907.5 a3.75 3.75 0 1 0 7.5 0 a3.75 3.75 0 1 0 -7.5 0zM873.75 787.5 a3.75 3.75 0 1 0 7.5 0 a3.75 3.75 0 1 0 -7.5 0zM873.75 997.5 a3.75 3.75 0 1 0 7.5 0 a3.75 3.75 0 1 0 -7.5 0zM843.75 832.5 a3.75 3.75 0 1 0 7.5 0 a3.75 3.75 0 1 0 -7.5 0z" fill="url(#SvgjsLinearGradient1004)"></path>
            <path d="M1087.5 937.5L1102.5 922.5M1042.5 1072.5L1057.5 1057.5M1042.5 1042.5L1057.5 1027.5M1042.5 1102.5L1042.5 1087.5L1042.5 1072.5L1042.5 1057.5L1042.5 1042.5L1042.5 1027.5L1057.5 1012.5L1057.5 997.5L1057.5 982.5L1072.5 967.5L1072.5 952.5L1087.5 937.5L1087.5 922.5L1087.5 907.5L1102.5 892.5" stroke="url(#SvgjsLinearGradient1004)" stroke-width="2.5"></path>
            <path d="M1098.75 892.5 a3.75 3.75 0 1 0 7.5 0 a3.75 3.75 0 1 0 -7.5 0zM1098.75 922.5 a3.75 3.75 0 1 0 7.5 0 a3.75 3.75 0 1 0 -7.5 0zM1053.75 1057.5 a3.75 3.75 0 1 0 7.5 0 a3.75 3.75 0 1 0 -7.5 0zM1053.75 1027.5 a3.75 3.75 0 1 0 7.5 0 a3.75 3.75 0 1 0 -7.5 0z" fill="url(#SvgjsLinearGradient1004)"></path>
            <path d="M817.5 562.5L832.5 547.5L832.5 532.5L832.5 517.5M847.5 952.5L847.5 937.5M817.5 592.5L832.5 577.5M817.5 502.5L832.5 487.5L832.5 472.5L832.5 457.5L832.5 442.5L832.5 427.5L832.5 412.5L832.5 397.5L832.5 382.5L832.5 367.5L832.5 352.5M877.5 1102.5L877.5 1087.5L877.5 1072.5L877.5 1057.5L862.5 1042.5L862.5 1027.5L862.5 1012.5L847.5 997.5L847.5 982.5L847.5 967.5L847.5 952.5L832.5 937.5L832.5 922.5L832.5 907.5L832.5 892.5L832.5 877.5L832.5 862.5L832.5 847.5L832.5 832.5L832.5 817.5L832.5 802.5L832.5 787.5L832.5 772.5L832.5 757.5L832.5 742.5L832.5 727.5L832.5 712.5L832.5 697.5L832.5 682.5L832.5 667.5L817.5 652.5L817.5 637.5L817.5 622.5L817.5 607.5L817.5 592.5L817.5 577.5L817.5 562.5L817.5 547.5L817.5 532.5L817.5 517.5L817.5 502.5L817.5 487.5" stroke="url(#SvgjsLinearGradient1004)" stroke-width="2.5"></path>
            <path d="M813.75 487.5 a3.75 3.75 0 1 0 7.5 0 a3.75 3.75 0 1 0 -7.5 0zM828.75 517.5 a3.75 3.75 0 1 0 7.5 0 a3.75 3.75 0 1 0 -7.5 0zM843.75 937.5 a3.75 3.75 0 1 0 7.5 0 a3.75 3.75 0 1 0 -7.5 0zM828.75 577.5 a3.75 3.75 0 1 0 7.5 0 a3.75 3.75 0 1 0 -7.5 0zM828.75 352.5 a3.75 3.75 0 1 0 7.5 0 a3.75 3.75 0 1 0 -7.5 0z" fill="url(#SvgjsLinearGradient1004)"></path>
            <path d="M1057.5 1102.5L1057.5 1087.5" stroke="url(#SvgjsLinearGradient1004)" stroke-width="2.5"></path>
            <path d="M1053.75 1087.5 a3.75 3.75 0 1 0 7.5 0 a3.75 3.75 0 1 0 -7.5 0z" fill="url(#SvgjsLinearGradient1004)"></path>
            <path d="M862.5 1102.5L862.5 1087.5L862.5 1072.5L862.5 1057.5L847.5 1042.5L847.5 1027.5" stroke="url(#SvgjsLinearGradient1004)" stroke-width="2.5"></path>
            <path d="M843.75 1027.5 a3.75 3.75 0 1 0 7.5 0 a3.75 3.75 0 1 0 -7.5 0z" fill="url(#SvgjsLinearGradient1004)"></path>
            <path d="M1087.5 622.5L1072.5 607.5L1072.5 592.5M1087.5 592.5L1087.5 577.5L1087.5 562.5L1087.5 547.5L1087.5 532.5L1087.5 517.5M1087.5 607.5L1102.5 592.5L1117.5 577.5L1117.5 562.5L1117.5 547.5L1117.5 532.5L1117.5 517.5L1117.5 502.5L1132.5 487.5L1132.5 472.5L1132.5 457.5M1087.5 967.5L1087.5 952.5M1102.5 832.5L1117.5 817.5L1117.5 802.5L1117.5 787.5L1117.5 772.5L1117.5 757.5L1117.5 742.5L1117.5 727.5L1117.5 712.5L1117.5 697.5M1102.5 772.5L1087.5 757.5L1087.5 742.5L1072.5 727.5L1072.5 712.5M1072.5 1087.5L1087.5 1072.5L1087.5 1057.5M1102.5 862.5L1117.5 847.5M1087.5 682.5L1072.5 667.5L1072.5 652.5L1072.5 637.5L1072.5 622.5L1057.5 607.5L1057.5 592.5L1057.5 577.5M1102.5 502.5L1102.5 487.5L1102.5 472.5L1102.5 457.5L1102.5 442.5L1102.5 427.5L1102.5 412.5L1102.5 397.5L1102.5 382.5L1102.5 367.5L1102.5 352.5M1072.5 1102.5L1072.5 1087.5L1072.5 1072.5L1072.5 1057.5L1072.5 1042.5L1072.5 1027.5L1072.5 1012.5L1072.5 997.5L1072.5 982.5L1087.5 967.5L1102.5 952.5L1117.5 937.5L1117.5 922.5L1117.5 907.5L1117.5 892.5L1117.5 877.5L1102.5 862.5L1102.5 847.5L1102.5 832.5L1102.5 817.5L1102.5 802.5L1102.5 787.5L1102.5 772.5L1102.5 757.5L1102.5 742.5L1087.5 727.5L1087.5 712.5L1087.5 697.5L1087.5 682.5L1087.5 667.5L1087.5 652.5L1087.5 637.5L1087.5 622.5L1087.5 607.5L1087.5 592.5L1102.5 577.5L1102.5 562.5L1102.5 547.5L1102.5 532.5L1102.5 517.5L1102.5 502.5L1117.5 487.5" stroke="url(#SvgjsLinearGradient1004)" stroke-width="2.5"></path>
            <path d="M1113.75 487.5 a3.75 3.75 0 1 0 7.5 0 a3.75 3.75 0 1 0 -7.5 0zM1068.75 592.5 a3.75 3.75 0 1 0 7.5 0 a3.75 3.75 0 1 0 -7.5 0zM1083.75 517.5 a3.75 3.75 0 1 0 7.5 0 a3.75 3.75 0 1 0 -7.5 0zM1128.75 457.5 a3.75 3.75 0 1 0 7.5 0 a3.75 3.75 0 1 0 -7.5 0zM1083.75 952.5 a3.75 3.75 0 1 0 7.5 0 a3.75 3.75 0 1 0 -7.5 0zM1113.75 697.5 a3.75 3.75 0 1 0 7.5 0 a3.75 3.75 0 1 0 -7.5 0zM1068.75 712.5 a3.75 3.75 0 1 0 7.5 0 a3.75 3.75 0 1 0 -7.5 0zM1083.75 1057.5 a3.75 3.75 0 1 0 7.5 0 a3.75 3.75 0 1 0 -7.5 0zM1113.75 847.5 a3.75 3.75 0 1 0 7.5 0 a3.75 3.75 0 1 0 -7.5 0zM1053.75 577.5 a3.75 3.75 0 1 0 7.5 0 a3.75 3.75 0 1 0 -7.5 0zM1098.75 352.5 a3.75 3.75 0 1 0 7.5 0 a3.75 3.75 0 1 0 -7.5 0z" fill="url(#SvgjsLinearGradient1004)"></path>
            <path d="M802.5 652.5L787.5 637.5L772.5 622.5M832.5 1042.5L817.5 1027.5L817.5 1012.5L817.5 997.5L817.5 982.5L817.5 967.5L817.5 952.5M802.5 622.5L787.5 607.5L787.5 592.5M817.5 892.5L802.5 877.5M817.5 697.5L802.5 682.5L787.5 667.5L787.5 652.5L772.5 637.5M817.5 802.5L802.5 787.5M817.5 937.5L802.5 922.5L787.5 907.5L787.5 892.5L787.5 877.5L802.5 862.5L802.5 847.5L802.5 832.5L802.5 817.5L802.5 802.5L787.5 787.5L787.5 772.5L787.5 757.5M817.5 772.5L802.5 757.5M802.5 562.5L787.5 547.5M847.5 1102.5L847.5 1087.5L847.5 1072.5L847.5 1057.5L832.5 1042.5L832.5 1027.5L832.5 1012.5L832.5 997.5L832.5 982.5L832.5 967.5L832.5 952.5L817.5 937.5L817.5 922.5L817.5 907.5L817.5 892.5L817.5 877.5L817.5 862.5L817.5 847.5L817.5 832.5L817.5 817.5L817.5 802.5L817.5 787.5L817.5 772.5L817.5 757.5L817.5 742.5L817.5 727.5L817.5 712.5L817.5 697.5L817.5 682.5L817.5 667.5L802.5 652.5L802.5 637.5L802.5 622.5L802.5 607.5L802.5 592.5L802.5 577.5L802.5 562.5L802.5 547.5L802.5 532.5" stroke="url(#SvgjsLinearGradient1004)" stroke-width="2.5"></path>
            <path d="M798.75 532.5 a3.75 3.75 0 1 0 7.5 0 a3.75 3.75 0 1 0 -7.5 0zM768.75 622.5 a3.75 3.75 0 1 0 7.5 0 a3.75 3.75 0 1 0 -7.5 0zM813.75 952.5 a3.75 3.75 0 1 0 7.5 0 a3.75 3.75 0 1 0 -7.5 0zM783.75 592.5 a3.75 3.75 0 1 0 7.5 0 a3.75 3.75 0 1 0 -7.5 0zM798.75 877.5 a3.75 3.75 0 1 0 7.5 0 a3.75 3.75 0 1 0 -7.5 0zM768.75 637.5 a3.75 3.75 0 1 0 7.5 0 a3.75 3.75 0 1 0 -7.5 0zM798.75 787.5 a3.75 3.75 0 1 0 7.5 0 a3.75 3.75 0 1 0 -7.5 0zM783.75 757.5 a3.75 3.75 0 1 0 7.5 0 a3.75 3.75 0 1 0 -7.5 0zM798.75 757.5 a3.75 3.75 0 1 0 7.5 0 a3.75 3.75 0 1 0 -7.5 0zM783.75 547.5 a3.75 3.75 0 1 0 7.5 0 a3.75 3.75 0 1 0 -7.5 0z" fill="url(#SvgjsLinearGradient1004)"></path>
            <path d="M1087.5 997.5L1102.5 982.5L1117.5 967.5M1102.5 1057.5L1102.5 1042.5L1102.5 1027.5L1102.5 1012.5M1132.5 877.5L1147.5 862.5L1147.5 847.5M1102.5 1072.5L1117.5 1057.5L1117.5 1042.5L1117.5 1027.5L1117.5 1012.5L1117.5 997.5L1117.5 982.5M1087.5 1102.5L1102.5 1087.5L1102.5 1072.5L1102.5 1057.5L1087.5 1042.5L1087.5 1027.5L1087.5 1012.5L1087.5 997.5L1087.5 982.5L1102.5 967.5L1117.5 952.5L1132.5 937.5L1132.5 922.5L1132.5 907.5L1132.5 892.5L1132.5 877.5L1132.5 862.5L1132.5 847.5L1132.5 832.5" stroke="url(#SvgjsLinearGradient1004)" stroke-width="2.5"></path>
            <path d="M1128.75 832.5 a3.75 3.75 0 1 0 7.5 0 a3.75 3.75 0 1 0 -7.5 0zM1113.75 967.5 a3.75 3.75 0 1 0 7.5 0 a3.75 3.75 0 1 0 -7.5 0zM1098.75 1012.5 a3.75 3.75 0 1 0 7.5 0 a3.75 3.75 0 1 0 -7.5 0zM1143.75 847.5 a3.75 3.75 0 1 0 7.5 0 a3.75 3.75 0 1 0 -7.5 0zM1113.75 982.5 a3.75 3.75 0 1 0 7.5 0 a3.75 3.75 0 1 0 -7.5 0z" fill="url(#SvgjsLinearGradient1004)"></path>
            <path d="M817.5 1087.5L832.5 1072.5M832.5 1102.5L817.5 1087.5L817.5 1072.5L832.5 1057.5" stroke="url(#SvgjsLinearGradient1004)" stroke-width="2.5"></path>
            <path d="M828.75 1057.5 a3.75 3.75 0 1 0 7.5 0 a3.75 3.75 0 1 0 -7.5 0zM828.75 1072.5 a3.75 3.75 0 1 0 7.5 0 a3.75 3.75 0 1 0 -7.5 0z" fill="url(#SvgjsLinearGradient1004)"></path>
            <path d="M1117.5 1087.5L1117.5 1072.5M1132.5 982.5L1147.5 967.5L1147.5 952.5M1132.5 997.5L1147.5 982.5M1117.5 1102.5L1117.5 1087.5L1132.5 1072.5L1132.5 1057.5L1132.5 1042.5L1132.5 1027.5L1132.5 1012.5L1132.5 997.5L1132.5 982.5L1132.5 967.5L1132.5 952.5L1147.5 937.5L1147.5 922.5L1147.5 907.5" stroke="url(#SvgjsLinearGradient1004)" stroke-width="2.5"></path>
            <path d="M1143.75 907.5 a3.75 3.75 0 1 0 7.5 0 a3.75 3.75 0 1 0 -7.5 0zM1113.75 1072.5 a3.75 3.75 0 1 0 7.5 0 a3.75 3.75 0 1 0 -7.5 0zM1143.75 952.5 a3.75 3.75 0 1 0 7.5 0 a3.75 3.75 0 1 0 -7.5 0zM1143.75 982.5 a3.75 3.75 0 1 0 7.5 0 a3.75 3.75 0 1 0 -7.5 0z" fill="url(#SvgjsLinearGradient1004)"></path>
            <path d="M772.5 937.5L757.5 922.5L757.5 907.5L757.5 892.5L757.5 877.5M787.5 1087.5L787.5 1072.5L787.5 1057.5L787.5 1042.5L787.5 1027.5M772.5 952.5L757.5 937.5M772.5 982.5L757.5 967.5L757.5 952.5M772.5 862.5L787.5 847.5L787.5 832.5L787.5 817.5L787.5 802.5L772.5 787.5M802.5 1102.5L787.5 1087.5L772.5 1072.5L772.5 1057.5L772.5 1042.5L772.5 1027.5L772.5 1012.5L772.5 997.5L772.5 982.5L772.5 967.5L772.5 952.5L772.5 937.5L772.5 922.5L772.5 907.5L772.5 892.5L772.5 877.5L772.5 862.5L772.5 847.5L772.5 832.5L772.5 817.5" stroke="url(#SvgjsLinearGradient1004)" stroke-width="2.5"></path>
            <path d="M768.75 817.5 a3.75 3.75 0 1 0 7.5 0 a3.75 3.75 0 1 0 -7.5 0zM753.75 877.5 a3.75 3.75 0 1 0 7.5 0 a3.75 3.75 0 1 0 -7.5 0zM783.75 1027.5 a3.75 3.75 0 1 0 7.5 0 a3.75 3.75 0 1 0 -7.5 0zM753.75 937.5 a3.75 3.75 0 1 0 7.5 0 a3.75 3.75 0 1 0 -7.5 0zM753.75 952.5 a3.75 3.75 0 1 0 7.5 0 a3.75 3.75 0 1 0 -7.5 0zM768.75 787.5 a3.75 3.75 0 1 0 7.5 0 a3.75 3.75 0 1 0 -7.5 0z" fill="url(#SvgjsLinearGradient1004)"></path>
            <path d="M1162.5 952.5L1177.5 937.5L1177.5 922.5L1177.5 907.5L1177.5 892.5L1177.5 877.5L1177.5 862.5L1177.5 847.5L1177.5 832.5M1162.5 967.5L1177.5 952.5M1147.5 1012.5L1147.5 997.5M1162.5 892.5L1147.5 877.5M1162.5 832.5L1147.5 817.5L1147.5 802.5L1147.5 787.5L1147.5 772.5L1147.5 757.5L1147.5 742.5L1147.5 727.5M1132.5 1102.5L1132.5 1087.5L1147.5 1072.5L1147.5 1057.5L1147.5 1042.5L1147.5 1027.5L1147.5 1012.5L1162.5 997.5L1162.5 982.5L1162.5 967.5L1162.5 952.5L1162.5 937.5L1162.5 922.5L1162.5 907.5L1162.5 892.5L1162.5 877.5L1162.5 862.5L1162.5 847.5L1162.5 832.5L1162.5 817.5" stroke="url(#SvgjsLinearGradient1004)" stroke-width="2.5"></path>
            <path d="M1158.75 817.5 a3.75 3.75 0 1 0 7.5 0 a3.75 3.75 0 1 0 -7.5 0zM1173.75 832.5 a3.75 3.75 0 1 0 7.5 0 a3.75 3.75 0 1 0 -7.5 0zM1173.75 952.5 a3.75 3.75 0 1 0 7.5 0 a3.75 3.75 0 1 0 -7.5 0zM1143.75 997.5 a3.75 3.75 0 1 0 7.5 0 a3.75 3.75 0 1 0 -7.5 0zM1143.75 877.5 a3.75 3.75 0 1 0 7.5 0 a3.75 3.75 0 1 0 -7.5 0zM1143.75 727.5 a3.75 3.75 0 1 0 7.5 0 a3.75 3.75 0 1 0 -7.5 0z" fill="url(#SvgjsLinearGradient1004)"></path>
            <path d="M1192.5 877.5L1207.5 862.5M1192.5 982.5L1177.5 967.5M1162.5 1042.5L1177.5 1027.5M1147.5 1102.5L1147.5 1087.5L1162.5 1072.5L1162.5 1057.5L1162.5 1042.5L1162.5 1027.5L1162.5 1012.5L1177.5 997.5L1192.5 982.5L1192.5 967.5L1192.5 952.5L1192.5 937.5L1192.5 922.5L1192.5 907.5L1192.5 892.5L1192.5 877.5L1192.5 862.5L1192.5 847.5" stroke="url(#SvgjsLinearGradient1004)" stroke-width="2.5"></path>
            <path d="M1188.75 847.5 a3.75 3.75 0 1 0 7.5 0 a3.75 3.75 0 1 0 -7.5 0zM1203.75 862.5 a3.75 3.75 0 1 0 7.5 0 a3.75 3.75 0 1 0 -7.5 0zM1173.75 967.5 a3.75 3.75 0 1 0 7.5 0 a3.75 3.75 0 1 0 -7.5 0zM1173.75 1027.5 a3.75 3.75 0 1 0 7.5 0 a3.75 3.75 0 1 0 -7.5 0z" fill="url(#SvgjsLinearGradient1004)"></path>
            <path d="M727.5 667.5L742.5 652.5L742.5 637.5L742.5 622.5L742.5 607.5M742.5 802.5L757.5 787.5L757.5 772.5L757.5 757.5L757.5 742.5M742.5 772.5L727.5 757.5L727.5 742.5L727.5 727.5L727.5 712.5M742.5 847.5L757.5 832.5L757.5 817.5L757.5 802.5M727.5 637.5L712.5 622.5M727.5 682.5L742.5 667.5M712.5 592.5L727.5 577.5L727.5 562.5M742.5 727.5L757.5 712.5L757.5 697.5L742.5 682.5M742.5 997.5L757.5 982.5M772.5 1102.5L772.5 1087.5L757.5 1072.5L757.5 1057.5L757.5 1042.5L757.5 1027.5L742.5 1012.5L742.5 997.5L742.5 982.5L742.5 967.5L742.5 952.5L742.5 937.5L742.5 922.5L742.5 907.5L742.5 892.5L742.5 877.5L742.5 862.5L742.5 847.5L742.5 832.5L742.5 817.5L742.5 802.5L742.5 787.5L742.5 772.5L742.5 757.5L742.5 742.5L742.5 727.5L742.5 712.5L727.5 697.5L727.5 682.5L727.5 667.5L727.5 652.5L727.5 637.5L727.5 622.5L712.5 607.5L712.5 592.5L712.5 577.5L712.5 562.5" stroke="url(#SvgjsLinearGradient1004)" stroke-width="2.5"></path>
            <path d="M708.75 562.5 a3.75 3.75 0 1 0 7.5 0 a3.75 3.75 0 1 0 -7.5 0zM738.75 607.5 a3.75 3.75 0 1 0 7.5 0 a3.75 3.75 0 1 0 -7.5 0zM753.75 742.5 a3.75 3.75 0 1 0 7.5 0 a3.75 3.75 0 1 0 -7.5 0zM723.75 712.5 a3.75 3.75 0 1 0 7.5 0 a3.75 3.75 0 1 0 -7.5 0zM753.75 802.5 a3.75 3.75 0 1 0 7.5 0 a3.75 3.75 0 1 0 -7.5 0zM708.75 622.5 a3.75 3.75 0 1 0 7.5 0 a3.75 3.75 0 1 0 -7.5 0zM738.75 667.5 a3.75 3.75 0 1 0 7.5 0 a3.75 3.75 0 1 0 -7.5 0zM723.75 562.5 a3.75 3.75 0 1 0 7.5 0 a3.75 3.75 0 1 0 -7.5 0zM738.75 682.5 a3.75 3.75 0 1 0 7.5 0 a3.75 3.75 0 1 0 -7.5 0zM753.75 982.5 a3.75 3.75 0 1 0 7.5 0 a3.75 3.75 0 1 0 -7.5 0z" fill="url(#SvgjsLinearGradient1004)"></path>
            <path d="M1222.5 712.5L1237.5 697.5L1252.5 682.5M1222.5 877.5L1237.5 862.5L1237.5 847.5L1237.5 832.5L1237.5 817.5L1237.5 802.5L1237.5 787.5M1207.5 967.5L1222.5 952.5L1222.5 937.5L1222.5 922.5L1222.5 907.5L1222.5 892.5L1237.5 877.5M1222.5 832.5L1207.5 817.5L1207.5 802.5L1207.5 787.5L1192.5 772.5L1192.5 757.5L1192.5 742.5M1222.5 757.5L1237.5 742.5L1237.5 727.5L1237.5 712.5L1252.5 697.5M1237.5 682.5L1222.5 667.5L1222.5 652.5L1222.5 637.5M1207.5 892.5L1207.5 877.5M1162.5 1102.5L1162.5 1087.5L1177.5 1072.5L1177.5 1057.5L1192.5 1042.5L1192.5 1027.5L1192.5 1012.5L1192.5 997.5L1207.5 982.5L1207.5 967.5L1207.5 952.5L1207.5 937.5L1207.5 922.5L1207.5 907.5L1207.5 892.5L1222.5 877.5L1222.5 862.5L1222.5 847.5L1222.5 832.5L1222.5 817.5L1222.5 802.5L1222.5 787.5L1222.5 772.5L1222.5 757.5L1222.5 742.5L1222.5 727.5L1222.5 712.5L1222.5 697.5L1237.5 682.5L1237.5 667.5L1237.5 652.5" stroke="url(#SvgjsLinearGradient1004)" stroke-width="2.5"></path>
            <path d="M1233.75 652.5 a3.75 3.75 0 1 0 7.5 0 a3.75 3.75 0 1 0 -7.5 0zM1248.75 682.5 a3.75 3.75 0 1 0 7.5 0 a3.75 3.75 0 1 0 -7.5 0zM1233.75 787.5 a3.75 3.75 0 1 0 7.5 0 a3.75 3.75 0 1 0 -7.5 0zM1233.75 877.5 a3.75 3.75 0 1 0 7.5 0 a3.75 3.75 0 1 0 -7.5 0zM1188.75 742.5 a3.75 3.75 0 1 0 7.5 0 a3.75 3.75 0 1 0 -7.5 0zM1248.75 697.5 a3.75 3.75 0 1 0 7.5 0 a3.75 3.75 0 1 0 -7.5 0zM1218.75 637.5 a3.75 3.75 0 1 0 7.5 0 a3.75 3.75 0 1 0 -7.5 0zM1203.75 877.5 a3.75 3.75 0 1 0 7.5 0 a3.75 3.75 0 1 0 -7.5 0z" fill="url(#SvgjsLinearGradient1004)"></path>
            <path d="M712.5 787.5L727.5 772.5M712.5 667.5L697.5 652.5M682.5 547.5L697.5 532.5L697.5 517.5L697.5 502.5L697.5 487.5L697.5 472.5L697.5 457.5L697.5 442.5L697.5 427.5L697.5 412.5L712.5 397.5L712.5 382.5L712.5 367.5L712.5 352.5L712.5 337.5L712.5 322.5M712.5 817.5L727.5 802.5L727.5 787.5M712.5 742.5L712.5 727.5L712.5 712.5M697.5 592.5L697.5 577.5L697.5 562.5L697.5 547.5L712.5 532.5L712.5 517.5L712.5 502.5L712.5 487.5M652.5 367.5L667.5 352.5L667.5 337.5L667.5 322.5L667.5 307.5L667.5 292.5M712.5 862.5L727.5 847.5L727.5 832.5L727.5 817.5M652.5 337.5L637.5 322.5L637.5 307.5M652.5 397.5L667.5 382.5L667.5 367.5L682.5 352.5L682.5 337.5L682.5 322.5L682.5 307.5M727.5 982.5L712.5 967.5L712.5 952.5L712.5 937.5M652.5 472.5L667.5 457.5L667.5 442.5L667.5 427.5L667.5 412.5L667.5 397.5L682.5 382.5L682.5 367.5L697.5 352.5L697.5 337.5L697.5 322.5M667.5 487.5L667.5 472.5L682.5 457.5L682.5 442.5L682.5 427.5L682.5 412.5M757.5 1102.5L757.5 1087.5L742.5 1072.5L742.5 1057.5L742.5 1042.5L742.5 1027.5L727.5 1012.5L727.5 997.5L727.5 982.5L727.5 967.5L727.5 952.5L727.5 937.5L727.5 922.5L727.5 907.5L727.5 892.5L712.5 877.5L712.5 862.5L712.5 847.5L712.5 832.5L712.5 817.5L712.5 802.5L712.5 787.5L712.5 772.5L712.5 757.5L712.5 742.5L697.5 727.5L697.5 712.5L712.5 697.5L712.5 682.5L712.5 667.5L712.5 652.5L697.5 637.5L697.5 622.5L697.5 607.5L697.5 592.5L682.5 577.5L682.5 562.5L682.5 547.5L682.5 532.5L682.5 517.5L682.5 502.5L667.5 487.5L652.5 472.5L652.5 457.5L652.5 442.5L652.5 427.5L652.5 412.5L652.5 397.5L652.5 382.5L652.5 367.5L652.5 352.5L652.5 337.5L652.5 322.5L652.5 307.5L652.5 292.5" stroke="url(#SvgjsLinearGradient1004)" stroke-width="2.5"></path>
            <path d="M648.75 292.5 a3.75 3.75 0 1 0 7.5 0 a3.75 3.75 0 1 0 -7.5 0zM723.75 772.5 a3.75 3.75 0 1 0 7.5 0 a3.75 3.75 0 1 0 -7.5 0zM693.75 652.5 a3.75 3.75 0 1 0 7.5 0 a3.75 3.75 0 1 0 -7.5 0zM708.75 322.5 a3.75 3.75 0 1 0 7.5 0 a3.75 3.75 0 1 0 -7.5 0zM723.75 787.5 a3.75 3.75 0 1 0 7.5 0 a3.75 3.75 0 1 0 -7.5 0zM708.75 712.5 a3.75 3.75 0 1 0 7.5 0 a3.75 3.75 0 1 0 -7.5 0zM708.75 487.5 a3.75 3.75 0 1 0 7.5 0 a3.75 3.75 0 1 0 -7.5 0zM663.75 292.5 a3.75 3.75 0 1 0 7.5 0 a3.75 3.75 0 1 0 -7.5 0zM723.75 817.5 a3.75 3.75 0 1 0 7.5 0 a3.75 3.75 0 1 0 -7.5 0zM633.75 307.5 a3.75 3.75 0 1 0 7.5 0 a3.75 3.75 0 1 0 -7.5 0zM678.75 307.5 a3.75 3.75 0 1 0 7.5 0 a3.75 3.75 0 1 0 -7.5 0zM708.75 937.5 a3.75 3.75 0 1 0 7.5 0 a3.75 3.75 0 1 0 -7.5 0zM693.75 322.5 a3.75 3.75 0 1 0 7.5 0 a3.75 3.75 0 1 0 -7.5 0zM678.75 412.5 a3.75 3.75 0 1 0 7.5 0 a3.75 3.75 0 1 0 -7.5 0z" fill="url(#SvgjsLinearGradient1004)"></path>
            <path d="M1282.5 832.5L1282.5 817.5M1267.5 817.5L1252.5 802.5L1252.5 787.5L1252.5 772.5L1252.5 757.5L1252.5 742.5L1267.5 727.5M1267.5 892.5L1252.5 877.5L1252.5 862.5M1267.5 907.5L1252.5 892.5M1252.5 922.5L1252.5 907.5L1237.5 892.5M1237.5 952.5L1237.5 937.5M1177.5 1102.5L1177.5 1087.5L1192.5 1072.5L1192.5 1057.5L1207.5 1042.5L1207.5 1027.5L1207.5 1012.5L1207.5 997.5L1222.5 982.5L1237.5 967.5L1237.5 952.5L1252.5 937.5L1252.5 922.5L1267.5 907.5L1267.5 892.5L1267.5 877.5L1282.5 862.5L1282.5 847.5L1282.5 832.5L1267.5 817.5L1267.5 802.5L1267.5 787.5L1267.5 772.5L1267.5 757.5L1282.5 742.5" stroke="url(#SvgjsLinearGradient1004)" stroke-width="2.5"></path>
            <path d="M1278.75 742.5 a3.75 3.75 0 1 0 7.5 0 a3.75 3.75 0 1 0 -7.5 0zM1278.75 817.5 a3.75 3.75 0 1 0 7.5 0 a3.75 3.75 0 1 0 -7.5 0zM1263.75 727.5 a3.75 3.75 0 1 0 7.5 0 a3.75 3.75 0 1 0 -7.5 0zM1248.75 862.5 a3.75 3.75 0 1 0 7.5 0 a3.75 3.75 0 1 0 -7.5 0zM1248.75 892.5 a3.75 3.75 0 1 0 7.5 0 a3.75 3.75 0 1 0 -7.5 0zM1233.75 892.5 a3.75 3.75 0 1 0 7.5 0 a3.75 3.75 0 1 0 -7.5 0zM1233.75 937.5 a3.75 3.75 0 1 0 7.5 0 a3.75 3.75 0 1 0 -7.5 0z" fill="url(#SvgjsLinearGradient1004)"></path>
            <path d="M742.5 1102.5L742.5 1087.5L727.5 1072.5L727.5 1057.5L727.5 1042.5L727.5 1027.5L712.5 1012.5L712.5 997.5" stroke="url(#SvgjsLinearGradient1004)" stroke-width="2.5"></path>
            <path d="M708.75 997.5 a3.75 3.75 0 1 0 7.5 0 a3.75 3.75 0 1 0 -7.5 0z" fill="url(#SvgjsLinearGradient1004)"></path>
            <path d="M1297.5 787.5L1282.5 772.5L1282.5 757.5M1297.5 802.5L1282.5 787.5M1282.5 502.5L1297.5 487.5L1297.5 472.5L1297.5 457.5L1297.5 442.5L1297.5 427.5L1297.5 412.5L1297.5 397.5L1312.5 382.5L1327.5 367.5M1282.5 457.5L1267.5 442.5L1267.5 427.5L1267.5 412.5L1267.5 397.5L1267.5 382.5L1267.5 367.5L1252.5 352.5L1252.5 337.5L1252.5 322.5M1282.5 532.5L1267.5 517.5M1297.5 577.5L1312.5 562.5L1312.5 547.5L1312.5 532.5L1312.5 517.5L1312.5 502.5L1312.5 487.5L1312.5 472.5L1312.5 457.5L1327.5 442.5L1327.5 427.5L1312.5 412.5M1297.5 727.5L1282.5 712.5L1282.5 697.5L1282.5 682.5L1282.5 667.5M1282.5 472.5L1267.5 457.5L1252.5 442.5L1252.5 427.5L1252.5 412.5L1252.5 397.5L1252.5 382.5L1252.5 367.5L1237.5 352.5L1237.5 337.5L1237.5 322.5L1237.5 307.5L1237.5 292.5L1237.5 277.5L1237.5 262.5M1282.5 517.5L1297.5 502.5M1297.5 592.5L1312.5 577.5L1327.5 562.5L1327.5 547.5L1327.5 532.5L1327.5 517.5L1327.5 502.5M1222.5 1012.5L1222.5 997.5M1192.5 1102.5L1192.5 1087.5L1207.5 1072.5L1207.5 1057.5L1222.5 1042.5L1222.5 1027.5L1222.5 1012.5L1237.5 997.5L1237.5 982.5L1252.5 967.5L1252.5 952.5L1267.5 937.5L1267.5 922.5L1282.5 907.5L1282.5 892.5L1282.5 877.5L1297.5 862.5L1297.5 847.5L1297.5 832.5L1297.5 817.5L1297.5 802.5L1297.5 787.5L1297.5 772.5L1297.5 757.5L1297.5 742.5L1297.5 727.5L1297.5 712.5L1297.5 697.5L1297.5 682.5L1297.5 667.5L1297.5 652.5L1297.5 637.5L1297.5 622.5L1297.5 607.5L1297.5 592.5L1297.5 577.5L1297.5 562.5L1297.5 547.5L1282.5 532.5L1282.5 517.5L1282.5 502.5L1282.5 487.5L1282.5 472.5L1282.5 457.5L1282.5 442.5" stroke="url(#SvgjsLinearGradient1004)" stroke-width="2.5"></path>
            <path d="M1278.75 442.5 a3.75 3.75 0 1 0 7.5 0 a3.75 3.75 0 1 0 -7.5 0zM1278.75 757.5 a3.75 3.75 0 1 0 7.5 0 a3.75 3.75 0 1 0 -7.5 0zM1278.75 787.5 a3.75 3.75 0 1 0 7.5 0 a3.75 3.75 0 1 0 -7.5 0zM1323.75 367.5 a3.75 3.75 0 1 0 7.5 0 a3.75 3.75 0 1 0 -7.5 0zM1248.75 322.5 a3.75 3.75 0 1 0 7.5 0 a3.75 3.75 0 1 0 -7.5 0zM1263.75 517.5 a3.75 3.75 0 1 0 7.5 0 a3.75 3.75 0 1 0 -7.5 0zM1308.75 412.5 a3.75 3.75 0 1 0 7.5 0 a3.75 3.75 0 1 0 -7.5 0zM1278.75 667.5 a3.75 3.75 0 1 0 7.5 0 a3.75 3.75 0 1 0 -7.5 0zM1233.75 262.5 a3.75 3.75 0 1 0 7.5 0 a3.75 3.75 0 1 0 -7.5 0zM1293.75 502.5 a3.75 3.75 0 1 0 7.5 0 a3.75 3.75 0 1 0 -7.5 0zM1323.75 502.5 a3.75 3.75 0 1 0 7.5 0 a3.75 3.75 0 1 0 -7.5 0zM1218.75 997.5 a3.75 3.75 0 1 0 7.5 0 a3.75 3.75 0 1 0 -7.5 0z" fill="url(#SvgjsLinearGradient1004)"></path>
            <path d="M667.5 517.5L652.5 502.5L637.5 487.5M622.5 427.5L607.5 412.5L607.5 397.5L607.5 382.5L592.5 367.5L577.5 352.5L577.5 337.5L577.5 322.5L562.5 307.5L562.5 292.5L562.5 277.5L562.5 262.5M622.5 337.5L607.5 322.5L592.5 307.5M622.5 307.5L607.5 292.5M697.5 757.5L682.5 742.5M622.5 457.5L637.5 442.5L637.5 427.5L637.5 412.5L637.5 397.5L637.5 382.5L637.5 367.5L637.5 352.5L637.5 337.5M667.5 577.5L652.5 562.5L652.5 547.5L652.5 532.5L652.5 517.5L637.5 502.5L622.5 487.5M697.5 907.5L712.5 892.5M622.5 367.5L607.5 352.5M622.5 442.5L607.5 427.5L592.5 412.5L592.5 397.5L592.5 382.5L577.5 367.5L562.5 352.5L562.5 337.5L562.5 322.5L547.5 307.5L547.5 292.5L547.5 277.5L547.5 262.5M682.5 682.5L697.5 667.5M637.5 472.5L637.5 457.5M682.5 697.5L697.5 682.5M727.5 1102.5L727.5 1087.5L712.5 1072.5L712.5 1057.5L712.5 1042.5L712.5 1027.5L697.5 1012.5L697.5 997.5L697.5 982.5L697.5 967.5L697.5 952.5L697.5 937.5L697.5 922.5L697.5 907.5L697.5 892.5L697.5 877.5L697.5 862.5L697.5 847.5L697.5 832.5L697.5 817.5L697.5 802.5L697.5 787.5L697.5 772.5L697.5 757.5L697.5 742.5L682.5 727.5L682.5 712.5L682.5 697.5L682.5 682.5L682.5 667.5L682.5 652.5L682.5 637.5L682.5 622.5L682.5 607.5L682.5 592.5L667.5 577.5L667.5 562.5L667.5 547.5L667.5 532.5L667.5 517.5L667.5 502.5L652.5 487.5L637.5 472.5L622.5 457.5L622.5 442.5L622.5 427.5L622.5 412.5L622.5 397.5L622.5 382.5L622.5 367.5L622.5 352.5L622.5 337.5L622.5 322.5L622.5 307.5L622.5 292.5" stroke="url(#SvgjsLinearGradient1004)" stroke-width="2.5"></path>
            <path d="M618.75 292.5 a3.75 3.75 0 1 0 7.5 0 a3.75 3.75 0 1 0 -7.5 0zM633.75 487.5 a3.75 3.75 0 1 0 7.5 0 a3.75 3.75 0 1 0 -7.5 0zM558.75 262.5 a3.75 3.75 0 1 0 7.5 0 a3.75 3.75 0 1 0 -7.5 0zM588.75 307.5 a3.75 3.75 0 1 0 7.5 0 a3.75 3.75 0 1 0 -7.5 0zM603.75 292.5 a3.75 3.75 0 1 0 7.5 0 a3.75 3.75 0 1 0 -7.5 0zM678.75 742.5 a3.75 3.75 0 1 0 7.5 0 a3.75 3.75 0 1 0 -7.5 0zM633.75 337.5 a3.75 3.75 0 1 0 7.5 0 a3.75 3.75 0 1 0 -7.5 0zM618.75 487.5 a3.75 3.75 0 1 0 7.5 0 a3.75 3.75 0 1 0 -7.5 0zM708.75 892.5 a3.75 3.75 0 1 0 7.5 0 a3.75 3.75 0 1 0 -7.5 0zM603.75 352.5 a3.75 3.75 0 1 0 7.5 0 a3.75 3.75 0 1 0 -7.5 0zM543.75 262.5 a3.75 3.75 0 1 0 7.5 0 a3.75 3.75 0 1 0 -7.5 0zM693.75 667.5 a3.75 3.75 0 1 0 7.5 0 a3.75 3.75 0 1 0 -7.5 0zM633.75 457.5 a3.75 3.75 0 1 0 7.5 0 a3.75 3.75 0 1 0 -7.5 0zM693.75 682.5 a3.75 3.75 0 1 0 7.5 0 a3.75 3.75 0 1 0 -7.5 0z" fill="url(#SvgjsLinearGradient1004)"></path>
            <path d="M1207.5 1102.5L1207.5 1087.5L1222.5 1072.5L1222.5 1057.5L1237.5 1042.5" stroke="url(#SvgjsLinearGradient1004)" stroke-width="2.5"></path>
            <path d="M1233.75 1042.5 a3.75 3.75 0 1 0 7.5 0 a3.75 3.75 0 1 0 -7.5 0z" fill="url(#SvgjsLinearGradient1004)"></path>
            <path d="M682.5 832.5L667.5 817.5L667.5 802.5M682.5 772.5L682.5 757.5M667.5 697.5L652.5 682.5M667.5 712.5L652.5 697.5M712.5 1102.5L712.5 1087.5L697.5 1072.5L697.5 1057.5L697.5 1042.5L697.5 1027.5L682.5 1012.5L682.5 997.5L682.5 982.5L682.5 967.5L682.5 952.5L682.5 937.5L682.5 922.5L682.5 907.5L682.5 892.5L682.5 877.5L682.5 862.5L682.5 847.5L682.5 832.5L682.5 817.5L682.5 802.5L682.5 787.5L682.5 772.5L667.5 757.5L667.5 742.5L667.5 727.5L667.5 712.5L667.5 697.5L667.5 682.5L667.5 667.5L667.5 652.5L667.5 637.5L667.5 622.5L667.5 607.5" stroke="url(#SvgjsLinearGradient1004)" stroke-width="2.5"></path>
            <path d="M663.75 607.5 a3.75 3.75 0 1 0 7.5 0 a3.75 3.75 0 1 0 -7.5 0zM663.75 802.5 a3.75 3.75 0 1 0 7.5 0 a3.75 3.75 0 1 0 -7.5 0zM678.75 757.5 a3.75 3.75 0 1 0 7.5 0 a3.75 3.75 0 1 0 -7.5 0zM648.75 682.5 a3.75 3.75 0 1 0 7.5 0 a3.75 3.75 0 1 0 -7.5 0zM648.75 697.5 a3.75 3.75 0 1 0 7.5 0 a3.75 3.75 0 1 0 -7.5 0z" fill="url(#SvgjsLinearGradient1004)"></path>
            <path d="M1312.5 757.5L1327.5 742.5L1327.5 727.5L1327.5 712.5L1327.5 697.5L1327.5 682.5L1327.5 667.5L1327.5 652.5L1327.5 637.5L1342.5 622.5M1252.5 1027.5L1237.5 1012.5M1222.5 1102.5L1222.5 1087.5L1237.5 1072.5L1237.5 1057.5L1252.5 1042.5L1252.5 1027.5L1252.5 1012.5L1252.5 997.5L1252.5 982.5L1267.5 967.5L1267.5 952.5L1282.5 937.5L1282.5 922.5L1297.5 907.5L1297.5 892.5L1297.5 877.5L1312.5 862.5L1312.5 847.5L1312.5 832.5L1312.5 817.5L1312.5 802.5L1312.5 787.5L1312.5 772.5L1312.5 757.5L1312.5 742.5L1312.5 727.5L1312.5 712.5L1312.5 697.5L1312.5 682.5L1312.5 667.5L1312.5 652.5L1312.5 637.5" stroke="url(#SvgjsLinearGradient1004)" stroke-width="2.5"></path>
            <path d="M1308.75 637.5 a3.75 3.75 0 1 0 7.5 0 a3.75 3.75 0 1 0 -7.5 0zM1338.75 622.5 a3.75 3.75 0 1 0 7.5 0 a3.75 3.75 0 1 0 -7.5 0zM1233.75 1012.5 a3.75 3.75 0 1 0 7.5 0 a3.75 3.75 0 1 0 -7.5 0z" fill="url(#SvgjsLinearGradient1004)"></path>
            <path d="M667.5 967.5L652.5 952.5L652.5 937.5M652.5 802.5L652.5 787.5L652.5 772.5M652.5 652.5L637.5 637.5L637.5 622.5L637.5 607.5L637.5 592.5M652.5 607.5L652.5 592.5M652.5 667.5L637.5 652.5L622.5 637.5M652.5 727.5L652.5 712.5M697.5 1102.5L697.5 1087.5L682.5 1072.5L682.5 1057.5L682.5 1042.5L682.5 1027.5L667.5 1012.5L667.5 997.5L667.5 982.5L667.5 967.5L667.5 952.5L667.5 937.5L667.5 922.5L667.5 907.5L667.5 892.5L667.5 877.5L667.5 862.5L667.5 847.5L652.5 832.5L652.5 817.5L652.5 802.5L667.5 787.5L667.5 772.5L652.5 757.5L652.5 742.5L652.5 727.5L637.5 712.5L637.5 697.5L637.5 682.5L652.5 667.5L652.5 652.5L652.5 637.5L652.5 622.5L652.5 607.5L667.5 592.5" stroke="url(#SvgjsLinearGradient1004)" stroke-width="2.5"></path>
            <path d="M663.75 592.5 a3.75 3.75 0 1 0 7.5 0 a3.75 3.75 0 1 0 -7.5 0zM648.75 937.5 a3.75 3.75 0 1 0 7.5 0 a3.75 3.75 0 1 0 -7.5 0zM648.75 772.5 a3.75 3.75 0 1 0 7.5 0 a3.75 3.75 0 1 0 -7.5 0zM633.75 592.5 a3.75 3.75 0 1 0 7.5 0 a3.75 3.75 0 1 0 -7.5 0zM648.75 592.5 a3.75 3.75 0 1 0 7.5 0 a3.75 3.75 0 1 0 -7.5 0zM618.75 637.5 a3.75 3.75 0 1 0 7.5 0 a3.75 3.75 0 1 0 -7.5 0zM648.75 712.5 a3.75 3.75 0 1 0 7.5 0 a3.75 3.75 0 1 0 -7.5 0z" fill="url(#SvgjsLinearGradient1004)"></path>
            <path d="M1267.5 997.5L1282.5 982.5M1327.5 817.5L1342.5 802.5M1327.5 787.5L1342.5 772.5M1252.5 1072.5L1252.5 1057.5M1237.5 1102.5L1237.5 1087.5L1252.5 1072.5L1267.5 1057.5L1267.5 1042.5L1267.5 1027.5L1267.5 1012.5L1267.5 997.5L1267.5 982.5L1282.5 967.5L1282.5 952.5L1297.5 937.5L1297.5 922.5L1312.5 907.5L1312.5 892.5L1312.5 877.5L1327.5 862.5L1327.5 847.5L1327.5 832.5L1327.5 817.5L1327.5 802.5L1327.5 787.5L1327.5 772.5L1342.5 757.5L1342.5 742.5L1342.5 727.5L1342.5 712.5" stroke="url(#SvgjsLinearGradient1004)" stroke-width="2.5"></path>
            <path d="M1338.75 712.5 a3.75 3.75 0 1 0 7.5 0 a3.75 3.75 0 1 0 -7.5 0zM1278.75 982.5 a3.75 3.75 0 1 0 7.5 0 a3.75 3.75 0 1 0 -7.5 0zM1338.75 802.5 a3.75 3.75 0 1 0 7.5 0 a3.75 3.75 0 1 0 -7.5 0zM1338.75 772.5 a3.75 3.75 0 1 0 7.5 0 a3.75 3.75 0 1 0 -7.5 0zM1248.75 1057.5 a3.75 3.75 0 1 0 7.5 0 a3.75 3.75 0 1 0 -7.5 0z" fill="url(#SvgjsLinearGradient1004)"></path>
            <path d="M682.5 1102.5L682.5 1087.5L667.5 1072.5L667.5 1057.5L667.5 1042.5L667.5 1027.5L652.5 1012.5L652.5 997.5" stroke="url(#SvgjsLinearGradient1004)" stroke-width="2.5"></path>
            <path d="M648.75 997.5 a3.75 3.75 0 1 0 7.5 0 a3.75 3.75 0 1 0 -7.5 0z" fill="url(#SvgjsLinearGradient1004)"></path>
            <path d="M1357.5 757.5L1372.5 742.5M1282.5 1012.5L1282.5 997.5M1282.5 1042.5L1297.5 1027.5L1297.5 1012.5M1252.5 1102.5L1252.5 1087.5L1267.5 1072.5L1282.5 1057.5L1282.5 1042.5L1282.5 1027.5L1282.5 1012.5L1297.5 997.5L1297.5 982.5L1297.5 967.5L1297.5 952.5L1312.5 937.5L1312.5 922.5L1327.5 907.5L1327.5 892.5L1327.5 877.5L1342.5 862.5L1342.5 847.5L1342.5 832.5L1357.5 817.5L1357.5 802.5L1357.5 787.5L1357.5 772.5L1357.5 757.5L1357.5 742.5L1357.5 727.5L1357.5 712.5" stroke="url(#SvgjsLinearGradient1004)" stroke-width="2.5"></path>
            <path d="M1353.75 712.5 a3.75 3.75 0 1 0 7.5 0 a3.75 3.75 0 1 0 -7.5 0zM1368.75 742.5 a3.75 3.75 0 1 0 7.5 0 a3.75 3.75 0 1 0 -7.5 0zM1278.75 997.5 a3.75 3.75 0 1 0 7.5 0 a3.75 3.75 0 1 0 -7.5 0zM1293.75 1012.5 a3.75 3.75 0 1 0 7.5 0 a3.75 3.75 0 1 0 -7.5 0z" fill="url(#SvgjsLinearGradient1004)"></path>
            <path d="M622.5 712.5L607.5 697.5M622.5 577.5L622.5 562.5L622.5 547.5M607.5 652.5L592.5 637.5L592.5 622.5L592.5 607.5M652.5 907.5L637.5 892.5L637.5 877.5L637.5 862.5L637.5 847.5L622.5 832.5L622.5 817.5L622.5 802.5M607.5 667.5L592.5 652.5M607.5 637.5L607.5 622.5L607.5 607.5L607.5 592.5L607.5 577.5L592.5 562.5L592.5 547.5L592.5 532.5L592.5 517.5L592.5 502.5M637.5 772.5L622.5 757.5L622.5 742.5L622.5 727.5M622.5 697.5L622.5 682.5L622.5 667.5L622.5 652.5M652.5 922.5L637.5 907.5M607.5 682.5L592.5 667.5M667.5 1102.5L667.5 1087.5L652.5 1072.5L652.5 1057.5L652.5 1042.5L652.5 1027.5L637.5 1012.5L637.5 997.5L637.5 982.5L637.5 967.5L637.5 952.5L637.5 937.5L652.5 922.5L652.5 907.5L652.5 892.5L652.5 877.5L652.5 862.5L652.5 847.5L637.5 832.5L637.5 817.5L637.5 802.5L637.5 787.5L637.5 772.5L637.5 757.5L637.5 742.5L637.5 727.5L622.5 712.5L622.5 697.5L607.5 682.5L607.5 667.5L607.5 652.5L607.5 637.5L622.5 622.5L622.5 607.5L622.5 592.5L622.5 577.5L607.5 562.5L607.5 547.5L607.5 532.5L607.5 517.5L607.5 502.5L607.5 487.5L622.5 472.5" stroke="url(#SvgjsLinearGradient1004)" stroke-width="2.5"></path>
            <path d="M618.75 472.5 a3.75 3.75 0 1 0 7.5 0 a3.75 3.75 0 1 0 -7.5 0zM603.75 697.5 a3.75 3.75 0 1 0 7.5 0 a3.75 3.75 0 1 0 -7.5 0zM618.75 547.5 a3.75 3.75 0 1 0 7.5 0 a3.75 3.75 0 1 0 -7.5 0zM588.75 607.5 a3.75 3.75 0 1 0 7.5 0 a3.75 3.75 0 1 0 -7.5 0zM618.75 802.5 a3.75 3.75 0 1 0 7.5 0 a3.75 3.75 0 1 0 -7.5 0zM588.75 652.5 a3.75 3.75 0 1 0 7.5 0 a3.75 3.75 0 1 0 -7.5 0zM588.75 502.5 a3.75 3.75 0 1 0 7.5 0 a3.75 3.75 0 1 0 -7.5 0zM618.75 727.5 a3.75 3.75 0 1 0 7.5 0 a3.75 3.75 0 1 0 -7.5 0zM618.75 652.5 a3.75 3.75 0 1 0 7.5 0 a3.75 3.75 0 1 0 -7.5 0zM633.75 907.5 a3.75 3.75 0 1 0 7.5 0 a3.75 3.75 0 1 0 -7.5 0zM588.75 667.5 a3.75 3.75 0 1 0 7.5 0 a3.75 3.75 0 1 0 -7.5 0z" fill="url(#SvgjsLinearGradient1004)"></path>
            <path d="M1372.5 772.5L1372.5 757.5M1357.5 472.5L1342.5 457.5L1342.5 442.5L1342.5 427.5L1327.5 412.5L1327.5 397.5L1327.5 382.5L1342.5 367.5L1342.5 352.5L1342.5 337.5L1342.5 322.5L1342.5 307.5L1342.5 292.5M1372.5 562.5L1357.5 547.5L1357.5 532.5L1357.5 517.5L1342.5 502.5L1342.5 487.5L1342.5 472.5L1327.5 457.5M1372.5 547.5L1387.5 532.5L1387.5 517.5L1387.5 502.5L1387.5 487.5L1387.5 472.5L1387.5 457.5L1372.5 442.5L1372.5 427.5L1372.5 412.5L1372.5 397.5M1372.5 592.5L1357.5 577.5L1357.5 562.5L1342.5 547.5M1372.5 697.5L1357.5 682.5L1357.5 667.5L1357.5 652.5L1357.5 637.5M1372.5 712.5L1387.5 697.5L1387.5 682.5L1387.5 667.5L1387.5 652.5L1387.5 637.5L1387.5 622.5L1387.5 607.5L1387.5 592.5L1387.5 577.5L1387.5 562.5M1372.5 622.5L1357.5 607.5L1357.5 592.5L1342.5 577.5L1342.5 562.5M1387.5 727.5L1387.5 712.5L1402.5 697.5L1402.5 682.5L1402.5 667.5L1402.5 652.5L1402.5 637.5L1402.5 622.5L1402.5 607.5L1402.5 592.5M1297.5 1057.5L1297.5 1042.5M1357.5 502.5L1372.5 487.5L1372.5 472.5L1372.5 457.5M1267.5 1102.5L1267.5 1087.5L1282.5 1072.5L1297.5 1057.5L1312.5 1042.5L1312.5 1027.5L1312.5 1012.5L1312.5 997.5L1312.5 982.5L1312.5 967.5L1312.5 952.5L1327.5 937.5L1327.5 922.5L1342.5 907.5L1342.5 892.5L1342.5 877.5L1357.5 862.5L1357.5 847.5L1357.5 832.5L1372.5 817.5L1372.5 802.5L1372.5 787.5L1372.5 772.5L1387.5 757.5L1387.5 742.5L1387.5 727.5L1372.5 712.5L1372.5 697.5L1372.5 682.5L1372.5 667.5L1372.5 652.5L1372.5 637.5L1372.5 622.5L1372.5 607.5L1372.5 592.5L1372.5 577.5L1372.5 562.5L1372.5 547.5L1372.5 532.5L1372.5 517.5L1357.5 502.5L1357.5 487.5L1357.5 472.5L1357.5 457.5L1357.5 442.5L1357.5 427.5" stroke="url(#SvgjsLinearGradient1004)" stroke-width="2.5"></path>
            <path d="M1353.75 427.5 a3.75 3.75 0 1 0 7.5 0 a3.75 3.75 0 1 0 -7.5 0zM1368.75 757.5 a3.75 3.75 0 1 0 7.5 0 a3.75 3.75 0 1 0 -7.5 0zM1338.75 292.5 a3.75 3.75 0 1 0 7.5 0 a3.75 3.75 0 1 0 -7.5 0zM1323.75 457.5 a3.75 3.75 0 1 0 7.5 0 a3.75 3.75 0 1 0 -7.5 0zM1368.75 397.5 a3.75 3.75 0 1 0 7.5 0 a3.75 3.75 0 1 0 -7.5 0zM1338.75 547.5 a3.75 3.75 0 1 0 7.5 0 a3.75 3.75 0 1 0 -7.5 0zM1353.75 637.5 a3.75 3.75 0 1 0 7.5 0 a3.75 3.75 0 1 0 -7.5 0zM1383.75 562.5 a3.75 3.75 0 1 0 7.5 0 a3.75 3.75 0 1 0 -7.5 0zM1338.75 562.5 a3.75 3.75 0 1 0 7.5 0 a3.75 3.75 0 1 0 -7.5 0zM1398.75 592.5 a3.75 3.75 0 1 0 7.5 0 a3.75 3.75 0 1 0 -7.5 0zM1293.75 1042.5 a3.75 3.75 0 1 0 7.5 0 a3.75 3.75 0 1 0 -7.5 0zM1368.75 457.5 a3.75 3.75 0 1 0 7.5 0 a3.75 3.75 0 1 0 -7.5 0z" fill="url(#SvgjsLinearGradient1004)"></path>
            <path d="M637.5 1057.5L622.5 1042.5M622.5 997.5L607.5 982.5L607.5 967.5M622.5 937.5L607.5 922.5L607.5 907.5M652.5 1102.5L652.5 1087.5L637.5 1072.5L637.5 1057.5L637.5 1042.5L637.5 1027.5L622.5 1012.5L622.5 997.5L622.5 982.5L622.5 967.5L622.5 952.5L622.5 937.5L622.5 922.5L622.5 907.5" stroke="url(#SvgjsLinearGradient1004)" stroke-width="2.5"></path>
            <path d="M618.75 907.5 a3.75 3.75 0 1 0 7.5 0 a3.75 3.75 0 1 0 -7.5 0zM618.75 1042.5 a3.75 3.75 0 1 0 7.5 0 a3.75 3.75 0 1 0 -7.5 0zM603.75 967.5 a3.75 3.75 0 1 0 7.5 0 a3.75 3.75 0 1 0 -7.5 0zM603.75 907.5 a3.75 3.75 0 1 0 7.5 0 a3.75 3.75 0 1 0 -7.5 0z" fill="url(#SvgjsLinearGradient1004)"></path>
            <path d="M1417.5 607.5L1432.5 592.5L1432.5 577.5L1432.5 562.5L1432.5 547.5L1432.5 532.5L1432.5 517.5L1432.5 502.5L1432.5 487.5L1432.5 472.5L1417.5 457.5L1417.5 442.5L1417.5 427.5L1417.5 412.5L1417.5 397.5L1432.5 382.5M1402.5 727.5L1402.5 712.5M1402.5 502.5L1417.5 487.5L1417.5 472.5M1417.5 517.5L1417.5 502.5M1417.5 532.5L1402.5 517.5M1417.5 547.5L1402.5 532.5M1417.5 562.5L1402.5 547.5M1417.5 577.5L1402.5 562.5M1402.5 442.5L1387.5 427.5L1387.5 412.5L1387.5 397.5M1282.5 1102.5L1282.5 1087.5L1297.5 1072.5L1312.5 1057.5L1327.5 1042.5L1327.5 1027.5L1327.5 1012.5L1327.5 997.5L1327.5 982.5L1327.5 967.5L1327.5 952.5L1342.5 937.5L1342.5 922.5L1357.5 907.5L1357.5 892.5L1357.5 877.5L1372.5 862.5L1372.5 847.5L1372.5 832.5L1387.5 817.5L1387.5 802.5L1387.5 787.5L1387.5 772.5L1402.5 757.5L1402.5 742.5L1402.5 727.5L1417.5 712.5L1417.5 697.5L1417.5 682.5L1417.5 667.5L1417.5 652.5L1417.5 637.5L1417.5 622.5L1417.5 607.5L1417.5 592.5L1417.5 577.5L1417.5 562.5L1417.5 547.5L1417.5 532.5L1417.5 517.5L1402.5 502.5L1402.5 487.5L1402.5 472.5L1402.5 457.5L1402.5 442.5L1402.5 427.5" stroke="url(#SvgjsLinearGradient1004)" stroke-width="2.5"></path>
            <path d="M1398.75 427.5 a3.75 3.75 0 1 0 7.5 0 a3.75 3.75 0 1 0 -7.5 0zM1428.75 382.5 a3.75 3.75 0 1 0 7.5 0 a3.75 3.75 0 1 0 -7.5 0zM1398.75 712.5 a3.75 3.75 0 1 0 7.5 0 a3.75 3.75 0 1 0 -7.5 0zM1413.75 472.5 a3.75 3.75 0 1 0 7.5 0 a3.75 3.75 0 1 0 -7.5 0zM1413.75 502.5 a3.75 3.75 0 1 0 7.5 0 a3.75 3.75 0 1 0 -7.5 0zM1398.75 517.5 a3.75 3.75 0 1 0 7.5 0 a3.75 3.75 0 1 0 -7.5 0zM1398.75 532.5 a3.75 3.75 0 1 0 7.5 0 a3.75 3.75 0 1 0 -7.5 0zM1398.75 547.5 a3.75 3.75 0 1 0 7.5 0 a3.75 3.75 0 1 0 -7.5 0zM1398.75 562.5 a3.75 3.75 0 1 0 7.5 0 a3.75 3.75 0 1 0 -7.5 0zM1383.75 397.5 a3.75 3.75 0 1 0 7.5 0 a3.75 3.75 0 1 0 -7.5 0z" fill="url(#SvgjsLinearGradient1004)"></path>
            <path d="M577.5 697.5L592.5 682.5M577.5 967.5L592.5 952.5L592.5 937.5L592.5 922.5L592.5 907.5L607.5 892.5L622.5 877.5M577.5 682.5L562.5 667.5M577.5 727.5L592.5 712.5L592.5 697.5M577.5 817.5L592.5 802.5M592.5 997.5L592.5 982.5L592.5 967.5M577.5 862.5L592.5 847.5L592.5 832.5L592.5 817.5L607.5 802.5L607.5 787.5M577.5 892.5L592.5 877.5M637.5 1102.5L637.5 1087.5L622.5 1072.5L607.5 1057.5L607.5 1042.5L607.5 1027.5L607.5 1012.5L592.5 997.5L577.5 982.5L577.5 967.5L577.5 952.5L577.5 937.5L577.5 922.5L577.5 907.5L577.5 892.5L577.5 877.5L577.5 862.5L577.5 847.5L577.5 832.5L577.5 817.5L577.5 802.5L577.5 787.5L577.5 772.5L577.5 757.5L577.5 742.5L577.5 727.5L577.5 712.5L577.5 697.5L577.5 682.5L577.5 667.5L577.5 652.5L577.5 637.5L577.5 622.5L562.5 607.5" stroke="url(#SvgjsLinearGradient1004)" stroke-width="2.5"></path>
            <path d="M558.75 607.5 a3.75 3.75 0 1 0 7.5 0 a3.75 3.75 0 1 0 -7.5 0zM588.75 682.5 a3.75 3.75 0 1 0 7.5 0 a3.75 3.75 0 1 0 -7.5 0zM618.75 877.5 a3.75 3.75 0 1 0 7.5 0 a3.75 3.75 0 1 0 -7.5 0zM558.75 667.5 a3.75 3.75 0 1 0 7.5 0 a3.75 3.75 0 1 0 -7.5 0zM588.75 697.5 a3.75 3.75 0 1 0 7.5 0 a3.75 3.75 0 1 0 -7.5 0zM588.75 802.5 a3.75 3.75 0 1 0 7.5 0 a3.75 3.75 0 1 0 -7.5 0zM588.75 967.5 a3.75 3.75 0 1 0 7.5 0 a3.75 3.75 0 1 0 -7.5 0zM603.75 787.5 a3.75 3.75 0 1 0 7.5 0 a3.75 3.75 0 1 0 -7.5 0zM588.75 877.5 a3.75 3.75 0 1 0 7.5 0 a3.75 3.75 0 1 0 -7.5 0z" fill="url(#SvgjsLinearGradient1004)"></path>
            <path d="M1342.5 997.5L1357.5 982.5L1357.5 967.5M1357.5 937.5L1372.5 922.5M1297.5 1102.5L1297.5 1087.5L1312.5 1072.5L1327.5 1057.5L1342.5 1042.5L1342.5 1027.5L1342.5 1012.5L1342.5 997.5L1342.5 982.5L1342.5 967.5L1342.5 952.5L1357.5 937.5L1357.5 922.5L1372.5 907.5L1372.5 892.5L1372.5 877.5L1387.5 862.5L1387.5 847.5L1387.5 832.5" stroke="url(#SvgjsLinearGradient1004)" stroke-width="2.5"></path>
            <path d="M1383.75 832.5 a3.75 3.75 0 1 0 7.5 0 a3.75 3.75 0 1 0 -7.5 0zM1353.75 967.5 a3.75 3.75 0 1 0 7.5 0 a3.75 3.75 0 1 0 -7.5 0zM1368.75 922.5 a3.75 3.75 0 1 0 7.5 0 a3.75 3.75 0 1 0 -7.5 0z" fill="url(#SvgjsLinearGradient1004)"></path>
            <path d="M547.5 817.5L562.5 802.5L562.5 787.5L562.5 772.5L562.5 757.5L562.5 742.5L562.5 727.5L562.5 712.5L562.5 697.5L562.5 682.5M547.5 577.5L562.5 562.5M547.5 637.5L532.5 622.5L532.5 607.5L532.5 592.5L532.5 577.5L532.5 562.5L532.5 547.5L532.5 532.5L532.5 517.5L532.5 502.5L532.5 487.5L532.5 472.5L532.5 457.5L532.5 442.5L532.5 427.5L532.5 412.5L532.5 397.5M547.5 712.5L532.5 697.5L532.5 682.5M547.5 742.5L532.5 727.5L532.5 712.5L517.5 697.5L517.5 682.5L517.5 667.5M547.5 667.5L532.5 652.5M562.5 907.5L547.5 892.5M547.5 757.5L532.5 742.5L517.5 727.5L517.5 712.5L502.5 697.5M547.5 877.5L562.5 862.5L562.5 847.5M562.5 472.5L577.5 457.5L577.5 442.5L577.5 427.5L577.5 412.5L577.5 397.5L577.5 382.5L562.5 367.5L547.5 352.5L547.5 337.5L547.5 322.5L532.5 307.5L532.5 292.5L532.5 277.5L532.5 262.5M547.5 592.5L562.5 577.5L577.5 562.5L577.5 547.5L577.5 532.5L577.5 517.5L577.5 502.5L577.5 487.5L577.5 472.5L592.5 457.5L607.5 442.5M622.5 1102.5L622.5 1087.5L607.5 1072.5L592.5 1057.5L592.5 1042.5L592.5 1027.5L592.5 1012.5L577.5 997.5L562.5 982.5L562.5 967.5L562.5 952.5L562.5 937.5L562.5 922.5L562.5 907.5L562.5 892.5L547.5 877.5L547.5 862.5L547.5 847.5L547.5 832.5L547.5 817.5L547.5 802.5L547.5 787.5L547.5 772.5L547.5 757.5L547.5 742.5L547.5 727.5L547.5 712.5L547.5 697.5L547.5 682.5L547.5 667.5L547.5 652.5L547.5 637.5L547.5 622.5L547.5 607.5L547.5 592.5L547.5 577.5L547.5 562.5L547.5 547.5L547.5 532.5L547.5 517.5L547.5 502.5L547.5 487.5L562.5 472.5L562.5 457.5" stroke="url(#SvgjsLinearGradient1004)" stroke-width="2.5"></path>
            <path d="M558.75 457.5 a3.75 3.75 0 1 0 7.5 0 a3.75 3.75 0 1 0 -7.5 0zM558.75 682.5 a3.75 3.75 0 1 0 7.5 0 a3.75 3.75 0 1 0 -7.5 0zM558.75 562.5 a3.75 3.75 0 1 0 7.5 0 a3.75 3.75 0 1 0 -7.5 0zM528.75 397.5 a3.75 3.75 0 1 0 7.5 0 a3.75 3.75 0 1 0 -7.5 0zM528.75 682.5 a3.75 3.75 0 1 0 7.5 0 a3.75 3.75 0 1 0 -7.5 0zM513.75 667.5 a3.75 3.75 0 1 0 7.5 0 a3.75 3.75 0 1 0 -7.5 0zM528.75 652.5 a3.75 3.75 0 1 0 7.5 0 a3.75 3.75 0 1 0 -7.5 0zM543.75 892.5 a3.75 3.75 0 1 0 7.5 0 a3.75 3.75 0 1 0 -7.5 0zM498.75 697.5 a3.75 3.75 0 1 0 7.5 0 a3.75 3.75 0 1 0 -7.5 0zM558.75 847.5 a3.75 3.75 0 1 0 7.5 0 a3.75 3.75 0 1 0 -7.5 0zM528.75 262.5 a3.75 3.75 0 1 0 7.5 0 a3.75 3.75 0 1 0 -7.5 0zM603.75 442.5 a3.75 3.75 0 1 0 7.5 0 a3.75 3.75 0 1 0 -7.5 0z" fill="url(#SvgjsLinearGradient1004)"></path>
            <path d="M1372.5 967.5L1372.5 952.5L1372.5 937.5M1312.5 1102.5L1312.5 1087.5L1327.5 1072.5L1342.5 1057.5L1357.5 1042.5L1357.5 1027.5L1357.5 1012.5L1372.5 997.5L1372.5 982.5L1372.5 967.5L1357.5 952.5" stroke="url(#SvgjsLinearGradient1004)" stroke-width="2.5"></path>
            <path d="M1353.75 952.5 a3.75 3.75 0 1 0 7.5 0 a3.75 3.75 0 1 0 -7.5 0zM1368.75 937.5 a3.75 3.75 0 1 0 7.5 0 a3.75 3.75 0 1 0 -7.5 0z" fill="url(#SvgjsLinearGradient1004)"></path>
            <path d="M532.5 817.5L517.5 802.5M532.5 847.5L517.5 832.5L517.5 817.5M532.5 922.5L547.5 907.5M547.5 937.5L547.5 922.5M607.5 1102.5L607.5 1087.5L592.5 1072.5L577.5 1057.5L577.5 1042.5L577.5 1027.5L577.5 1012.5L562.5 997.5L547.5 982.5L547.5 967.5L547.5 952.5L547.5 937.5L532.5 922.5L532.5 907.5L532.5 892.5L532.5 877.5L532.5 862.5L532.5 847.5L532.5 832.5L532.5 817.5L532.5 802.5L532.5 787.5" stroke="url(#SvgjsLinearGradient1004)" stroke-width="2.5"></path>
            <path d="M528.75 787.5 a3.75 3.75 0 1 0 7.5 0 a3.75 3.75 0 1 0 -7.5 0zM513.75 802.5 a3.75 3.75 0 1 0 7.5 0 a3.75 3.75 0 1 0 -7.5 0zM513.75 817.5 a3.75 3.75 0 1 0 7.5 0 a3.75 3.75 0 1 0 -7.5 0zM543.75 907.5 a3.75 3.75 0 1 0 7.5 0 a3.75 3.75 0 1 0 -7.5 0zM543.75 922.5 a3.75 3.75 0 1 0 7.5 0 a3.75 3.75 0 1 0 -7.5 0z" fill="url(#SvgjsLinearGradient1004)"></path>
            <path d="M1327.5 1102.5L1342.5 1087.5" stroke="url(#SvgjsLinearGradient1004)" stroke-width="2.5"></path>
            <path d="M1338.75 1087.5 a3.75 3.75 0 1 0 7.5 0 a3.75 3.75 0 1 0 -7.5 0z" fill="url(#SvgjsLinearGradient1004)"></path>
            <path d="M517.5 862.5L517.5 847.5M592.5 1102.5L592.5 1087.5L577.5 1072.5L562.5 1057.5L562.5 1042.5L562.5 1027.5L562.5 1012.5L547.5 997.5L532.5 982.5L532.5 967.5L532.5 952.5L532.5 937.5L517.5 922.5L517.5 907.5L517.5 892.5L517.5 877.5L517.5 862.5L502.5 847.5L502.5 832.5L502.5 817.5L502.5 802.5L517.5 787.5" stroke="url(#SvgjsLinearGradient1004)" stroke-width="2.5"></path>
            <path d="M513.75 787.5 a3.75 3.75 0 1 0 7.5 0 a3.75 3.75 0 1 0 -7.5 0zM513.75 847.5 a3.75 3.75 0 1 0 7.5 0 a3.75 3.75 0 1 0 -7.5 0z" fill="url(#SvgjsLinearGradient1004)"></path>
            <path d="M487.5 757.5L502.5 742.5L502.5 727.5L502.5 712.5M457.5 427.5L472.5 412.5L472.5 397.5L472.5 382.5L472.5 367.5L472.5 352.5L472.5 337.5L472.5 322.5L472.5 307.5L472.5 292.5L472.5 277.5M487.5 697.5L472.5 682.5L472.5 667.5M487.5 787.5L502.5 772.5L502.5 757.5L517.5 742.5M487.5 712.5L472.5 697.5M502.5 892.5L487.5 877.5L487.5 862.5M472.5 592.5L487.5 577.5L502.5 562.5L517.5 547.5L517.5 532.5L517.5 517.5L517.5 502.5L517.5 487.5L517.5 472.5L517.5 457.5L502.5 442.5L502.5 427.5L502.5 412.5L502.5 397.5L502.5 382.5L502.5 367.5L502.5 352.5M472.5 487.5L457.5 472.5L457.5 457.5L442.5 442.5L442.5 427.5L442.5 412.5L442.5 397.5L442.5 382.5L442.5 367.5L427.5 352.5L427.5 337.5L427.5 322.5L427.5 307.5L427.5 292.5M487.5 637.5L502.5 622.5L502.5 607.5L502.5 592.5M472.5 547.5L487.5 532.5L487.5 517.5L487.5 502.5L487.5 487.5L487.5 472.5L487.5 457.5L487.5 442.5L487.5 427.5L487.5 412.5L487.5 397.5M487.5 667.5L502.5 652.5L502.5 637.5L517.5 622.5L517.5 607.5L517.5 592.5L517.5 577.5L517.5 562.5M577.5 1102.5L577.5 1087.5L562.5 1072.5L547.5 1057.5L547.5 1042.5L547.5 1027.5L547.5 1012.5L532.5 997.5L517.5 982.5L517.5 967.5L517.5 952.5L517.5 937.5L502.5 922.5L502.5 907.5L502.5 892.5L502.5 877.5L502.5 862.5L487.5 847.5L487.5 832.5L487.5 817.5L487.5 802.5L487.5 787.5L487.5 772.5L487.5 757.5L487.5 742.5L487.5 727.5L487.5 712.5L487.5 697.5L487.5 682.5L487.5 667.5L487.5 652.5L487.5 637.5L487.5 622.5L487.5 607.5L472.5 592.5L472.5 577.5L472.5 562.5L472.5 547.5L472.5 532.5L472.5 517.5L472.5 502.5L472.5 487.5L472.5 472.5L472.5 457.5L457.5 442.5L457.5 427.5L457.5 412.5" stroke="url(#SvgjsLinearGradient1004)" stroke-width="2.5"></path>
            <path d="M453.75 412.5 a3.75 3.75 0 1 0 7.5 0 a3.75 3.75 0 1 0 -7.5 0zM498.75 712.5 a3.75 3.75 0 1 0 7.5 0 a3.75 3.75 0 1 0 -7.5 0zM468.75 277.5 a3.75 3.75 0 1 0 7.5 0 a3.75 3.75 0 1 0 -7.5 0zM468.75 667.5 a3.75 3.75 0 1 0 7.5 0 a3.75 3.75 0 1 0 -7.5 0zM513.75 742.5 a3.75 3.75 0 1 0 7.5 0 a3.75 3.75 0 1 0 -7.5 0zM468.75 697.5 a3.75 3.75 0 1 0 7.5 0 a3.75 3.75 0 1 0 -7.5 0zM483.75 862.5 a3.75 3.75 0 1 0 7.5 0 a3.75 3.75 0 1 0 -7.5 0zM498.75 352.5 a3.75 3.75 0 1 0 7.5 0 a3.75 3.75 0 1 0 -7.5 0zM423.75 292.5 a3.75 3.75 0 1 0 7.5 0 a3.75 3.75 0 1 0 -7.5 0zM498.75 592.5 a3.75 3.75 0 1 0 7.5 0 a3.75 3.75 0 1 0 -7.5 0zM483.75 397.5 a3.75 3.75 0 1 0 7.5 0 a3.75 3.75 0 1 0 -7.5 0zM513.75 562.5 a3.75 3.75 0 1 0 7.5 0 a3.75 3.75 0 1 0 -7.5 0z" fill="url(#SvgjsLinearGradient1004)"></path>
            <path d="M1447.5 622.5L1432.5 607.5M1432.5 637.5L1432.5 622.5M1357.5 1102.5L1357.5 1087.5L1357.5 1072.5L1357.5 1057.5L1372.5 1042.5L1372.5 1027.5L1372.5 1012.5L1387.5 997.5L1387.5 982.5L1387.5 967.5L1387.5 952.5L1387.5 937.5L1387.5 922.5L1387.5 907.5L1387.5 892.5L1387.5 877.5L1402.5 862.5L1402.5 847.5L1402.5 832.5L1402.5 817.5L1402.5 802.5L1402.5 787.5L1402.5 772.5L1417.5 757.5L1417.5 742.5L1417.5 727.5L1432.5 712.5L1432.5 697.5L1432.5 682.5L1432.5 667.5L1432.5 652.5L1432.5 637.5L1447.5 622.5L1447.5 607.5" stroke="url(#SvgjsLinearGradient1004)" stroke-width="2.5"></path>
            <path d="M1443.75 607.5 a3.75 3.75 0 1 0 7.5 0 a3.75 3.75 0 1 0 -7.5 0zM1428.75 607.5 a3.75 3.75 0 1 0 7.5 0 a3.75 3.75 0 1 0 -7.5 0zM1428.75 622.5 a3.75 3.75 0 1 0 7.5 0 a3.75 3.75 0 1 0 -7.5 0z" fill="url(#SvgjsLinearGradient1004)"></path>
            <path d="M472.5 742.5L472.5 727.5L472.5 712.5M457.5 682.5L442.5 667.5M487.5 907.5L487.5 892.5M442.5 652.5L457.5 637.5L472.5 622.5L472.5 607.5M457.5 667.5L457.5 652.5L472.5 637.5M562.5 1102.5L562.5 1087.5L547.5 1072.5L532.5 1057.5L532.5 1042.5L532.5 1027.5L532.5 1012.5L517.5 997.5L502.5 982.5L502.5 967.5L502.5 952.5L502.5 937.5L487.5 922.5L487.5 907.5L472.5 892.5L472.5 877.5L472.5 862.5L472.5 847.5L472.5 832.5L472.5 817.5L472.5 802.5L472.5 787.5L472.5 772.5L472.5 757.5L472.5 742.5L457.5 727.5L457.5 712.5L457.5 697.5L457.5 682.5L457.5 667.5L442.5 652.5L442.5 637.5L457.5 622.5L457.5 607.5L457.5 592.5" stroke="url(#SvgjsLinearGradient1004)" stroke-width="2.5"></path>
            <path d="M453.75 592.5 a3.75 3.75 0 1 0 7.5 0 a3.75 3.75 0 1 0 -7.5 0zM468.75 712.5 a3.75 3.75 0 1 0 7.5 0 a3.75 3.75 0 1 0 -7.5 0zM438.75 667.5 a3.75 3.75 0 1 0 7.5 0 a3.75 3.75 0 1 0 -7.5 0zM483.75 892.5 a3.75 3.75 0 1 0 7.5 0 a3.75 3.75 0 1 0 -7.5 0zM468.75 607.5 a3.75 3.75 0 1 0 7.5 0 a3.75 3.75 0 1 0 -7.5 0zM468.75 637.5 a3.75 3.75 0 1 0 7.5 0 a3.75 3.75 0 1 0 -7.5 0z" fill="url(#SvgjsLinearGradient1004)"></path>
            <path d="M1447.5 577.5L1462.5 562.5L1462.5 547.5M1462.5 352.5L1447.5 337.5L1447.5 322.5L1432.5 307.5L1432.5 292.5L1432.5 277.5L1432.5 262.5M1462.5 412.5L1447.5 397.5L1447.5 382.5M1402.5 952.5L1417.5 937.5L1417.5 922.5M1447.5 532.5L1462.5 517.5L1462.5 502.5M1462.5 337.5L1477.5 322.5L1477.5 307.5L1477.5 292.5M1447.5 457.5L1462.5 442.5M1417.5 817.5L1432.5 802.5L1432.5 787.5M1462.5 397.5L1477.5 382.5M1447.5 442.5L1447.5 427.5L1447.5 412.5L1432.5 397.5M1447.5 472.5L1462.5 457.5M1432.5 757.5L1447.5 742.5L1447.5 727.5M1402.5 967.5L1417.5 952.5L1432.5 937.5L1432.5 922.5L1432.5 907.5L1432.5 892.5L1432.5 877.5L1432.5 862.5L1432.5 847.5L1432.5 832.5L1432.5 817.5L1447.5 802.5L1447.5 787.5L1447.5 772.5L1447.5 757.5M1372.5 1102.5L1372.5 1087.5L1372.5 1072.5L1372.5 1057.5L1387.5 1042.5L1387.5 1027.5L1387.5 1012.5L1402.5 997.5L1402.5 982.5L1402.5 967.5L1402.5 952.5L1402.5 937.5L1402.5 922.5L1402.5 907.5L1402.5 892.5L1402.5 877.5L1417.5 862.5L1417.5 847.5L1417.5 832.5L1417.5 817.5L1417.5 802.5L1417.5 787.5L1417.5 772.5L1432.5 757.5L1432.5 742.5L1432.5 727.5L1447.5 712.5L1447.5 697.5L1447.5 682.5L1447.5 667.5L1447.5 652.5L1447.5 637.5L1462.5 622.5L1462.5 607.5L1447.5 592.5L1447.5 577.5L1447.5 562.5L1447.5 547.5L1447.5 532.5L1447.5 517.5L1447.5 502.5L1447.5 487.5L1447.5 472.5L1447.5 457.5L1447.5 442.5L1462.5 427.5L1462.5 412.5L1462.5 397.5L1462.5 382.5L1462.5 367.5L1462.5 352.5L1462.5 337.5L1462.5 322.5L1447.5 307.5" stroke="url(#SvgjsLinearGradient1004)" stroke-width="2.5"></path>
            <path d="M1443.75 307.5 a3.75 3.75 0 1 0 7.5 0 a3.75 3.75 0 1 0 -7.5 0zM1458.75 547.5 a3.75 3.75 0 1 0 7.5 0 a3.75 3.75 0 1 0 -7.5 0zM1428.75 262.5 a3.75 3.75 0 1 0 7.5 0 a3.75 3.75 0 1 0 -7.5 0zM1443.75 382.5 a3.75 3.75 0 1 0 7.5 0 a3.75 3.75 0 1 0 -7.5 0zM1413.75 922.5 a3.75 3.75 0 1 0 7.5 0 a3.75 3.75 0 1 0 -7.5 0zM1458.75 502.5 a3.75 3.75 0 1 0 7.5 0 a3.75 3.75 0 1 0 -7.5 0zM1473.75 292.5 a3.75 3.75 0 1 0 7.5 0 a3.75 3.75 0 1 0 -7.5 0zM1458.75 442.5 a3.75 3.75 0 1 0 7.5 0 a3.75 3.75 0 1 0 -7.5 0zM1428.75 787.5 a3.75 3.75 0 1 0 7.5 0 a3.75 3.75 0 1 0 -7.5 0zM1473.75 382.5 a3.75 3.75 0 1 0 7.5 0 a3.75 3.75 0 1 0 -7.5 0zM1428.75 397.5 a3.75 3.75 0 1 0 7.5 0 a3.75 3.75 0 1 0 -7.5 0zM1458.75 457.5 a3.75 3.75 0 1 0 7.5 0 a3.75 3.75 0 1 0 -7.5 0zM1443.75 727.5 a3.75 3.75 0 1 0 7.5 0 a3.75 3.75 0 1 0 -7.5 0zM1443.75 757.5 a3.75 3.75 0 1 0 7.5 0 a3.75 3.75 0 1 0 -7.5 0z" fill="url(#SvgjsLinearGradient1004)"></path>
            <path d="M547.5 1102.5L547.5 1087.5" stroke="url(#SvgjsLinearGradient1004)" stroke-width="2.5"></path>
            <path d="M543.75 1087.5 a3.75 3.75 0 1 0 7.5 0 a3.75 3.75 0 1 0 -7.5 0z" fill="url(#SvgjsLinearGradient1004)"></path>
            <path d="M1402.5 1072.5L1387.5 1057.5M1387.5 1087.5L1387.5 1072.5M1387.5 1102.5L1387.5 1087.5L1402.5 1072.5L1402.5 1057.5L1402.5 1042.5L1402.5 1027.5L1402.5 1012.5" stroke="url(#SvgjsLinearGradient1004)" stroke-width="2.5"></path>
            <path d="M1398.75 1012.5 a3.75 3.75 0 1 0 7.5 0 a3.75 3.75 0 1 0 -7.5 0zM1383.75 1057.5 a3.75 3.75 0 1 0 7.5 0 a3.75 3.75 0 1 0 -7.5 0zM1383.75 1072.5 a3.75 3.75 0 1 0 7.5 0 a3.75 3.75 0 1 0 -7.5 0z" fill="url(#SvgjsLinearGradient1004)"></path>
            <path d="M412.5 442.5L397.5 427.5L397.5 412.5L397.5 397.5L397.5 382.5L397.5 367.5L382.5 352.5M412.5 502.5L427.5 487.5L427.5 472.5L427.5 457.5L427.5 442.5L427.5 427.5L427.5 412.5L427.5 397.5L427.5 382.5L427.5 367.5M397.5 622.5L412.5 607.5L427.5 592.5L427.5 577.5L427.5 562.5L427.5 547.5L427.5 532.5L427.5 517.5L427.5 502.5L442.5 487.5L442.5 472.5L442.5 457.5M457.5 772.5L442.5 757.5L442.5 742.5M412.5 562.5L397.5 547.5L397.5 532.5L397.5 517.5L397.5 502.5L397.5 487.5L397.5 472.5M457.5 817.5L442.5 802.5M397.5 592.5L397.5 577.5M412.5 652.5L412.5 637.5L412.5 622.5M442.5 697.5L442.5 682.5M457.5 787.5L442.5 772.5M427.5 667.5L427.5 652.5L427.5 637.5L427.5 622.5L427.5 607.5L442.5 592.5L442.5 577.5L442.5 562.5L457.5 547.5L457.5 532.5L457.5 517.5M532.5 1102.5L532.5 1087.5L532.5 1072.5L517.5 1057.5L517.5 1042.5L517.5 1027.5L517.5 1012.5L502.5 997.5L487.5 982.5L487.5 967.5L487.5 952.5L487.5 937.5L472.5 922.5L472.5 907.5L457.5 892.5L457.5 877.5L457.5 862.5L457.5 847.5L457.5 832.5L457.5 817.5L457.5 802.5L457.5 787.5L457.5 772.5L457.5 757.5L457.5 742.5L442.5 727.5L442.5 712.5L442.5 697.5L427.5 682.5L427.5 667.5L412.5 652.5L397.5 637.5L397.5 622.5L397.5 607.5L397.5 592.5L412.5 577.5L412.5 562.5L412.5 547.5L412.5 532.5L412.5 517.5L412.5 502.5L412.5 487.5L412.5 472.5L412.5 457.5L412.5 442.5L412.5 427.5" stroke="url(#SvgjsLinearGradient1004)" stroke-width="2.5"></path>
            <path d="M408.75 427.5 a3.75 3.75 0 1 0 7.5 0 a3.75 3.75 0 1 0 -7.5 0zM378.75 352.5 a3.75 3.75 0 1 0 7.5 0 a3.75 3.75 0 1 0 -7.5 0zM423.75 367.5 a3.75 3.75 0 1 0 7.5 0 a3.75 3.75 0 1 0 -7.5 0zM438.75 457.5 a3.75 3.75 0 1 0 7.5 0 a3.75 3.75 0 1 0 -7.5 0zM438.75 742.5 a3.75 3.75 0 1 0 7.5 0 a3.75 3.75 0 1 0 -7.5 0zM393.75 472.5 a3.75 3.75 0 1 0 7.5 0 a3.75 3.75 0 1 0 -7.5 0zM438.75 802.5 a3.75 3.75 0 1 0 7.5 0 a3.75 3.75 0 1 0 -7.5 0zM393.75 577.5 a3.75 3.75 0 1 0 7.5 0 a3.75 3.75 0 1 0 -7.5 0zM408.75 622.5 a3.75 3.75 0 1 0 7.5 0 a3.75 3.75 0 1 0 -7.5 0zM438.75 682.5 a3.75 3.75 0 1 0 7.5 0 a3.75 3.75 0 1 0 -7.5 0zM438.75 772.5 a3.75 3.75 0 1 0 7.5 0 a3.75 3.75 0 1 0 -7.5 0zM453.75 517.5 a3.75 3.75 0 1 0 7.5 0 a3.75 3.75 0 1 0 -7.5 0z" fill="url(#SvgjsLinearGradient1004)"></path>
            <path d="M1402.5 1102.5L1402.5 1087.5L1417.5 1072.5L1417.5 1057.5L1417.5 1042.5L1417.5 1027.5" stroke="url(#SvgjsLinearGradient1004)" stroke-width="2.5"></path>
            <path d="M1413.75 1027.5 a3.75 3.75 0 1 0 7.5 0 a3.75 3.75 0 1 0 -7.5 0z" fill="url(#SvgjsLinearGradient1004)"></path>
            <path d="M382.5 592.5L367.5 577.5L367.5 562.5L367.5 547.5L367.5 532.5L367.5 517.5L367.5 502.5L352.5 487.5M382.5 622.5L367.5 607.5L367.5 592.5M442.5 847.5L442.5 832.5L442.5 817.5M412.5 682.5L397.5 667.5M367.5 457.5L352.5 442.5L352.5 427.5L352.5 412.5L352.5 397.5L352.5 382.5L337.5 367.5L337.5 352.5L337.5 337.5L337.5 322.5L337.5 307.5L337.5 292.5M367.5 427.5L382.5 412.5L382.5 397.5M427.5 712.5L412.5 697.5L397.5 682.5M382.5 487.5L367.5 472.5L352.5 457.5L337.5 442.5M382.5 472.5L397.5 457.5L397.5 442.5L382.5 427.5M517.5 1102.5L517.5 1087.5L517.5 1072.5L502.5 1057.5L502.5 1042.5L502.5 1027.5L502.5 1012.5L487.5 997.5L472.5 982.5L472.5 967.5L472.5 952.5L472.5 937.5L457.5 922.5L457.5 907.5L442.5 892.5L442.5 877.5L442.5 862.5L442.5 847.5L427.5 832.5L427.5 817.5L427.5 802.5L427.5 787.5L427.5 772.5L427.5 757.5L427.5 742.5L427.5 727.5L427.5 712.5L427.5 697.5L412.5 682.5L412.5 667.5L397.5 652.5L382.5 637.5L382.5 622.5L382.5 607.5L382.5 592.5L382.5 577.5L382.5 562.5L382.5 547.5L382.5 532.5L382.5 517.5L382.5 502.5L382.5 487.5L382.5 472.5L367.5 457.5L367.5 442.5L367.5 427.5L367.5 412.5" stroke="url(#SvgjsLinearGradient1004)" stroke-width="2.5"></path>
            <path d="M363.75 412.5 a3.75 3.75 0 1 0 7.5 0 a3.75 3.75 0 1 0 -7.5 0zM348.75 487.5 a3.75 3.75 0 1 0 7.5 0 a3.75 3.75 0 1 0 -7.5 0zM363.75 592.5 a3.75 3.75 0 1 0 7.5 0 a3.75 3.75 0 1 0 -7.5 0zM438.75 817.5 a3.75 3.75 0 1 0 7.5 0 a3.75 3.75 0 1 0 -7.5 0zM393.75 667.5 a3.75 3.75 0 1 0 7.5 0 a3.75 3.75 0 1 0 -7.5 0zM333.75 292.5 a3.75 3.75 0 1 0 7.5 0 a3.75 3.75 0 1 0 -7.5 0zM378.75 397.5 a3.75 3.75 0 1 0 7.5 0 a3.75 3.75 0 1 0 -7.5 0zM393.75 682.5 a3.75 3.75 0 1 0 7.5 0 a3.75 3.75 0 1 0 -7.5 0zM333.75 442.5 a3.75 3.75 0 1 0 7.5 0 a3.75 3.75 0 1 0 -7.5 0zM378.75 427.5 a3.75 3.75 0 1 0 7.5 0 a3.75 3.75 0 1 0 -7.5 0z" fill="url(#SvgjsLinearGradient1004)"></path>
            <path d="M1462.5 832.5L1447.5 817.5M1462.5 682.5L1477.5 667.5L1477.5 652.5L1492.5 637.5L1492.5 622.5L1492.5 607.5L1492.5 592.5L1492.5 577.5L1492.5 562.5L1492.5 547.5L1492.5 532.5M1432.5 1012.5L1432.5 997.5L1432.5 982.5L1432.5 967.5M1477.5 517.5L1492.5 502.5L1492.5 487.5L1492.5 472.5L1492.5 457.5L1492.5 442.5L1492.5 427.5L1492.5 412.5L1492.5 397.5L1492.5 382.5L1507.5 367.5L1507.5 352.5M1462.5 862.5L1447.5 847.5L1447.5 832.5M1432.5 1042.5L1447.5 1027.5L1447.5 1012.5M1462.5 877.5L1447.5 862.5M1462.5 727.5L1477.5 712.5L1477.5 697.5L1477.5 682.5M1447.5 907.5L1447.5 892.5L1447.5 877.5M1462.5 757.5L1477.5 742.5L1477.5 727.5M1477.5 487.5L1462.5 472.5M1417.5 1102.5L1417.5 1087.5L1432.5 1072.5L1432.5 1057.5L1432.5 1042.5L1432.5 1027.5L1432.5 1012.5L1447.5 997.5L1447.5 982.5L1447.5 967.5L1447.5 952.5L1447.5 937.5L1447.5 922.5L1447.5 907.5L1462.5 892.5L1462.5 877.5L1462.5 862.5L1462.5 847.5L1462.5 832.5L1462.5 817.5L1462.5 802.5L1462.5 787.5L1462.5 772.5L1462.5 757.5L1462.5 742.5L1462.5 727.5L1462.5 712.5L1462.5 697.5L1462.5 682.5L1462.5 667.5L1462.5 652.5L1462.5 637.5L1477.5 622.5L1477.5 607.5L1477.5 592.5L1477.5 577.5L1477.5 562.5L1477.5 547.5L1477.5 532.5L1477.5 517.5L1477.5 502.5L1477.5 487.5L1477.5 472.5L1477.5 457.5L1477.5 442.5L1477.5 427.5L1477.5 412.5" stroke="url(#SvgjsLinearGradient1004)" stroke-width="2.5"></path>
            <path d="M1473.75 412.5 a3.75 3.75 0 1 0 7.5 0 a3.75 3.75 0 1 0 -7.5 0zM1443.75 817.5 a3.75 3.75 0 1 0 7.5 0 a3.75 3.75 0 1 0 -7.5 0zM1488.75 532.5 a3.75 3.75 0 1 0 7.5 0 a3.75 3.75 0 1 0 -7.5 0zM1428.75 967.5 a3.75 3.75 0 1 0 7.5 0 a3.75 3.75 0 1 0 -7.5 0zM1503.75 352.5 a3.75 3.75 0 1 0 7.5 0 a3.75 3.75 0 1 0 -7.5 0zM1443.75 832.5 a3.75 3.75 0 1 0 7.5 0 a3.75 3.75 0 1 0 -7.5 0zM1443.75 1012.5 a3.75 3.75 0 1 0 7.5 0 a3.75 3.75 0 1 0 -7.5 0zM1443.75 862.5 a3.75 3.75 0 1 0 7.5 0 a3.75 3.75 0 1 0 -7.5 0zM1473.75 682.5 a3.75 3.75 0 1 0 7.5 0 a3.75 3.75 0 1 0 -7.5 0zM1443.75 877.5 a3.75 3.75 0 1 0 7.5 0 a3.75 3.75 0 1 0 -7.5 0zM1473.75 727.5 a3.75 3.75 0 1 0 7.5 0 a3.75 3.75 0 1 0 -7.5 0zM1458.75 472.5 a3.75 3.75 0 1 0 7.5 0 a3.75 3.75 0 1 0 -7.5 0z" fill="url(#SvgjsLinearGradient1004)"></path>
            <path d="M412.5 727.5L412.5 712.5M412.5 772.5L397.5 757.5L397.5 742.5L397.5 727.5M412.5 787.5L397.5 772.5M502.5 1102.5L502.5 1087.5L502.5 1072.5L487.5 1057.5L487.5 1042.5L487.5 1027.5L487.5 1012.5L472.5 997.5L457.5 982.5L457.5 967.5L457.5 952.5L457.5 937.5L442.5 922.5L442.5 907.5L427.5 892.5L427.5 877.5L427.5 862.5L427.5 847.5L412.5 832.5L412.5 817.5L412.5 802.5L412.5 787.5L412.5 772.5L412.5 757.5L412.5 742.5L412.5 727.5L397.5 712.5" stroke="url(#SvgjsLinearGradient1004)" stroke-width="2.5"></path>
            <path d="M393.75 712.5 a3.75 3.75 0 1 0 7.5 0 a3.75 3.75 0 1 0 -7.5 0zM408.75 712.5 a3.75 3.75 0 1 0 7.5 0 a3.75 3.75 0 1 0 -7.5 0zM393.75 727.5 a3.75 3.75 0 1 0 7.5 0 a3.75 3.75 0 1 0 -7.5 0zM393.75 772.5 a3.75 3.75 0 1 0 7.5 0 a3.75 3.75 0 1 0 -7.5 0z" fill="url(#SvgjsLinearGradient1004)"></path>
            <path d="M1492.5 667.5L1492.5 652.5M1492.5 727.5L1507.5 712.5L1507.5 697.5L1507.5 682.5L1507.5 667.5M1462.5 1012.5L1477.5 997.5L1477.5 982.5L1477.5 967.5L1477.5 952.5M1477.5 877.5L1492.5 862.5L1492.5 847.5L1507.5 832.5L1507.5 817.5L1507.5 802.5L1507.5 787.5M1507.5 607.5L1522.5 592.5L1522.5 577.5L1522.5 562.5M1447.5 1072.5L1462.5 1057.5L1477.5 1042.5L1477.5 1027.5L1477.5 1012.5L1492.5 997.5L1492.5 982.5L1492.5 967.5M1507.5 622.5L1522.5 607.5L1537.5 592.5L1537.5 577.5M1477.5 817.5L1492.5 802.5L1492.5 787.5M1432.5 1102.5L1432.5 1087.5L1447.5 1072.5L1447.5 1057.5L1462.5 1042.5L1462.5 1027.5L1462.5 1012.5L1462.5 997.5L1462.5 982.5L1462.5 967.5L1462.5 952.5L1462.5 937.5L1462.5 922.5L1462.5 907.5L1477.5 892.5L1477.5 877.5L1477.5 862.5L1477.5 847.5L1477.5 832.5L1477.5 817.5L1477.5 802.5L1477.5 787.5L1492.5 772.5L1492.5 757.5L1492.5 742.5L1492.5 727.5L1492.5 712.5L1492.5 697.5L1492.5 682.5L1492.5 667.5L1507.5 652.5L1507.5 637.5L1507.5 622.5L1507.5 607.5L1507.5 592.5" stroke="url(#SvgjsLinearGradient1004)" stroke-width="2.5"></path>
            <path d="M1503.75 592.5 a3.75 3.75 0 1 0 7.5 0 a3.75 3.75 0 1 0 -7.5 0zM1488.75 652.5 a3.75 3.75 0 1 0 7.5 0 a3.75 3.75 0 1 0 -7.5 0zM1503.75 667.5 a3.75 3.75 0 1 0 7.5 0 a3.75 3.75 0 1 0 -7.5 0zM1473.75 952.5 a3.75 3.75 0 1 0 7.5 0 a3.75 3.75 0 1 0 -7.5 0zM1503.75 787.5 a3.75 3.75 0 1 0 7.5 0 a3.75 3.75 0 1 0 -7.5 0zM1518.75 562.5 a3.75 3.75 0 1 0 7.5 0 a3.75 3.75 0 1 0 -7.5 0zM1488.75 967.5 a3.75 3.75 0 1 0 7.5 0 a3.75 3.75 0 1 0 -7.5 0zM1533.75 577.5 a3.75 3.75 0 1 0 7.5 0 a3.75 3.75 0 1 0 -7.5 0zM1488.75 787.5 a3.75 3.75 0 1 0 7.5 0 a3.75 3.75 0 1 0 -7.5 0z" fill="url(#SvgjsLinearGradient1004)"></path>
            <path d="M382.5 727.5L367.5 712.5L352.5 697.5M412.5 892.5L397.5 877.5M472.5 1042.5L457.5 1027.5L457.5 1012.5L442.5 997.5M382.5 667.5L367.5 652.5M397.5 832.5L382.5 817.5L382.5 802.5L367.5 787.5M427.5 922.5L412.5 907.5L397.5 892.5M442.5 952.5L427.5 937.5L412.5 922.5L397.5 907.5M487.5 1102.5L487.5 1087.5L487.5 1072.5L472.5 1057.5L472.5 1042.5L472.5 1027.5L472.5 1012.5L457.5 997.5L442.5 982.5L442.5 967.5L442.5 952.5L442.5 937.5L427.5 922.5L427.5 907.5L412.5 892.5L412.5 877.5L412.5 862.5L412.5 847.5L397.5 832.5L397.5 817.5L397.5 802.5L382.5 787.5L382.5 772.5L382.5 757.5L382.5 742.5L382.5 727.5L382.5 712.5L382.5 697.5L382.5 682.5L382.5 667.5L382.5 652.5" stroke="url(#SvgjsLinearGradient1004)" stroke-width="2.5"></path>
            <path d="M378.75 652.5 a3.75 3.75 0 1 0 7.5 0 a3.75 3.75 0 1 0 -7.5 0zM348.75 697.5 a3.75 3.75 0 1 0 7.5 0 a3.75 3.75 0 1 0 -7.5 0zM393.75 877.5 a3.75 3.75 0 1 0 7.5 0 a3.75 3.75 0 1 0 -7.5 0zM438.75 997.5 a3.75 3.75 0 1 0 7.5 0 a3.75 3.75 0 1 0 -7.5 0zM363.75 652.5 a3.75 3.75 0 1 0 7.5 0 a3.75 3.75 0 1 0 -7.5 0zM363.75 787.5 a3.75 3.75 0 1 0 7.5 0 a3.75 3.75 0 1 0 -7.5 0zM393.75 892.5 a3.75 3.75 0 1 0 7.5 0 a3.75 3.75 0 1 0 -7.5 0zM393.75 907.5 a3.75 3.75 0 1 0 7.5 0 a3.75 3.75 0 1 0 -7.5 0z" fill="url(#SvgjsLinearGradient1004)"></path>
        </g>
    </g>
    <defs>
        <mask id="SvgjsMask1003">
            <rect width="1920" height="1080" fill="#ffffff"></rect>
        </mask>
        <linearGradient x1="960" y1="1080" x2="960" y2="216" gradientUnits="userSpaceOnUse" id="SvgjsLinearGradient1004">
            <stop stop-color="rgba(230, 211, 180, 1)" offset="0"></stop>
            <stop stop-color="rgba(238, 207, 163, 1)" offset="0.5"></stop>
            <stop stop-color="rgba(218, 172, 122, 1)" offset="1"></stop>
        </linearGradient>
        <mask id="SvgjsMask1005">
            <rect width="1920" height="1080" fill="white"></rect>
            <path d="M965.62 502.5 a1.88 1.88 0 1 0 3.76 0 a1.88 1.88 0 1 0 -3.76 0zM980.62 727.5 a1.88 1.88 0 1 0 3.76 0 a1.88 1.88 0 1 0 -3.76 0zM950.62 637.5 a1.88 1.88 0 1 0 3.76 0 a1.88 1.88 0 1 0 -3.76 0zM980.62 772.5 a1.88 1.88 0 1 0 3.76 0 a1.88 1.88 0 1 0 -3.76 0zM950.62 742.5 a1.88 1.88 0 1 0 3.76 0 a1.88 1.88 0 1 0 -3.76 0zM980.62 742.5 a1.88 1.88 0 1 0 3.76 0 a1.88 1.88 0 1 0 -3.76 0zM920.62 847.5 a1.88 1.88 0 1 0 3.76 0 a1.88 1.88 0 1 0 -3.76 0zM980.62 502.5 a1.88 1.88 0 1 0 3.76 0 a1.88 1.88 0 1 0 -3.76 0zM980.62 1027.5 a1.88 1.88 0 1 0 3.76 0 a1.88 1.88 0 1 0 -3.76 0zM950.62 667.5 a1.88 1.88 0 1 0 3.76 0 a1.88 1.88 0 1 0 -3.76 0zM995.62 517.5 a1.88 1.88 0 1 0 3.76 0 a1.88 1.88 0 1 0 -3.76 0z" fill="black"></path>
            <path d="M905.62 907.5 a1.88 1.88 0 1 0 3.76 0 a1.88 1.88 0 1 0 -3.76 0zM935.62 982.5 a1.88 1.88 0 1 0 3.76 0 a1.88 1.88 0 1 0 -3.76 0zM935.62 952.5 a1.88 1.88 0 1 0 3.76 0 a1.88 1.88 0 1 0 -3.76 0zM935.62 1012.5 a1.88 1.88 0 1 0 3.76 0 a1.88 1.88 0 1 0 -3.76 0z" fill="black"></path>
            <path d="M995.62 952.5 a1.88 1.88 0 1 0 3.76 0 a1.88 1.88 0 1 0 -3.76 0zM980.62 952.5 a1.88 1.88 0 1 0 3.76 0 a1.88 1.88 0 1 0 -3.76 0zM980.62 1042.5 a1.88 1.88 0 1 0 3.76 0 a1.88 1.88 0 1 0 -3.76 0zM980.62 1057.5 a1.88 1.88 0 1 0 3.76 0 a1.88 1.88 0 1 0 -3.76 0z" fill="black"></path>
            <path d="M920.62 952.5 a1.88 1.88 0 1 0 3.76 0 a1.88 1.88 0 1 0 -3.76 0zM905.62 967.5 a1.88 1.88 0 1 0 3.76 0 a1.88 1.88 0 1 0 -3.76 0zM935.62 1027.5 a1.88 1.88 0 1 0 3.76 0 a1.88 1.88 0 1 0 -3.76 0zM905.62 997.5 a1.88 1.88 0 1 0 3.76 0 a1.88 1.88 0 1 0 -3.76 0z" fill="black"></path>
            <path d="M1010.62 367.5 a1.88 1.88 0 1 0 3.76 0 a1.88 1.88 0 1 0 -3.76 0zM980.62 637.5 a1.88 1.88 0 1 0 3.76 0 a1.88 1.88 0 1 0 -3.76 0zM1040.62 577.5 a1.88 1.88 0 1 0 3.76 0 a1.88 1.88 0 1 0 -3.76 0zM1055.62 772.5 a1.88 1.88 0 1 0 3.76 0 a1.88 1.88 0 1 0 -3.76 0zM1010.62 997.5 a1.88 1.88 0 1 0 3.76 0 a1.88 1.88 0 1 0 -3.76 0zM1025.62 637.5 a1.88 1.88 0 1 0 3.76 0 a1.88 1.88 0 1 0 -3.76 0zM980.62 682.5 a1.88 1.88 0 1 0 3.76 0 a1.88 1.88 0 1 0 -3.76 0zM1040.62 952.5 a1.88 1.88 0 1 0 3.76 0 a1.88 1.88 0 1 0 -3.76 0zM1025.62 517.5 a1.88 1.88 0 1 0 3.76 0 a1.88 1.88 0 1 0 -3.76 0zM1025.62 532.5 a1.88 1.88 0 1 0 3.76 0 a1.88 1.88 0 1 0 -3.76 0zM995.62 382.5 a1.88 1.88 0 1 0 3.76 0 a1.88 1.88 0 1 0 -3.76 0zM995.62 592.5 a1.88 1.88 0 1 0 3.76 0 a1.88 1.88 0 1 0 -3.76 0zM995.62 877.5 a1.88 1.88 0 1 0 3.76 0 a1.88 1.88 0 1 0 -3.76 0z" fill="black"></path>
            <path d="M905.62 1027.5 a1.88 1.88 0 1 0 3.76 0 a1.88 1.88 0 1 0 -3.76 0z" fill="black"></path>
            <path d="M1085.62 802.5 a1.88 1.88 0 1 0 3.76 0 a1.88 1.88 0 1 0 -3.76 0zM1070.62 832.5 a1.88 1.88 0 1 0 3.76 0 a1.88 1.88 0 1 0 -3.76 0zM1055.62 862.5 a1.88 1.88 0 1 0 3.76 0 a1.88 1.88 0 1 0 -3.76 0zM1070.62 757.5 a1.88 1.88 0 1 0 3.76 0 a1.88 1.88 0 1 0 -3.76 0zM1070.62 892.5 a1.88 1.88 0 1 0 3.76 0 a1.88 1.88 0 1 0 -3.76 0zM1025.62 1012.5 a1.88 1.88 0 1 0 3.76 0 a1.88 1.88 0 1 0 -3.76 0z" fill="black"></path>
            <path d="M860.62 547.5 a1.88 1.88 0 1 0 3.76 0 a1.88 1.88 0 1 0 -3.76 0zM905.62 682.5 a1.88 1.88 0 1 0 3.76 0 a1.88 1.88 0 1 0 -3.76 0zM875.62 817.5 a1.88 1.88 0 1 0 3.76 0 a1.88 1.88 0 1 0 -3.76 0zM920.62 682.5 a1.88 1.88 0 1 0 3.76 0 a1.88 1.88 0 1 0 -3.76 0zM875.62 922.5 a1.88 1.88 0 1 0 3.76 0 a1.88 1.88 0 1 0 -3.76 0zM860.62 502.5 a1.88 1.88 0 1 0 3.76 0 a1.88 1.88 0 1 0 -3.76 0zM890.62 742.5 a1.88 1.88 0 1 0 3.76 0 a1.88 1.88 0 1 0 -3.76 0zM875.62 652.5 a1.88 1.88 0 1 0 3.76 0 a1.88 1.88 0 1 0 -3.76 0zM890.62 757.5 a1.88 1.88 0 1 0 3.76 0 a1.88 1.88 0 1 0 -3.76 0zM875.62 982.5 a1.88 1.88 0 1 0 3.76 0 a1.88 1.88 0 1 0 -3.76 0z" fill="black"></path>
            <path d="M1025.62 1087.5 a1.88 1.88 0 1 0 3.76 0 a1.88 1.88 0 1 0 -3.76 0z" fill="black"></path>
            <path d="M830.62 607.5 a1.88 1.88 0 1 0 3.76 0 a1.88 1.88 0 1 0 -3.76 0zM845.62 712.5 a1.88 1.88 0 1 0 3.76 0 a1.88 1.88 0 1 0 -3.76 0zM845.62 862.5 a1.88 1.88 0 1 0 3.76 0 a1.88 1.88 0 1 0 -3.76 0zM845.62 907.5 a1.88 1.88 0 1 0 3.76 0 a1.88 1.88 0 1 0 -3.76 0zM875.62 787.5 a1.88 1.88 0 1 0 3.76 0 a1.88 1.88 0 1 0 -3.76 0zM875.62 997.5 a1.88 1.88 0 1 0 3.76 0 a1.88 1.88 0 1 0 -3.76 0zM845.62 832.5 a1.88 1.88 0 1 0 3.76 0 a1.88 1.88 0 1 0 -3.76 0z" fill="black"></path>
            <path d="M1100.62 892.5 a1.88 1.88 0 1 0 3.76 0 a1.88 1.88 0 1 0 -3.76 0zM1100.62 922.5 a1.88 1.88 0 1 0 3.76 0 a1.88 1.88 0 1 0 -3.76 0zM1055.62 1057.5 a1.88 1.88 0 1 0 3.76 0 a1.88 1.88 0 1 0 -3.76 0zM1055.62 1027.5 a1.88 1.88 0 1 0 3.76 0 a1.88 1.88 0 1 0 -3.76 0z" fill="black"></path>
            <path d="M815.62 487.5 a1.88 1.88 0 1 0 3.76 0 a1.88 1.88 0 1 0 -3.76 0zM830.62 517.5 a1.88 1.88 0 1 0 3.76 0 a1.88 1.88 0 1 0 -3.76 0zM845.62 937.5 a1.88 1.88 0 1 0 3.76 0 a1.88 1.88 0 1 0 -3.76 0zM830.62 577.5 a1.88 1.88 0 1 0 3.76 0 a1.88 1.88 0 1 0 -3.76 0zM830.62 352.5 a1.88 1.88 0 1 0 3.76 0 a1.88 1.88 0 1 0 -3.76 0z" fill="black"></path>
            <path d="M1055.62 1087.5 a1.88 1.88 0 1 0 3.76 0 a1.88 1.88 0 1 0 -3.76 0z" fill="black"></path>
            <path d="M845.62 1027.5 a1.88 1.88 0 1 0 3.76 0 a1.88 1.88 0 1 0 -3.76 0z" fill="black"></path>
            <path d="M1115.62 487.5 a1.88 1.88 0 1 0 3.76 0 a1.88 1.88 0 1 0 -3.76 0zM1070.62 592.5 a1.88 1.88 0 1 0 3.76 0 a1.88 1.88 0 1 0 -3.76 0zM1085.62 517.5 a1.88 1.88 0 1 0 3.76 0 a1.88 1.88 0 1 0 -3.76 0zM1130.62 457.5 a1.88 1.88 0 1 0 3.76 0 a1.88 1.88 0 1 0 -3.76 0zM1085.62 952.5 a1.88 1.88 0 1 0 3.76 0 a1.88 1.88 0 1 0 -3.76 0zM1115.62 697.5 a1.88 1.88 0 1 0 3.76 0 a1.88 1.88 0 1 0 -3.76 0zM1070.62 712.5 a1.88 1.88 0 1 0 3.76 0 a1.88 1.88 0 1 0 -3.76 0zM1085.62 1057.5 a1.88 1.88 0 1 0 3.76 0 a1.88 1.88 0 1 0 -3.76 0zM1115.62 847.5 a1.88 1.88 0 1 0 3.76 0 a1.88 1.88 0 1 0 -3.76 0zM1055.62 577.5 a1.88 1.88 0 1 0 3.76 0 a1.88 1.88 0 1 0 -3.76 0zM1100.62 352.5 a1.88 1.88 0 1 0 3.76 0 a1.88 1.88 0 1 0 -3.76 0z" fill="black"></path>
            <path d="M800.62 532.5 a1.88 1.88 0 1 0 3.76 0 a1.88 1.88 0 1 0 -3.76 0zM770.62 622.5 a1.88 1.88 0 1 0 3.76 0 a1.88 1.88 0 1 0 -3.76 0zM815.62 952.5 a1.88 1.88 0 1 0 3.76 0 a1.88 1.88 0 1 0 -3.76 0zM785.62 592.5 a1.88 1.88 0 1 0 3.76 0 a1.88 1.88 0 1 0 -3.76 0zM800.62 877.5 a1.88 1.88 0 1 0 3.76 0 a1.88 1.88 0 1 0 -3.76 0zM770.62 637.5 a1.88 1.88 0 1 0 3.76 0 a1.88 1.88 0 1 0 -3.76 0zM800.62 787.5 a1.88 1.88 0 1 0 3.76 0 a1.88 1.88 0 1 0 -3.76 0zM785.62 757.5 a1.88 1.88 0 1 0 3.76 0 a1.88 1.88 0 1 0 -3.76 0zM800.62 757.5 a1.88 1.88 0 1 0 3.76 0 a1.88 1.88 0 1 0 -3.76 0zM785.62 547.5 a1.88 1.88 0 1 0 3.76 0 a1.88 1.88 0 1 0 -3.76 0z" fill="black"></path>
            <path d="M1130.62 832.5 a1.88 1.88 0 1 0 3.76 0 a1.88 1.88 0 1 0 -3.76 0zM1115.62 967.5 a1.88 1.88 0 1 0 3.76 0 a1.88 1.88 0 1 0 -3.76 0zM1100.62 1012.5 a1.88 1.88 0 1 0 3.76 0 a1.88 1.88 0 1 0 -3.76 0zM1145.62 847.5 a1.88 1.88 0 1 0 3.76 0 a1.88 1.88 0 1 0 -3.76 0zM1115.62 982.5 a1.88 1.88 0 1 0 3.76 0 a1.88 1.88 0 1 0 -3.76 0z" fill="black"></path>
            <path d="M830.62 1057.5 a1.88 1.88 0 1 0 3.76 0 a1.88 1.88 0 1 0 -3.76 0zM830.62 1072.5 a1.88 1.88 0 1 0 3.76 0 a1.88 1.88 0 1 0 -3.76 0z" fill="black"></path>
            <path d="M1145.62 907.5 a1.88 1.88 0 1 0 3.76 0 a1.88 1.88 0 1 0 -3.76 0zM1115.62 1072.5 a1.88 1.88 0 1 0 3.76 0 a1.88 1.88 0 1 0 -3.76 0zM1145.62 952.5 a1.88 1.88 0 1 0 3.76 0 a1.88 1.88 0 1 0 -3.76 0zM1145.62 982.5 a1.88 1.88 0 1 0 3.76 0 a1.88 1.88 0 1 0 -3.76 0z" fill="black"></path>
            <path d="M770.62 817.5 a1.88 1.88 0 1 0 3.76 0 a1.88 1.88 0 1 0 -3.76 0zM755.62 877.5 a1.88 1.88 0 1 0 3.76 0 a1.88 1.88 0 1 0 -3.76 0zM785.62 1027.5 a1.88 1.88 0 1 0 3.76 0 a1.88 1.88 0 1 0 -3.76 0zM755.62 937.5 a1.88 1.88 0 1 0 3.76 0 a1.88 1.88 0 1 0 -3.76 0zM755.62 952.5 a1.88 1.88 0 1 0 3.76 0 a1.88 1.88 0 1 0 -3.76 0zM770.62 787.5 a1.88 1.88 0 1 0 3.76 0 a1.88 1.88 0 1 0 -3.76 0z" fill="black"></path>
            <path d="M1160.62 817.5 a1.88 1.88 0 1 0 3.76 0 a1.88 1.88 0 1 0 -3.76 0zM1175.62 832.5 a1.88 1.88 0 1 0 3.76 0 a1.88 1.88 0 1 0 -3.76 0zM1175.62 952.5 a1.88 1.88 0 1 0 3.76 0 a1.88 1.88 0 1 0 -3.76 0zM1145.62 997.5 a1.88 1.88 0 1 0 3.76 0 a1.88 1.88 0 1 0 -3.76 0zM1145.62 877.5 a1.88 1.88 0 1 0 3.76 0 a1.88 1.88 0 1 0 -3.76 0zM1145.62 727.5 a1.88 1.88 0 1 0 3.76 0 a1.88 1.88 0 1 0 -3.76 0z" fill="black"></path>
            <path d="M1190.62 847.5 a1.88 1.88 0 1 0 3.76 0 a1.88 1.88 0 1 0 -3.76 0zM1205.62 862.5 a1.88 1.88 0 1 0 3.76 0 a1.88 1.88 0 1 0 -3.76 0zM1175.62 967.5 a1.88 1.88 0 1 0 3.76 0 a1.88 1.88 0 1 0 -3.76 0zM1175.62 1027.5 a1.88 1.88 0 1 0 3.76 0 a1.88 1.88 0 1 0 -3.76 0z" fill="black"></path>
            <path d="M710.62 562.5 a1.88 1.88 0 1 0 3.76 0 a1.88 1.88 0 1 0 -3.76 0zM740.62 607.5 a1.88 1.88 0 1 0 3.76 0 a1.88 1.88 0 1 0 -3.76 0zM755.62 742.5 a1.88 1.88 0 1 0 3.76 0 a1.88 1.88 0 1 0 -3.76 0zM725.62 712.5 a1.88 1.88 0 1 0 3.76 0 a1.88 1.88 0 1 0 -3.76 0zM755.62 802.5 a1.88 1.88 0 1 0 3.76 0 a1.88 1.88 0 1 0 -3.76 0zM710.62 622.5 a1.88 1.88 0 1 0 3.76 0 a1.88 1.88 0 1 0 -3.76 0zM740.62 667.5 a1.88 1.88 0 1 0 3.76 0 a1.88 1.88 0 1 0 -3.76 0zM725.62 562.5 a1.88 1.88 0 1 0 3.76 0 a1.88 1.88 0 1 0 -3.76 0zM740.62 682.5 a1.88 1.88 0 1 0 3.76 0 a1.88 1.88 0 1 0 -3.76 0zM755.62 982.5 a1.88 1.88 0 1 0 3.76 0 a1.88 1.88 0 1 0 -3.76 0z" fill="black"></path>
            <path d="M1235.62 652.5 a1.88 1.88 0 1 0 3.76 0 a1.88 1.88 0 1 0 -3.76 0zM1250.62 682.5 a1.88 1.88 0 1 0 3.76 0 a1.88 1.88 0 1 0 -3.76 0zM1235.62 787.5 a1.88 1.88 0 1 0 3.76 0 a1.88 1.88 0 1 0 -3.76 0zM1235.62 877.5 a1.88 1.88 0 1 0 3.76 0 a1.88 1.88 0 1 0 -3.76 0zM1190.62 742.5 a1.88 1.88 0 1 0 3.76 0 a1.88 1.88 0 1 0 -3.76 0zM1250.62 697.5 a1.88 1.88 0 1 0 3.76 0 a1.88 1.88 0 1 0 -3.76 0zM1220.62 637.5 a1.88 1.88 0 1 0 3.76 0 a1.88 1.88 0 1 0 -3.76 0zM1205.62 877.5 a1.88 1.88 0 1 0 3.76 0 a1.88 1.88 0 1 0 -3.76 0z" fill="black"></path>
            <path d="M650.62 292.5 a1.88 1.88 0 1 0 3.76 0 a1.88 1.88 0 1 0 -3.76 0zM725.62 772.5 a1.88 1.88 0 1 0 3.76 0 a1.88 1.88 0 1 0 -3.76 0zM695.62 652.5 a1.88 1.88 0 1 0 3.76 0 a1.88 1.88 0 1 0 -3.76 0zM710.62 322.5 a1.88 1.88 0 1 0 3.76 0 a1.88 1.88 0 1 0 -3.76 0zM725.62 787.5 a1.88 1.88 0 1 0 3.76 0 a1.88 1.88 0 1 0 -3.76 0zM710.62 712.5 a1.88 1.88 0 1 0 3.76 0 a1.88 1.88 0 1 0 -3.76 0zM710.62 487.5 a1.88 1.88 0 1 0 3.76 0 a1.88 1.88 0 1 0 -3.76 0zM665.62 292.5 a1.88 1.88 0 1 0 3.76 0 a1.88 1.88 0 1 0 -3.76 0zM725.62 817.5 a1.88 1.88 0 1 0 3.76 0 a1.88 1.88 0 1 0 -3.76 0zM635.62 307.5 a1.88 1.88 0 1 0 3.76 0 a1.88 1.88 0 1 0 -3.76 0zM680.62 307.5 a1.88 1.88 0 1 0 3.76 0 a1.88 1.88 0 1 0 -3.76 0zM710.62 937.5 a1.88 1.88 0 1 0 3.76 0 a1.88 1.88 0 1 0 -3.76 0zM695.62 322.5 a1.88 1.88 0 1 0 3.76 0 a1.88 1.88 0 1 0 -3.76 0zM680.62 412.5 a1.88 1.88 0 1 0 3.76 0 a1.88 1.88 0 1 0 -3.76 0z" fill="black"></path>
            <path d="M1280.62 742.5 a1.88 1.88 0 1 0 3.76 0 a1.88 1.88 0 1 0 -3.76 0zM1280.62 817.5 a1.88 1.88 0 1 0 3.76 0 a1.88 1.88 0 1 0 -3.76 0zM1265.62 727.5 a1.88 1.88 0 1 0 3.76 0 a1.88 1.88 0 1 0 -3.76 0zM1250.62 862.5 a1.88 1.88 0 1 0 3.76 0 a1.88 1.88 0 1 0 -3.76 0zM1250.62 892.5 a1.88 1.88 0 1 0 3.76 0 a1.88 1.88 0 1 0 -3.76 0zM1235.62 892.5 a1.88 1.88 0 1 0 3.76 0 a1.88 1.88 0 1 0 -3.76 0zM1235.62 937.5 a1.88 1.88 0 1 0 3.76 0 a1.88 1.88 0 1 0 -3.76 0z" fill="black"></path>
            <path d="M710.62 997.5 a1.88 1.88 0 1 0 3.76 0 a1.88 1.88 0 1 0 -3.76 0z" fill="black"></path>
            <path d="M1280.62 442.5 a1.88 1.88 0 1 0 3.76 0 a1.88 1.88 0 1 0 -3.76 0zM1280.62 757.5 a1.88 1.88 0 1 0 3.76 0 a1.88 1.88 0 1 0 -3.76 0zM1280.62 787.5 a1.88 1.88 0 1 0 3.76 0 a1.88 1.88 0 1 0 -3.76 0zM1325.62 367.5 a1.88 1.88 0 1 0 3.76 0 a1.88 1.88 0 1 0 -3.76 0zM1250.62 322.5 a1.88 1.88 0 1 0 3.76 0 a1.88 1.88 0 1 0 -3.76 0zM1265.62 517.5 a1.88 1.88 0 1 0 3.76 0 a1.88 1.88 0 1 0 -3.76 0zM1310.62 412.5 a1.88 1.88 0 1 0 3.76 0 a1.88 1.88 0 1 0 -3.76 0zM1280.62 667.5 a1.88 1.88 0 1 0 3.76 0 a1.88 1.88 0 1 0 -3.76 0zM1235.62 262.5 a1.88 1.88 0 1 0 3.76 0 a1.88 1.88 0 1 0 -3.76 0zM1295.62 502.5 a1.88 1.88 0 1 0 3.76 0 a1.88 1.88 0 1 0 -3.76 0zM1325.62 502.5 a1.88 1.88 0 1 0 3.76 0 a1.88 1.88 0 1 0 -3.76 0zM1220.62 997.5 a1.88 1.88 0 1 0 3.76 0 a1.88 1.88 0 1 0 -3.76 0z" fill="black"></path>
            <path d="M620.62 292.5 a1.88 1.88 0 1 0 3.76 0 a1.88 1.88 0 1 0 -3.76 0zM635.62 487.5 a1.88 1.88 0 1 0 3.76 0 a1.88 1.88 0 1 0 -3.76 0zM560.62 262.5 a1.88 1.88 0 1 0 3.76 0 a1.88 1.88 0 1 0 -3.76 0zM590.62 307.5 a1.88 1.88 0 1 0 3.76 0 a1.88 1.88 0 1 0 -3.76 0zM605.62 292.5 a1.88 1.88 0 1 0 3.76 0 a1.88 1.88 0 1 0 -3.76 0zM680.62 742.5 a1.88 1.88 0 1 0 3.76 0 a1.88 1.88 0 1 0 -3.76 0zM635.62 337.5 a1.88 1.88 0 1 0 3.76 0 a1.88 1.88 0 1 0 -3.76 0zM620.62 487.5 a1.88 1.88 0 1 0 3.76 0 a1.88 1.88 0 1 0 -3.76 0zM710.62 892.5 a1.88 1.88 0 1 0 3.76 0 a1.88 1.88 0 1 0 -3.76 0zM605.62 352.5 a1.88 1.88 0 1 0 3.76 0 a1.88 1.88 0 1 0 -3.76 0zM545.62 262.5 a1.88 1.88 0 1 0 3.76 0 a1.88 1.88 0 1 0 -3.76 0zM695.62 667.5 a1.88 1.88 0 1 0 3.76 0 a1.88 1.88 0 1 0 -3.76 0zM635.62 457.5 a1.88 1.88 0 1 0 3.76 0 a1.88 1.88 0 1 0 -3.76 0zM695.62 682.5 a1.88 1.88 0 1 0 3.76 0 a1.88 1.88 0 1 0 -3.76 0z" fill="black"></path>
            <path d="M1235.62 1042.5 a1.88 1.88 0 1 0 3.76 0 a1.88 1.88 0 1 0 -3.76 0z" fill="black"></path>
            <path d="M665.62 607.5 a1.88 1.88 0 1 0 3.76 0 a1.88 1.88 0 1 0 -3.76 0zM665.62 802.5 a1.88 1.88 0 1 0 3.76 0 a1.88 1.88 0 1 0 -3.76 0zM680.62 757.5 a1.88 1.88 0 1 0 3.76 0 a1.88 1.88 0 1 0 -3.76 0zM650.62 682.5 a1.88 1.88 0 1 0 3.76 0 a1.88 1.88 0 1 0 -3.76 0zM650.62 697.5 a1.88 1.88 0 1 0 3.76 0 a1.88 1.88 0 1 0 -3.76 0z" fill="black"></path>
            <path d="M1310.62 637.5 a1.88 1.88 0 1 0 3.76 0 a1.88 1.88 0 1 0 -3.76 0zM1340.62 622.5 a1.88 1.88 0 1 0 3.76 0 a1.88 1.88 0 1 0 -3.76 0zM1235.62 1012.5 a1.88 1.88 0 1 0 3.76 0 a1.88 1.88 0 1 0 -3.76 0z" fill="black"></path>
            <path d="M665.62 592.5 a1.88 1.88 0 1 0 3.76 0 a1.88 1.88 0 1 0 -3.76 0zM650.62 937.5 a1.88 1.88 0 1 0 3.76 0 a1.88 1.88 0 1 0 -3.76 0zM650.62 772.5 a1.88 1.88 0 1 0 3.76 0 a1.88 1.88 0 1 0 -3.76 0zM635.62 592.5 a1.88 1.88 0 1 0 3.76 0 a1.88 1.88 0 1 0 -3.76 0zM650.62 592.5 a1.88 1.88 0 1 0 3.76 0 a1.88 1.88 0 1 0 -3.76 0zM620.62 637.5 a1.88 1.88 0 1 0 3.76 0 a1.88 1.88 0 1 0 -3.76 0zM650.62 712.5 a1.88 1.88 0 1 0 3.76 0 a1.88 1.88 0 1 0 -3.76 0z" fill="black"></path>
            <path d="M1340.62 712.5 a1.88 1.88 0 1 0 3.76 0 a1.88 1.88 0 1 0 -3.76 0zM1280.62 982.5 a1.88 1.88 0 1 0 3.76 0 a1.88 1.88 0 1 0 -3.76 0zM1340.62 802.5 a1.88 1.88 0 1 0 3.76 0 a1.88 1.88 0 1 0 -3.76 0zM1340.62 772.5 a1.88 1.88 0 1 0 3.76 0 a1.88 1.88 0 1 0 -3.76 0zM1250.62 1057.5 a1.88 1.88 0 1 0 3.76 0 a1.88 1.88 0 1 0 -3.76 0z" fill="black"></path>
            <path d="M650.62 997.5 a1.88 1.88 0 1 0 3.76 0 a1.88 1.88 0 1 0 -3.76 0z" fill="black"></path>
            <path d="M1355.62 712.5 a1.88 1.88 0 1 0 3.76 0 a1.88 1.88 0 1 0 -3.76 0zM1370.62 742.5 a1.88 1.88 0 1 0 3.76 0 a1.88 1.88 0 1 0 -3.76 0zM1280.62 997.5 a1.88 1.88 0 1 0 3.76 0 a1.88 1.88 0 1 0 -3.76 0zM1295.62 1012.5 a1.88 1.88 0 1 0 3.76 0 a1.88 1.88 0 1 0 -3.76 0z" fill="black"></path>
            <path d="M620.62 472.5 a1.88 1.88 0 1 0 3.76 0 a1.88 1.88 0 1 0 -3.76 0zM605.62 697.5 a1.88 1.88 0 1 0 3.76 0 a1.88 1.88 0 1 0 -3.76 0zM620.62 547.5 a1.88 1.88 0 1 0 3.76 0 a1.88 1.88 0 1 0 -3.76 0zM590.62 607.5 a1.88 1.88 0 1 0 3.76 0 a1.88 1.88 0 1 0 -3.76 0zM620.62 802.5 a1.88 1.88 0 1 0 3.76 0 a1.88 1.88 0 1 0 -3.76 0zM590.62 652.5 a1.88 1.88 0 1 0 3.76 0 a1.88 1.88 0 1 0 -3.76 0zM590.62 502.5 a1.88 1.88 0 1 0 3.76 0 a1.88 1.88 0 1 0 -3.76 0zM620.62 727.5 a1.88 1.88 0 1 0 3.76 0 a1.88 1.88 0 1 0 -3.76 0zM620.62 652.5 a1.88 1.88 0 1 0 3.76 0 a1.88 1.88 0 1 0 -3.76 0zM635.62 907.5 a1.88 1.88 0 1 0 3.76 0 a1.88 1.88 0 1 0 -3.76 0zM590.62 667.5 a1.88 1.88 0 1 0 3.76 0 a1.88 1.88 0 1 0 -3.76 0z" fill="black"></path>
            <path d="M1355.62 427.5 a1.88 1.88 0 1 0 3.76 0 a1.88 1.88 0 1 0 -3.76 0zM1370.62 757.5 a1.88 1.88 0 1 0 3.76 0 a1.88 1.88 0 1 0 -3.76 0zM1340.62 292.5 a1.88 1.88 0 1 0 3.76 0 a1.88 1.88 0 1 0 -3.76 0zM1325.62 457.5 a1.88 1.88 0 1 0 3.76 0 a1.88 1.88 0 1 0 -3.76 0zM1370.62 397.5 a1.88 1.88 0 1 0 3.76 0 a1.88 1.88 0 1 0 -3.76 0zM1340.62 547.5 a1.88 1.88 0 1 0 3.76 0 a1.88 1.88 0 1 0 -3.76 0zM1355.62 637.5 a1.88 1.88 0 1 0 3.76 0 a1.88 1.88 0 1 0 -3.76 0zM1385.62 562.5 a1.88 1.88 0 1 0 3.76 0 a1.88 1.88 0 1 0 -3.76 0zM1340.62 562.5 a1.88 1.88 0 1 0 3.76 0 a1.88 1.88 0 1 0 -3.76 0zM1400.62 592.5 a1.88 1.88 0 1 0 3.76 0 a1.88 1.88 0 1 0 -3.76 0zM1295.62 1042.5 a1.88 1.88 0 1 0 3.76 0 a1.88 1.88 0 1 0 -3.76 0zM1370.62 457.5 a1.88 1.88 0 1 0 3.76 0 a1.88 1.88 0 1 0 -3.76 0z" fill="black"></path>
            <path d="M620.62 907.5 a1.88 1.88 0 1 0 3.76 0 a1.88 1.88 0 1 0 -3.76 0zM620.62 1042.5 a1.88 1.88 0 1 0 3.76 0 a1.88 1.88 0 1 0 -3.76 0zM605.62 967.5 a1.88 1.88 0 1 0 3.76 0 a1.88 1.88 0 1 0 -3.76 0zM605.62 907.5 a1.88 1.88 0 1 0 3.76 0 a1.88 1.88 0 1 0 -3.76 0z" fill="black"></path>
            <path d="M1400.62 427.5 a1.88 1.88 0 1 0 3.76 0 a1.88 1.88 0 1 0 -3.76 0zM1430.62 382.5 a1.88 1.88 0 1 0 3.76 0 a1.88 1.88 0 1 0 -3.76 0zM1400.62 712.5 a1.88 1.88 0 1 0 3.76 0 a1.88 1.88 0 1 0 -3.76 0zM1415.62 472.5 a1.88 1.88 0 1 0 3.76 0 a1.88 1.88 0 1 0 -3.76 0zM1415.62 502.5 a1.88 1.88 0 1 0 3.76 0 a1.88 1.88 0 1 0 -3.76 0zM1400.62 517.5 a1.88 1.88 0 1 0 3.76 0 a1.88 1.88 0 1 0 -3.76 0zM1400.62 532.5 a1.88 1.88 0 1 0 3.76 0 a1.88 1.88 0 1 0 -3.76 0zM1400.62 547.5 a1.88 1.88 0 1 0 3.76 0 a1.88 1.88 0 1 0 -3.76 0zM1400.62 562.5 a1.88 1.88 0 1 0 3.76 0 a1.88 1.88 0 1 0 -3.76 0zM1385.62 397.5 a1.88 1.88 0 1 0 3.76 0 a1.88 1.88 0 1 0 -3.76 0z" fill="black"></path>
            <path d="M560.62 607.5 a1.88 1.88 0 1 0 3.76 0 a1.88 1.88 0 1 0 -3.76 0zM590.62 682.5 a1.88 1.88 0 1 0 3.76 0 a1.88 1.88 0 1 0 -3.76 0zM620.62 877.5 a1.88 1.88 0 1 0 3.76 0 a1.88 1.88 0 1 0 -3.76 0zM560.62 667.5 a1.88 1.88 0 1 0 3.76 0 a1.88 1.88 0 1 0 -3.76 0zM590.62 697.5 a1.88 1.88 0 1 0 3.76 0 a1.88 1.88 0 1 0 -3.76 0zM590.62 802.5 a1.88 1.88 0 1 0 3.76 0 a1.88 1.88 0 1 0 -3.76 0zM590.62 967.5 a1.88 1.88 0 1 0 3.76 0 a1.88 1.88 0 1 0 -3.76 0zM605.62 787.5 a1.88 1.88 0 1 0 3.76 0 a1.88 1.88 0 1 0 -3.76 0zM590.62 877.5 a1.88 1.88 0 1 0 3.76 0 a1.88 1.88 0 1 0 -3.76 0z" fill="black"></path>
            <path d="M1385.62 832.5 a1.88 1.88 0 1 0 3.76 0 a1.88 1.88 0 1 0 -3.76 0zM1355.62 967.5 a1.88 1.88 0 1 0 3.76 0 a1.88 1.88 0 1 0 -3.76 0zM1370.62 922.5 a1.88 1.88 0 1 0 3.76 0 a1.88 1.88 0 1 0 -3.76 0z" fill="black"></path>
            <path d="M560.62 457.5 a1.88 1.88 0 1 0 3.76 0 a1.88 1.88 0 1 0 -3.76 0zM560.62 682.5 a1.88 1.88 0 1 0 3.76 0 a1.88 1.88 0 1 0 -3.76 0zM560.62 562.5 a1.88 1.88 0 1 0 3.76 0 a1.88 1.88 0 1 0 -3.76 0zM530.62 397.5 a1.88 1.88 0 1 0 3.76 0 a1.88 1.88 0 1 0 -3.76 0zM530.62 682.5 a1.88 1.88 0 1 0 3.76 0 a1.88 1.88 0 1 0 -3.76 0zM515.62 667.5 a1.88 1.88 0 1 0 3.76 0 a1.88 1.88 0 1 0 -3.76 0zM530.62 652.5 a1.88 1.88 0 1 0 3.76 0 a1.88 1.88 0 1 0 -3.76 0zM545.62 892.5 a1.88 1.88 0 1 0 3.76 0 a1.88 1.88 0 1 0 -3.76 0zM500.62 697.5 a1.88 1.88 0 1 0 3.76 0 a1.88 1.88 0 1 0 -3.76 0zM560.62 847.5 a1.88 1.88 0 1 0 3.76 0 a1.88 1.88 0 1 0 -3.76 0zM530.62 262.5 a1.88 1.88 0 1 0 3.76 0 a1.88 1.88 0 1 0 -3.76 0zM605.62 442.5 a1.88 1.88 0 1 0 3.76 0 a1.88 1.88 0 1 0 -3.76 0z" fill="black"></path>
            <path d="M1355.62 952.5 a1.88 1.88 0 1 0 3.76 0 a1.88 1.88 0 1 0 -3.76 0zM1370.62 937.5 a1.88 1.88 0 1 0 3.76 0 a1.88 1.88 0 1 0 -3.76 0z" fill="black"></path>
            <path d="M530.62 787.5 a1.88 1.88 0 1 0 3.76 0 a1.88 1.88 0 1 0 -3.76 0zM515.62 802.5 a1.88 1.88 0 1 0 3.76 0 a1.88 1.88 0 1 0 -3.76 0zM515.62 817.5 a1.88 1.88 0 1 0 3.76 0 a1.88 1.88 0 1 0 -3.76 0zM545.62 907.5 a1.88 1.88 0 1 0 3.76 0 a1.88 1.88 0 1 0 -3.76 0zM545.62 922.5 a1.88 1.88 0 1 0 3.76 0 a1.88 1.88 0 1 0 -3.76 0z" fill="black"></path>
            <path d="M1340.62 1087.5 a1.88 1.88 0 1 0 3.76 0 a1.88 1.88 0 1 0 -3.76 0z" fill="black"></path>
            <path d="M515.62 787.5 a1.88 1.88 0 1 0 3.76 0 a1.88 1.88 0 1 0 -3.76 0zM515.62 847.5 a1.88 1.88 0 1 0 3.76 0 a1.88 1.88 0 1 0 -3.76 0z" fill="black"></path>
            <path d="M455.62 412.5 a1.88 1.88 0 1 0 3.76 0 a1.88 1.88 0 1 0 -3.76 0zM500.62 712.5 a1.88 1.88 0 1 0 3.76 0 a1.88 1.88 0 1 0 -3.76 0zM470.62 277.5 a1.88 1.88 0 1 0 3.76 0 a1.88 1.88 0 1 0 -3.76 0zM470.62 667.5 a1.88 1.88 0 1 0 3.76 0 a1.88 1.88 0 1 0 -3.76 0zM515.62 742.5 a1.88 1.88 0 1 0 3.76 0 a1.88 1.88 0 1 0 -3.76 0zM470.62 697.5 a1.88 1.88 0 1 0 3.76 0 a1.88 1.88 0 1 0 -3.76 0zM485.62 862.5 a1.88 1.88 0 1 0 3.76 0 a1.88 1.88 0 1 0 -3.76 0zM500.62 352.5 a1.88 1.88 0 1 0 3.76 0 a1.88 1.88 0 1 0 -3.76 0zM425.62 292.5 a1.88 1.88 0 1 0 3.76 0 a1.88 1.88 0 1 0 -3.76 0zM500.62 592.5 a1.88 1.88 0 1 0 3.76 0 a1.88 1.88 0 1 0 -3.76 0zM485.62 397.5 a1.88 1.88 0 1 0 3.76 0 a1.88 1.88 0 1 0 -3.76 0zM515.62 562.5 a1.88 1.88 0 1 0 3.76 0 a1.88 1.88 0 1 0 -3.76 0z" fill="black"></path>
            <path d="M1445.62 607.5 a1.88 1.88 0 1 0 3.76 0 a1.88 1.88 0 1 0 -3.76 0zM1430.62 607.5 a1.88 1.88 0 1 0 3.76 0 a1.88 1.88 0 1 0 -3.76 0zM1430.62 622.5 a1.88 1.88 0 1 0 3.76 0 a1.88 1.88 0 1 0 -3.76 0z" fill="black"></path>
            <path d="M455.62 592.5 a1.88 1.88 0 1 0 3.76 0 a1.88 1.88 0 1 0 -3.76 0zM470.62 712.5 a1.88 1.88 0 1 0 3.76 0 a1.88 1.88 0 1 0 -3.76 0zM440.62 667.5 a1.88 1.88 0 1 0 3.76 0 a1.88 1.88 0 1 0 -3.76 0zM485.62 892.5 a1.88 1.88 0 1 0 3.76 0 a1.88 1.88 0 1 0 -3.76 0zM470.62 607.5 a1.88 1.88 0 1 0 3.76 0 a1.88 1.88 0 1 0 -3.76 0zM470.62 637.5 a1.88 1.88 0 1 0 3.76 0 a1.88 1.88 0 1 0 -3.76 0z" fill="black"></path>
            <path d="M1445.62 307.5 a1.88 1.88 0 1 0 3.76 0 a1.88 1.88 0 1 0 -3.76 0zM1460.62 547.5 a1.88 1.88 0 1 0 3.76 0 a1.88 1.88 0 1 0 -3.76 0zM1430.62 262.5 a1.88 1.88 0 1 0 3.76 0 a1.88 1.88 0 1 0 -3.76 0zM1445.62 382.5 a1.88 1.88 0 1 0 3.76 0 a1.88 1.88 0 1 0 -3.76 0zM1415.62 922.5 a1.88 1.88 0 1 0 3.76 0 a1.88 1.88 0 1 0 -3.76 0zM1460.62 502.5 a1.88 1.88 0 1 0 3.76 0 a1.88 1.88 0 1 0 -3.76 0zM1475.62 292.5 a1.88 1.88 0 1 0 3.76 0 a1.88 1.88 0 1 0 -3.76 0zM1460.62 442.5 a1.88 1.88 0 1 0 3.76 0 a1.88 1.88 0 1 0 -3.76 0zM1430.62 787.5 a1.88 1.88 0 1 0 3.76 0 a1.88 1.88 0 1 0 -3.76 0zM1475.62 382.5 a1.88 1.88 0 1 0 3.76 0 a1.88 1.88 0 1 0 -3.76 0zM1430.62 397.5 a1.88 1.88 0 1 0 3.76 0 a1.88 1.88 0 1 0 -3.76 0zM1460.62 457.5 a1.88 1.88 0 1 0 3.76 0 a1.88 1.88 0 1 0 -3.76 0zM1445.62 727.5 a1.88 1.88 0 1 0 3.76 0 a1.88 1.88 0 1 0 -3.76 0zM1445.62 757.5 a1.88 1.88 0 1 0 3.76 0 a1.88 1.88 0 1 0 -3.76 0z" fill="black"></path>
            <path d="M545.62 1087.5 a1.88 1.88 0 1 0 3.76 0 a1.88 1.88 0 1 0 -3.76 0z" fill="black"></path>
            <path d="M1400.62 1012.5 a1.88 1.88 0 1 0 3.76 0 a1.88 1.88 0 1 0 -3.76 0zM1385.62 1057.5 a1.88 1.88 0 1 0 3.76 0 a1.88 1.88 0 1 0 -3.76 0zM1385.62 1072.5 a1.88 1.88 0 1 0 3.76 0 a1.88 1.88 0 1 0 -3.76 0z" fill="black"></path>
            <path d="M410.62 427.5 a1.88 1.88 0 1 0 3.76 0 a1.88 1.88 0 1 0 -3.76 0zM380.62 352.5 a1.88 1.88 0 1 0 3.76 0 a1.88 1.88 0 1 0 -3.76 0zM425.62 367.5 a1.88 1.88 0 1 0 3.76 0 a1.88 1.88 0 1 0 -3.76 0zM440.62 457.5 a1.88 1.88 0 1 0 3.76 0 a1.88 1.88 0 1 0 -3.76 0zM440.62 742.5 a1.88 1.88 0 1 0 3.76 0 a1.88 1.88 0 1 0 -3.76 0zM395.62 472.5 a1.88 1.88 0 1 0 3.76 0 a1.88 1.88 0 1 0 -3.76 0zM440.62 802.5 a1.88 1.88 0 1 0 3.76 0 a1.88 1.88 0 1 0 -3.76 0zM395.62 577.5 a1.88 1.88 0 1 0 3.76 0 a1.88 1.88 0 1 0 -3.76 0zM410.62 622.5 a1.88 1.88 0 1 0 3.76 0 a1.88 1.88 0 1 0 -3.76 0zM440.62 682.5 a1.88 1.88 0 1 0 3.76 0 a1.88 1.88 0 1 0 -3.76 0zM440.62 772.5 a1.88 1.88 0 1 0 3.76 0 a1.88 1.88 0 1 0 -3.76 0zM455.62 517.5 a1.88 1.88 0 1 0 3.76 0 a1.88 1.88 0 1 0 -3.76 0z" fill="black"></path>
            <path d="M1415.62 1027.5 a1.88 1.88 0 1 0 3.76 0 a1.88 1.88 0 1 0 -3.76 0z" fill="black"></path>
            <path d="M365.62 412.5 a1.88 1.88 0 1 0 3.76 0 a1.88 1.88 0 1 0 -3.76 0zM350.62 487.5 a1.88 1.88 0 1 0 3.76 0 a1.88 1.88 0 1 0 -3.76 0zM365.62 592.5 a1.88 1.88 0 1 0 3.76 0 a1.88 1.88 0 1 0 -3.76 0zM440.62 817.5 a1.88 1.88 0 1 0 3.76 0 a1.88 1.88 0 1 0 -3.76 0zM395.62 667.5 a1.88 1.88 0 1 0 3.76 0 a1.88 1.88 0 1 0 -3.76 0zM335.62 292.5 a1.88 1.88 0 1 0 3.76 0 a1.88 1.88 0 1 0 -3.76 0zM380.62 397.5 a1.88 1.88 0 1 0 3.76 0 a1.88 1.88 0 1 0 -3.76 0zM395.62 682.5 a1.88 1.88 0 1 0 3.76 0 a1.88 1.88 0 1 0 -3.76 0zM335.62 442.5 a1.88 1.88 0 1 0 3.76 0 a1.88 1.88 0 1 0 -3.76 0zM380.62 427.5 a1.88 1.88 0 1 0 3.76 0 a1.88 1.88 0 1 0 -3.76 0z" fill="black"></path>
            <path d="M1475.62 412.5 a1.88 1.88 0 1 0 3.76 0 a1.88 1.88 0 1 0 -3.76 0zM1445.62 817.5 a1.88 1.88 0 1 0 3.76 0 a1.88 1.88 0 1 0 -3.76 0zM1490.62 532.5 a1.88 1.88 0 1 0 3.76 0 a1.88 1.88 0 1 0 -3.76 0zM1430.62 967.5 a1.88 1.88 0 1 0 3.76 0 a1.88 1.88 0 1 0 -3.76 0zM1505.62 352.5 a1.88 1.88 0 1 0 3.76 0 a1.88 1.88 0 1 0 -3.76 0zM1445.62 832.5 a1.88 1.88 0 1 0 3.76 0 a1.88 1.88 0 1 0 -3.76 0zM1445.62 1012.5 a1.88 1.88 0 1 0 3.76 0 a1.88 1.88 0 1 0 -3.76 0zM1445.62 862.5 a1.88 1.88 0 1 0 3.76 0 a1.88 1.88 0 1 0 -3.76 0zM1475.62 682.5 a1.88 1.88 0 1 0 3.76 0 a1.88 1.88 0 1 0 -3.76 0zM1445.62 877.5 a1.88 1.88 0 1 0 3.76 0 a1.88 1.88 0 1 0 -3.76 0zM1475.62 727.5 a1.88 1.88 0 1 0 3.76 0 a1.88 1.88 0 1 0 -3.76 0zM1460.62 472.5 a1.88 1.88 0 1 0 3.76 0 a1.88 1.88 0 1 0 -3.76 0z" fill="black"></path>
            <path d="M395.62 712.5 a1.88 1.88 0 1 0 3.76 0 a1.88 1.88 0 1 0 -3.76 0zM410.62 712.5 a1.88 1.88 0 1 0 3.76 0 a1.88 1.88 0 1 0 -3.76 0zM395.62 727.5 a1.88 1.88 0 1 0 3.76 0 a1.88 1.88 0 1 0 -3.76 0zM395.62 772.5 a1.88 1.88 0 1 0 3.76 0 a1.88 1.88 0 1 0 -3.76 0z" fill="black"></path>
            <path d="M1505.62 592.5 a1.88 1.88 0 1 0 3.76 0 a1.88 1.88 0 1 0 -3.76 0zM1490.62 652.5 a1.88 1.88 0 1 0 3.76 0 a1.88 1.88 0 1 0 -3.76 0zM1505.62 667.5 a1.88 1.88 0 1 0 3.76 0 a1.88 1.88 0 1 0 -3.76 0zM1475.62 952.5 a1.88 1.88 0 1 0 3.76 0 a1.88 1.88 0 1 0 -3.76 0zM1505.62 787.5 a1.88 1.88 0 1 0 3.76 0 a1.88 1.88 0 1 0 -3.76 0zM1520.62 562.5 a1.88 1.88 0 1 0 3.76 0 a1.88 1.88 0 1 0 -3.76 0zM1490.62 967.5 a1.88 1.88 0 1 0 3.76 0 a1.88 1.88 0 1 0 -3.76 0zM1535.62 577.5 a1.88 1.88 0 1 0 3.76 0 a1.88 1.88 0 1 0 -3.76 0zM1490.62 787.5 a1.88 1.88 0 1 0 3.76 0 a1.88 1.88 0 1 0 -3.76 0z" fill="black"></path>
            <path d="M380.62 652.5 a1.88 1.88 0 1 0 3.76 0 a1.88 1.88 0 1 0 -3.76 0zM350.62 697.5 a1.88 1.88 0 1 0 3.76 0 a1.88 1.88 0 1 0 -3.76 0zM395.62 877.5 a1.88 1.88 0 1 0 3.76 0 a1.88 1.88 0 1 0 -3.76 0zM440.62 997.5 a1.88 1.88 0 1 0 3.76 0 a1.88 1.88 0 1 0 -3.76 0zM365.62 652.5 a1.88 1.88 0 1 0 3.76 0 a1.88 1.88 0 1 0 -3.76 0zM365.62 787.5 a1.88 1.88 0 1 0 3.76 0 a1.88 1.88 0 1 0 -3.76 0zM395.62 892.5 a1.88 1.88 0 1 0 3.76 0 a1.88 1.88 0 1 0 -3.76 0zM395.62 907.5 a1.88 1.88 0 1 0 3.76 0 a1.88 1.88 0 1 0 -3.76 0z" fill="black"></path>
        </mask>
    </defs>
</svg>