<svg xmlns="http://www.w3.org/2000/svg" version="1.1" xmlns:xlink="http://www.w3.org/1999/xlink" xmlns:svgjs="http://svgjs.com/svgjs" width="1920" height="50" preserveAspectRatio="none" viewBox="0 0 1920 50">
    <g mask="url(&quot;#SvgjsMask1030&quot;)" fill="none">
        <rect width="1920" height="50" x="0" y="0" fill="rgba(249, 249, 249, 1)"></rect>
        <g>
            <path d="M975 35L975 5" stroke-width="1.67" stroke="rgba(218, 165, 32, 1)"></path>
            <path d="M973.33 35 a1.67 1.67 0 1 0 3.34 0 a1.67 1.67 0 1 0 -3.34 0zM973.33 5 a1.67 1.67 0 1 0 3.34 0 a1.67 1.67 0 1 0 -3.34 0z" fill="rgba(218, 165, 32, 1)"></path>
            <path d="M575 45L565 35L555 35L545 25L545 5" stroke-width="1.67" stroke="rgba(218, 165, 32, 1)"></path>
            <path d="M573.33 45 a1.67 1.67 0 1 0 3.34 0 a1.67 1.67 0 1 0 -3.34 0zM543.33 5 a1.67 1.67 0 1 0 3.34 0 a1.67 1.67 0 1 0 -3.34 0z" fill="rgba(218, 165, 32, 1)"></path>
            <path d="M955 15L945 5L765 5" stroke-width="1.67" stroke="rgba(218, 165, 32, 1)"></path>
            <path d="M953.33 15 a1.67 1.67 0 1 0 3.34 0 a1.67 1.67 0 1 0 -3.34 0zM763.33 5 a1.67 1.67 0 1 0 3.34 0 a1.67 1.67 0 1 0 -3.34 0z" fill="rgba(218, 165, 32, 1)"></path>
            <path d="M1145 45L1155 35L1155 5" stroke-width="1.67" stroke="rgba(218, 165, 32, 1)"></path>
            <path d="M1143.33 45 a1.67 1.67 0 1 0 3.34 0 a1.67 1.67 0 1 0 -3.34 0zM1153.33 5 a1.67 1.67 0 1 0 3.34 0 a1.67 1.67 0 1 0 -3.34 0z" fill="rgba(218, 165, 32, 1)"></path>
            <path d="M395 5L425 35L475 35L485 45L565 45" stroke-width="1.67" stroke="rgba(218, 165, 32, 1)"></path>
            <path d="M393.33 5 a1.67 1.67 0 1 0 3.34 0 a1.67 1.67 0 1 0 -3.34 0zM563.33 45 a1.67 1.67 0 1 0 3.34 0 a1.67 1.67 0 1 0 -3.34 0z" fill="rgba(218, 165, 32, 1)"></path>
            <path d="M1365 15L1335 45L1175 45" stroke-width="1.67" stroke="rgba(218, 165, 32, 1)"></path>
            <path d="M1363.33 15 a1.67 1.67 0 1 0 3.34 0 a1.67 1.67 0 1 0 -3.34 0zM1173.33 45 a1.67 1.67 0 1 0 3.34 0 a1.67 1.67 0 1 0 -3.34 0z" fill="rgba(218, 165, 32, 1)"></path>
            <path d="M1875 15L1685 15" stroke-width="1.67" stroke="rgba(218, 165, 32, 1)"></path>
            <path d="M1873.33 15 a1.67 1.67 0 1 0 3.34 0 a1.67 1.67 0 1 0 -3.34 0zM1683.33 15 a1.67 1.67 0 1 0 3.34 0 a1.67 1.67 0 1 0 -3.34 0z" fill="rgba(218, 165, 32, 1)"></path>
            <path d="M255 15L265 5L285 5L325 45L335 45L355 25L405 25L425 45L445 45" stroke-width="1.67" stroke="rgba(218, 165, 32, 1)"></path>
            <path d="M253.33 15 a1.67 1.67 0 1 0 3.34 0 a1.67 1.67 0 1 0 -3.34 0zM443.33 45 a1.67 1.67 0 1 0 3.34 0 a1.67 1.67 0 1 0 -3.34 0z" fill="rgba(218, 165, 32, 1)"></path>
            <path d="M1825 25L1685 25L1675 35L1675 45" stroke-width="1.67" stroke="rgba(218, 165, 32, 1)"></path>
            <path d="M1823.33 25 a1.67 1.67 0 1 0 3.34 0 a1.67 1.67 0 1 0 -3.34 0zM1673.33 45 a1.67 1.67 0 1 0 3.34 0 a1.67 1.67 0 1 0 -3.34 0z" fill="rgba(218, 165, 32, 1)"></path>
            <path d="M655 45L755 45L785 15L845 15" stroke-width="1.67" stroke="rgba(218, 165, 32, 1)"></path>
            <path d="M653.33 45 a1.67 1.67 0 1 0 3.34 0 a1.67 1.67 0 1 0 -3.34 0zM843.33 15 a1.67 1.67 0 1 0 3.34 0 a1.67 1.67 0 1 0 -3.34 0z" fill="rgba(218, 165, 32, 1)"></path>
            <path d="M1495 15L1455 15L1425 45L1345 45" stroke-width="1.67" stroke="rgba(218, 165, 32, 1)"></path>
            <path d="M1493.33 15 a1.67 1.67 0 1 0 3.34 0 a1.67 1.67 0 1 0 -3.34 0zM1343.33 45 a1.67 1.67 0 1 0 3.34 0 a1.67 1.67 0 1 0 -3.34 0z" fill="rgba(218, 165, 32, 1)"></path>
            <path d="M365 15L355 5L295 5" stroke-width="1.67" stroke="rgba(218, 165, 32, 1)"></path>
            <path d="M363.33 15 a1.67 1.67 0 1 0 3.34 0 a1.67 1.67 0 1 0 -3.34 0zM293.33 5 a1.67 1.67 0 1 0 3.34 0 a1.67 1.67 0 1 0 -3.34 0z" fill="rgba(218, 165, 32, 1)"></path>
            <path d="M855 15L885 45L905 45L935 15L945 15L975 45L1005 45L1045 5" stroke-width="1.67" stroke="rgba(218, 165, 32, 1)"></path>
            <path d="M853.33 15 a1.67 1.67 0 1 0 3.34 0 a1.67 1.67 0 1 0 -3.34 0zM1043.33 5 a1.67 1.67 0 1 0 3.34 0 a1.67 1.67 0 1 0 -3.34 0z" fill="rgba(218, 165, 32, 1)"></path>
            <path d="M485 15L475 25L425 25L405 5" stroke-width="1.67" stroke="rgba(218, 165, 32, 1)"></path>
            <path d="M483.33 15 a1.67 1.67 0 1 0 3.34 0 a1.67 1.67 0 1 0 -3.34 0zM403.33 5 a1.67 1.67 0 1 0 3.34 0 a1.67 1.67 0 1 0 -3.34 0z" fill="rgba(218, 165, 32, 1)"></path>
            <path d="M1435 45L1495 45L1535 5L1625 5" stroke-width="1.67" stroke="rgba(218, 165, 32, 1)"></path>
            <path d="M1433.33 45 a1.67 1.67 0 1 0 3.34 0 a1.67 1.67 0 1 0 -3.34 0zM1623.33 5 a1.67 1.67 0 1 0 3.34 0 a1.67 1.67 0 1 0 -3.34 0z" fill="rgba(218, 165, 32, 1)"></path>
            <path d="M855 25L835 45L765 45" stroke-width="1.67" stroke="rgba(218, 165, 32, 1)"></path>
            <path d="M853.33 25 a1.67 1.67 0 1 0 3.34 0 a1.67 1.67 0 1 0 -3.34 0zM763.33 45 a1.67 1.67 0 1 0 3.34 0 a1.67 1.67 0 1 0 -3.34 0z" fill="rgba(218, 165, 32, 1)"></path>
            <path d="M435 15L425 15L415 5" stroke-width="1.67" stroke="rgba(218, 165, 32, 1)"></path>
            <path d="M433.33 15 a1.67 1.67 0 1 0 3.34 0 a1.67 1.67 0 1 0 -3.34 0zM413.33 5 a1.67 1.67 0 1 0 3.34 0 a1.67 1.67 0 1 0 -3.34 0z" fill="rgba(218, 165, 32, 1)"></path>
            <path d="M325 25L315 15L305 15" stroke-width="1.67" stroke="rgba(218, 165, 32, 1)"></path>
            <path d="M323.33 25 a1.67 1.67 0 1 0 3.34 0 a1.67 1.67 0 1 0 -3.34 0zM303.33 15 a1.67 1.67 0 1 0 3.34 0 a1.67 1.67 0 1 0 -3.34 0z" fill="rgba(218, 165, 32, 1)"></path>
            <path d="M125 5L125 45" stroke-width="1.67" stroke="rgba(218, 165, 32, 1)"></path>
            <path d="M123.33 5 a1.67 1.67 0 1 0 3.34 0 a1.67 1.67 0 1 0 -3.34 0zM123.33 45 a1.67 1.67 0 1 0 3.34 0 a1.67 1.67 0 1 0 -3.34 0z" fill="rgba(218, 165, 32, 1)"></path>
            <path d="M1795 5L1635 5L1605 35" stroke-width="1.67" stroke="rgba(218, 165, 32, 1)"></path>
            <path d="M1793.33 5 a1.67 1.67 0 1 0 3.34 0 a1.67 1.67 0 1 0 -3.34 0zM1603.33 35 a1.67 1.67 0 1 0 3.34 0 a1.67 1.67 0 1 0 -3.34 0z" fill="rgba(218, 165, 32, 1)"></path>
            <path d="M445 5L535 5" stroke-width="1.67" stroke="rgba(218, 165, 32, 1)"></path>
            <path d="M443.33 5 a1.67 1.67 0 1 0 3.34 0 a1.67 1.67 0 1 0 -3.34 0zM533.33 5 a1.67 1.67 0 1 0 3.34 0 a1.67 1.67 0 1 0 -3.34 0z" fill="rgba(218, 165, 32, 1)"></path>
            <path d="M525 25L515 35L485 35" stroke-width="1.67" stroke="rgba(218, 165, 32, 1)"></path>
            <path d="M523.33 25 a1.67 1.67 0 1 0 3.34 0 a1.67 1.67 0 1 0 -3.34 0zM483.33 35 a1.67 1.67 0 1 0 3.34 0 a1.67 1.67 0 1 0 -3.34 0z" fill="rgba(218, 165, 32, 1)"></path>
            <path d="M1275 35L1165 35L1155 45" stroke-width="1.67" stroke="rgba(218, 165, 32, 1)"></path>
            <path d="M1273.33 35 a1.67 1.67 0 1 0 3.34 0 a1.67 1.67 0 1 0 -3.34 0zM1153.33 45 a1.67 1.67 0 1 0 3.34 0 a1.67 1.67 0 1 0 -3.34 0z" fill="rgba(218, 165, 32, 1)"></path>
            <path d="M785 25L795 35L835 35L845 25" stroke-width="1.67" stroke="rgba(218, 165, 32, 1)"></path>
            <path d="M783.33 25 a1.67 1.67 0 1 0 3.34 0 a1.67 1.67 0 1 0 -3.34 0zM843.33 25 a1.67 1.67 0 1 0 3.34 0 a1.67 1.67 0 1 0 -3.34 0z" fill="rgba(218, 165, 32, 1)"></path>
            <path d="M715 15L685 15L675 5L585 5L565 25L555 25" stroke-width="1.67" stroke="rgba(218, 165, 32, 1)"></path>
            <path d="M713.33 15 a1.67 1.67 0 1 0 3.34 0 a1.67 1.67 0 1 0 -3.34 0zM553.33 25 a1.67 1.67 0 1 0 3.34 0 a1.67 1.67 0 1 0 -3.34 0z" fill="rgba(218, 165, 32, 1)"></path>
            <path d="M155 15L135 35L135 45" stroke-width="1.67" stroke="rgba(218, 165, 32, 1)"></path>
            <path d="M153.33 15 a1.67 1.67 0 1 0 3.34 0 a1.67 1.67 0 1 0 -3.34 0zM133.33 45 a1.67 1.67 0 1 0 3.34 0 a1.67 1.67 0 1 0 -3.34 0z" fill="rgba(218, 165, 32, 1)"></path>
            <path d="M385 15L375 15L365 5" stroke-width="1.67" stroke="rgba(218, 165, 32, 1)"></path>
            <path d="M383.33 15 a1.67 1.67 0 1 0 3.34 0 a1.67 1.67 0 1 0 -3.34 0zM363.33 5 a1.67 1.67 0 1 0 3.34 0 a1.67 1.67 0 1 0 -3.34 0z" fill="rgba(218, 165, 32, 1)"></path>
            <path d="M1085 5L1055 5L1015 45" stroke-width="1.67" stroke="rgba(218, 165, 32, 1)"></path>
            <path d="M1083.33 5 a1.67 1.67 0 1 0 3.34 0 a1.67 1.67 0 1 0 -3.34 0zM1013.33 45 a1.67 1.67 0 1 0 3.34 0 a1.67 1.67 0 1 0 -3.34 0z" fill="rgba(218, 165, 32, 1)"></path>
            <path d="M1045 35L1035 35L1025 45" stroke-width="1.67" stroke="rgba(218, 165, 32, 1)"></path>
            <path d="M1043.33 35 a1.67 1.67 0 1 0 3.34 0 a1.67 1.67 0 1 0 -3.34 0zM1023.33 45 a1.67 1.67 0 1 0 3.34 0 a1.67 1.67 0 1 0 -3.34 0z" fill="rgba(218, 165, 32, 1)"></path>
            <path d="M35 35L115 35" stroke-width="1.67" stroke="rgba(218, 165, 32, 1)"></path>
            <path d="M33.33 35 a1.67 1.67 0 1 0 3.34 0 a1.67 1.67 0 1 0 -3.34 0zM113.33 35 a1.67 1.67 0 1 0 3.34 0 a1.67 1.67 0 1 0 -3.34 0z" fill="rgba(218, 165, 32, 1)"></path>
            <path d="M1395 5L1235 5L1215 25L1205 25" stroke-width="1.67" stroke="rgba(218, 165, 32, 1)"></path>
            <path d="M1393.33 5 a1.67 1.67 0 1 0 3.34 0 a1.67 1.67 0 1 0 -3.34 0zM1203.33 25 a1.67 1.67 0 1 0 3.34 0 a1.67 1.67 0 1 0 -3.34 0z" fill="rgba(218, 165, 32, 1)"></path>
            <path d="M1905 45L1895 35L1715 35" stroke-width="1.67" stroke="rgba(218, 165, 32, 1)"></path>
            <path d="M1903.33 45 a1.67 1.67 0 1 0 3.34 0 a1.67 1.67 0 1 0 -3.34 0zM1713.33 35 a1.67 1.67 0 1 0 3.34 0 a1.67 1.67 0 1 0 -3.34 0z" fill="rgba(218, 165, 32, 1)"></path>
            <path d="M1045 45L1075 15L1085 15L1115 45L1135 45L1145 35L1145 5" stroke-width="1.67" stroke="rgba(218, 165, 32, 1)"></path>
            <path d="M1043.33 45 a1.67 1.67 0 1 0 3.34 0 a1.67 1.67 0 1 0 -3.34 0zM1143.33 5 a1.67 1.67 0 1 0 3.34 0 a1.67 1.67 0 1 0 -3.34 0z" fill="rgba(218, 165, 32, 1)"></path>
            <path d="M595 45L625 15L675 15L695 35L755 35" stroke-width="1.67" stroke="rgba(218, 165, 32, 1)"></path>
            <path d="M593.33 45 a1.67 1.67 0 1 0 3.34 0 a1.67 1.67 0 1 0 -3.34 0zM753.33 35 a1.67 1.67 0 1 0 3.34 0 a1.67 1.67 0 1 0 -3.34 0z" fill="rgba(218, 165, 32, 1)"></path>
            <path d="M1655 45L1675 25L1675 15" stroke-width="1.67" stroke="rgba(218, 165, 32, 1)"></path>
            <path d="M1653.33 45 a1.67 1.67 0 1 0 3.34 0 a1.67 1.67 0 1 0 -3.34 0zM1673.33 15 a1.67 1.67 0 1 0 3.34 0 a1.67 1.67 0 1 0 -3.34 0z" fill="rgba(218, 165, 32, 1)"></path>
            <path d="M745 5L745 25" stroke-width="1.67" stroke="rgba(218, 165, 32, 1)"></path>
            <path d="M743.33 5 a1.67 1.67 0 1 0 3.34 0 a1.67 1.67 0 1 0 -3.34 0zM743.33 25 a1.67 1.67 0 1 0 3.34 0 a1.67 1.67 0 1 0 -3.34 0z" fill="rgba(218, 165, 32, 1)"></path>
            <path d="M1125 5L1095 5" stroke-width="1.67" stroke="rgba(218, 165, 32, 1)"></path>
            <path d="M1123.33 5 a1.67 1.67 0 1 0 3.34 0 a1.67 1.67 0 1 0 -3.34 0zM1093.33 5 a1.67 1.67 0 1 0 3.34 0 a1.67 1.67 0 1 0 -3.34 0z" fill="rgba(218, 165, 32, 1)"></path>
            <path d="M1435 15L1445 5L1525 5" stroke-width="1.67" stroke="rgba(218, 165, 32, 1)"></path>
            <path d="M1433.33 15 a1.67 1.67 0 1 0 3.34 0 a1.67 1.67 0 1 0 -3.34 0zM1523.33 5 a1.67 1.67 0 1 0 3.34 0 a1.67 1.67 0 1 0 -3.34 0z" fill="rgba(218, 165, 32, 1)"></path>
            <path d="M235 35L285 35L295 25" stroke-width="1.67" stroke="rgba(218, 165, 32, 1)"></path>
            <path d="M233.33 35 a1.67 1.67 0 1 0 3.34 0 a1.67 1.67 0 1 0 -3.34 0zM293.33 25 a1.67 1.67 0 1 0 3.34 0 a1.67 1.67 0 1 0 -3.34 0z" fill="rgba(218, 165, 32, 1)"></path>
            <path d="M1475 35L1445 35" stroke-width="1.67" stroke="rgba(218, 165, 32, 1)"></path>
            <path d="M1473.33 35 a1.67 1.67 0 1 0 3.34 0 a1.67 1.67 0 1 0 -3.34 0zM1443.33 35 a1.67 1.67 0 1 0 3.34 0 a1.67 1.67 0 1 0 -3.34 0z" fill="rgba(218, 165, 32, 1)"></path>
            <path d="M195 45L185 35L145 35" stroke-width="1.67" stroke="rgba(218, 165, 32, 1)"></path>
            <path d="M193.33 45 a1.67 1.67 0 1 0 3.34 0 a1.67 1.67 0 1 0 -3.34 0zM143.33 35 a1.67 1.67 0 1 0 3.34 0 a1.67 1.67 0 1 0 -3.34 0z" fill="rgba(218, 165, 32, 1)"></path>
            <path d="M685 35L615 35L605 45" stroke-width="1.67" stroke="rgba(218, 165, 32, 1)"></path>
            <path d="M683.33 35 a1.67 1.67 0 1 0 3.34 0 a1.67 1.67 0 1 0 -3.34 0zM603.33 45 a1.67 1.67 0 1 0 3.34 0 a1.67 1.67 0 1 0 -3.34 0z" fill="rgba(218, 165, 32, 1)"></path>
            <path d="M1135 15L1095 15" stroke-width="1.67" stroke="rgba(218, 165, 32, 1)"></path>
            <path d="M1133.33 15 a1.67 1.67 0 1 0 3.34 0 a1.67 1.67 0 1 0 -3.34 0zM1093.33 15 a1.67 1.67 0 1 0 3.34 0 a1.67 1.67 0 1 0 -3.34 0z" fill="rgba(218, 165, 32, 1)"></path>
            <path d="M285 25L215 25L205 35L205 45" stroke-width="1.67" stroke="rgba(218, 165, 32, 1)"></path>
            <path d="M283.33 25 a1.67 1.67 0 1 0 3.34 0 a1.67 1.67 0 1 0 -3.34 0zM203.33 45 a1.67 1.67 0 1 0 3.34 0 a1.67 1.67 0 1 0 -3.34 0z" fill="rgba(218, 165, 32, 1)"></path>
            <path d="M585 15L585 45" stroke-width="1.67" stroke="rgba(218, 165, 32, 1)"></path>
            <path d="M583.33 15 a1.67 1.67 0 1 0 3.34 0 a1.67 1.67 0 1 0 -3.34 0zM583.33 45 a1.67 1.67 0 1 0 3.34 0 a1.67 1.67 0 1 0 -3.34 0z" fill="rgba(218, 165, 32, 1)"></path>
            <path d="M1005 35L1015 25L1015 5" stroke-width="1.67" stroke="rgba(218, 165, 32, 1)"></path>
            <path d="M1003.33 35 a1.67 1.67 0 1 0 3.34 0 a1.67 1.67 0 1 0 -3.34 0zM1013.33 5 a1.67 1.67 0 1 0 3.34 0 a1.67 1.67 0 1 0 -3.34 0z" fill="rgba(218, 165, 32, 1)"></path>
            <path d="M935 25L925 35L925 45" stroke-width="1.67" stroke="rgba(218, 165, 32, 1)"></path>
            <path d="M933.33 25 a1.67 1.67 0 1 0 3.34 0 a1.67 1.67 0 1 0 -3.34 0zM923.33 45 a1.67 1.67 0 1 0 3.34 0 a1.67 1.67 0 1 0 -3.34 0z" fill="rgba(218, 165, 32, 1)"></path>
            <path d="M1595 35L1575 15L1535 15L1505 45" stroke-width="1.67" stroke="rgba(218, 165, 32, 1)"></path>
            <path d="M1593.33 35 a1.67 1.67 0 1 0 3.34 0 a1.67 1.67 0 1 0 -3.34 0zM1503.33 45 a1.67 1.67 0 1 0 3.34 0 a1.67 1.67 0 1 0 -3.34 0z" fill="rgba(218, 165, 32, 1)"></path>
            <path d="M5 35L25 35L55 5L85 5L105 25L115 25" stroke-width="1.67" stroke="rgba(218, 165, 32, 1)"></path>
            <path d="M3.33 35 a1.67 1.67 0 1 0 3.34 0 a1.67 1.67 0 1 0 -3.34 0zM113.33 25 a1.67 1.67 0 1 0 3.34 0 a1.67 1.67 0 1 0 -3.34 0z" fill="rgba(218, 165, 32, 1)"></path>
            <path d="M195 35L195 5" stroke-width="1.67" stroke="rgba(218, 165, 32, 1)"></path>
            <path d="M193.33 35 a1.67 1.67 0 1 0 3.34 0 a1.67 1.67 0 1 0 -3.34 0zM193.33 5 a1.67 1.67 0 1 0 3.34 0 a1.67 1.67 0 1 0 -3.34 0z" fill="rgba(218, 165, 32, 1)"></path>
            <path d="M1875 5L1895 25L1905 25L1915 15L1915 5" stroke-width="1.67" stroke="rgba(218, 165, 32, 1)"></path>
            <path d="M1873.33 5 a1.67 1.67 0 1 0 3.34 0 a1.67 1.67 0 1 0 -3.34 0zM1913.33 5 a1.67 1.67 0 1 0 3.34 0 a1.67 1.67 0 1 0 -3.34 0z" fill="rgba(218, 165, 32, 1)"></path>
            <path d="M115 45L5 45" stroke-width="1.67" stroke="rgba(218, 165, 32, 1)"></path>
            <path d="M113.33 45 a1.67 1.67 0 1 0 3.34 0 a1.67 1.67 0 1 0 -3.34 0zM3.33 45 a1.67 1.67 0 1 0 3.34 0 a1.67 1.67 0 1 0 -3.34 0z" fill="rgba(218, 165, 32, 1)"></path>
            <path d="M665 25L625 25" stroke-width="1.67" stroke="rgba(218, 165, 32, 1)"></path>
            <path d="M663.33 25 a1.67 1.67 0 1 0 3.34 0 a1.67 1.67 0 1 0 -3.34 0zM623.33 25 a1.67 1.67 0 1 0 3.34 0 a1.67 1.67 0 1 0 -3.34 0z" fill="rgba(218, 165, 32, 1)"></path>
            <path d="M1545 45L1545 25" stroke-width="1.67" stroke="rgba(218, 165, 32, 1)"></path>
            <path d="M1543.33 45 a1.67 1.67 0 1 0 3.34 0 a1.67 1.67 0 1 0 -3.34 0zM1543.33 25 a1.67 1.67 0 1 0 3.34 0 a1.67 1.67 0 1 0 -3.34 0z" fill="rgba(218, 165, 32, 1)"></path>
            <path d="M1535 35L1525 45L1515 45" stroke-width="1.67" stroke="rgba(218, 165, 32, 1)"></path>
            <path d="M1533.33 35 a1.67 1.67 0 1 0 3.34 0 a1.67 1.67 0 1 0 -3.34 0zM1513.33 45 a1.67 1.67 0 1 0 3.34 0 a1.67 1.67 0 1 0 -3.34 0z" fill="rgba(218, 165, 32, 1)"></path>
            <path d="M1635 15L1665 15" stroke-width="1.67" stroke="rgba(218, 165, 32, 1)"></path>
            <path d="M1633.33 15 a1.67 1.67 0 1 0 3.34 0 a1.67 1.67 0 1 0 -3.34 0zM1663.33 15 a1.67 1.67 0 1 0 3.34 0 a1.67 1.67 0 1 0 -3.34 0z" fill="rgba(218, 165, 32, 1)"></path>
            <path d="M1485 35L1475 25L1455 25" stroke-width="1.67" stroke="rgba(218, 165, 32, 1)"></path>
            <path d="M1483.33 35 a1.67 1.67 0 1 0 3.34 0 a1.67 1.67 0 1 0 -3.34 0zM1453.33 25 a1.67 1.67 0 1 0 3.34 0 a1.67 1.67 0 1 0 -3.34 0z" fill="rgba(218, 165, 32, 1)"></path>
            <path d="M185 25L185 5" stroke-width="1.67" stroke="rgba(218, 165, 32, 1)"></path>
            <path d="M183.33 25 a1.67 1.67 0 1 0 3.34 0 a1.67 1.67 0 1 0 -3.34 0zM183.33 5 a1.67 1.67 0 1 0 3.34 0 a1.67 1.67 0 1 0 -3.34 0z" fill="rgba(218, 165, 32, 1)"></path>
            <path d="M335 15L335 35" stroke-width="1.67" stroke="rgba(218, 165, 32, 1)"></path>
            <path d="M333.33 15 a1.67 1.67 0 1 0 3.34 0 a1.67 1.67 0 1 0 -3.34 0zM333.33 35 a1.67 1.67 0 1 0 3.34 0 a1.67 1.67 0 1 0 -3.34 0z" fill="rgba(218, 165, 32, 1)"></path>
            <path d="M1275 15L1355 15" stroke-width="1.67" stroke="rgba(218, 165, 32, 1)"></path>
            <path d="M1273.33 15 a1.67 1.67 0 1 0 3.34 0 a1.67 1.67 0 1 0 -3.34 0zM1353.33 15 a1.67 1.67 0 1 0 3.34 0 a1.67 1.67 0 1 0 -3.34 0z" fill="rgba(218, 165, 32, 1)"></path>
            <path d="M255 5L245 15L205 15" stroke-width="1.67" stroke="rgba(218, 165, 32, 1)"></path>
            <path d="M253.33 5 a1.67 1.67 0 1 0 3.34 0 a1.67 1.67 0 1 0 -3.34 0zM203.33 15 a1.67 1.67 0 1 0 3.34 0 a1.67 1.67 0 1 0 -3.34 0z" fill="rgba(218, 165, 32, 1)"></path>
            <path d="M1375 35L1355 35" stroke-width="1.67" stroke="rgba(218, 165, 32, 1)"></path>
            <path d="M1373.33 35 a1.67 1.67 0 1 0 3.34 0 a1.67 1.67 0 1 0 -3.34 0zM1353.33 35 a1.67 1.67 0 1 0 3.34 0 a1.67 1.67 0 1 0 -3.34 0z" fill="rgba(218, 165, 32, 1)"></path>
            <path d="M1885 25L1835 25" stroke-width="1.67" stroke="rgba(218, 165, 32, 1)"></path>
            <path d="M1883.33 25 a1.67 1.67 0 1 0 3.34 0 a1.67 1.67 0 1 0 -3.34 0zM1833.33 25 a1.67 1.67 0 1 0 3.34 0 a1.67 1.67 0 1 0 -3.34 0z" fill="rgba(218, 165, 32, 1)"></path>
            <path d="M1865 45L1685 45" stroke-width="1.67" stroke="rgba(218, 165, 32, 1)"></path>
            <path d="M1863.33 45 a1.67 1.67 0 1 0 3.34 0 a1.67 1.67 0 1 0 -3.34 0zM1683.33 45 a1.67 1.67 0 1 0 3.34 0 a1.67 1.67 0 1 0 -3.34 0z" fill="rgba(218, 165, 32, 1)"></path>
            <path d="M1195 25L1215 5L1225 5" stroke-width="1.67" stroke="rgba(218, 165, 32, 1)"></path>
            <path d="M1193.33 25 a1.67 1.67 0 1 0 3.34 0 a1.67 1.67 0 1 0 -3.34 0zM1223.33 5 a1.67 1.67 0 1 0 3.34 0 a1.67 1.67 0 1 0 -3.34 0z" fill="rgba(218, 165, 32, 1)"></path>
            <path d="M1285 25L1265 25L1255 15L1235 15L1225 25" stroke-width="1.67" stroke="rgba(218, 165, 32, 1)"></path>
            <path d="M1283.33 25 a1.67 1.67 0 1 0 3.34 0 a1.67 1.67 0 1 0 -3.34 0zM1223.33 25 a1.67 1.67 0 1 0 3.34 0 a1.67 1.67 0 1 0 -3.34 0z" fill="rgba(218, 165, 32, 1)"></path>
            <path d="M5 5L45 5" stroke-width="1.67" stroke="rgba(218, 165, 32, 1)"></path>
            <path d="M3.33 5 a1.67 1.67 0 1 0 3.34 0 a1.67 1.67 0 1 0 -3.34 0zM43.33 5 a1.67 1.67 0 1 0 3.34 0 a1.67 1.67 0 1 0 -3.34 0z" fill="rgba(218, 165, 32, 1)"></path>
            <path d="M1605 45L1625 25L1635 25L1645 35L1645 45" stroke-width="1.67" stroke="rgba(218, 165, 32, 1)"></path>
            <path d="M1603.33 45 a1.67 1.67 0 1 0 3.34 0 a1.67 1.67 0 1 0 -3.34 0zM1643.33 45 a1.67 1.67 0 1 0 3.34 0 a1.67 1.67 0 1 0 -3.34 0z" fill="rgba(218, 165, 32, 1)"></path>
            <path d="M1585 15L1595 25L1605 25L1615 15" stroke-width="1.67" stroke="rgba(218, 165, 32, 1)"></path>
            <path d="M1583.33 15 a1.67 1.67 0 1 0 3.34 0 a1.67 1.67 0 1 0 -3.34 0zM1613.33 15 a1.67 1.67 0 1 0 3.34 0 a1.67 1.67 0 1 0 -3.34 0z" fill="rgba(218, 165, 32, 1)"></path>
            <path d="M895 35L885 35L865 15" stroke-width="1.67" stroke="rgba(218, 165, 32, 1)"></path>
            <path d="M893.33 35 a1.67 1.67 0 1 0 3.34 0 a1.67 1.67 0 1 0 -3.34 0zM863.33 15 a1.67 1.67 0 1 0 3.34 0 a1.67 1.67 0 1 0 -3.34 0z" fill="rgba(218, 165, 32, 1)"></path>
            <path d="M65 25L45 25" stroke-width="1.67" stroke="rgba(218, 165, 32, 1)"></path>
            <path d="M63.33 25 a1.67 1.67 0 1 0 3.34 0 a1.67 1.67 0 1 0 -3.34 0zM43.33 25 a1.67 1.67 0 1 0 3.34 0 a1.67 1.67 0 1 0 -3.34 0z" fill="rgba(218, 165, 32, 1)"></path>
            <path d="M1165 25L1185 5L1205 5" stroke-width="1.67" stroke="rgba(218, 165, 32, 1)"></path>
            <path d="M1163.33 25 a1.67 1.67 0 1 0 3.34 0 a1.67 1.67 0 1 0 -3.34 0zM1203.33 5 a1.67 1.67 0 1 0 3.34 0 a1.67 1.67 0 1 0 -3.34 0z" fill="rgba(218, 165, 32, 1)"></path>
            <path d="M1255 25L1235 25" stroke-width="1.67" stroke="rgba(218, 165, 32, 1)"></path>
            <path d="M1253.33 25 a1.67 1.67 0 1 0 3.34 0 a1.67 1.67 0 1 0 -3.34 0zM1233.33 25 a1.67 1.67 0 1 0 3.34 0 a1.67 1.67 0 1 0 -3.34 0z" fill="rgba(218, 165, 32, 1)"></path>
            <path d="M1905 15L1895 15L1885 5" stroke-width="1.67" stroke="rgba(218, 165, 32, 1)"></path>
            <path d="M1903.33 15 a1.67 1.67 0 1 0 3.34 0 a1.67 1.67 0 1 0 -3.34 0zM1883.33 5 a1.67 1.67 0 1 0 3.34 0 a1.67 1.67 0 1 0 -3.34 0z" fill="rgba(218, 165, 32, 1)"></path>
            <path d="M75 15L55 15" stroke-width="1.67" stroke="rgba(218, 165, 32, 1)"></path>
            <path d="M73.33 15 a1.67 1.67 0 1 0 3.34 0 a1.67 1.67 0 1 0 -3.34 0zM53.33 15 a1.67 1.67 0 1 0 3.34 0 a1.67 1.67 0 1 0 -3.34 0z" fill="rgba(218, 165, 32, 1)"></path>
            <path d="M145 5L175 5" stroke-width="1.67" stroke="rgba(218, 165, 32, 1)"></path>
            <path d="M143.33 5 a1.67 1.67 0 1 0 3.34 0 a1.67 1.67 0 1 0 -3.34 0zM173.33 5 a1.67 1.67 0 1 0 3.34 0 a1.67 1.67 0 1 0 -3.34 0z" fill="rgba(218, 165, 32, 1)"></path>
            <path d="M905 35L905 15" stroke-width="1.67" stroke="rgba(218, 165, 32, 1)"></path>
            <path d="M903.33 35 a1.67 1.67 0 1 0 3.34 0 a1.67 1.67 0 1 0 -3.34 0zM903.33 15 a1.67 1.67 0 1 0 3.34 0 a1.67 1.67 0 1 0 -3.34 0z" fill="rgba(218, 165, 32, 1)"></path>
            <path d="M735 25L735 5" stroke-width="1.67" stroke="rgba(218, 165, 32, 1)"></path>
            <path d="M733.33 25 a1.67 1.67 0 1 0 3.34 0 a1.67 1.67 0 1 0 -3.34 0zM733.33 5 a1.67 1.67 0 1 0 3.34 0 a1.67 1.67 0 1 0 -3.34 0z" fill="rgba(218, 165, 32, 1)"></path>
            <path d="M705 5L725 5" stroke-width="1.67" stroke="rgba(218, 165, 32, 1)"></path>
            <path d="M703.33 5 a1.67 1.67 0 1 0 3.34 0 a1.67 1.67 0 1 0 -3.34 0zM723.33 5 a1.67 1.67 0 1 0 3.34 0 a1.67 1.67 0 1 0 -3.34 0z" fill="rgba(218, 165, 32, 1)"></path>
            <path d="M1095 45L1095 35L1085 25L1075 25L1055 45" stroke-width="1.67" stroke="rgba(218, 165, 32, 1)"></path>
            <path d="M1093.33 45 a1.67 1.67 0 1 0 3.34 0 a1.67 1.67 0 1 0 -3.34 0zM1053.33 45 a1.67 1.67 0 1 0 3.34 0 a1.67 1.67 0 1 0 -3.34 0z" fill="rgba(218, 165, 32, 1)"></path>
            <path d="M945 25L945 45" stroke-width="1.67" stroke="rgba(218, 165, 32, 1)"></path>
            <path d="M943.33 25 a1.67 1.67 0 1 0 3.34 0 a1.67 1.67 0 1 0 -3.34 0zM943.33 45 a1.67 1.67 0 1 0 3.34 0 a1.67 1.67 0 1 0 -3.34 0z" fill="rgba(218, 165, 32, 1)"></path>
            <path d="M155 25L175 25" stroke-width="1.67" stroke="rgba(218, 165, 32, 1)"></path>
            <path d="M153.33 25 a1.67 1.67 0 1 0 3.34 0 a1.67 1.67 0 1 0 -3.34 0zM173.33 25 a1.67 1.67 0 1 0 3.34 0 a1.67 1.67 0 1 0 -3.34 0z" fill="rgba(218, 165, 32, 1)"></path>
            <path d="M875 45L865 35L855 35L845 45" stroke-width="1.67" stroke="rgba(218, 165, 32, 1)"></path>
            <path d="M873.33 45 a1.67 1.67 0 1 0 3.34 0 a1.67 1.67 0 1 0 -3.34 0zM843.33 45 a1.67 1.67 0 1 0 3.34 0 a1.67 1.67 0 1 0 -3.34 0z" fill="rgba(218, 165, 32, 1)"></path>
            <path d="M35 15L25 25L5 25" stroke-width="1.67" stroke="rgba(218, 165, 32, 1)"></path>
            <path d="M33.33 15 a1.67 1.67 0 1 0 3.34 0 a1.67 1.67 0 1 0 -3.34 0zM3.33 25 a1.67 1.67 0 1 0 3.34 0 a1.67 1.67 0 1 0 -3.34 0z" fill="rgba(218, 165, 32, 1)"></path>
            <path d="M1005 5L1005 25L995 35L985 35" stroke-width="1.67" stroke="rgba(218, 165, 32, 1)"></path>
            <path d="M1003.33 5 a1.67 1.67 0 1 0 3.34 0 a1.67 1.67 0 1 0 -3.34 0zM983.33 35 a1.67 1.67 0 1 0 3.34 0 a1.67 1.67 0 1 0 -3.34 0z" fill="rgba(218, 165, 32, 1)"></path>
            <path d="M235 5L215 5" stroke-width="1.67" stroke="rgba(218, 165, 32, 1)"></path>
            <path d="M233.33 5 a1.67 1.67 0 1 0 3.34 0 a1.67 1.67 0 1 0 -3.34 0zM213.33 5 a1.67 1.67 0 1 0 3.34 0 a1.67 1.67 0 1 0 -3.34 0z" fill="rgba(218, 165, 32, 1)"></path>
            <path d="M245 45L225 45L215 35" stroke-width="1.67" stroke="rgba(218, 165, 32, 1)"></path>
            <path d="M243.33 45 a1.67 1.67 0 1 0 3.34 0 a1.67 1.67 0 1 0 -3.34 0zM213.33 35 a1.67 1.67 0 1 0 3.34 0 a1.67 1.67 0 1 0 -3.34 0z" fill="rgba(218, 165, 32, 1)"></path>
            <path d="M1415 5L1435 5" stroke-width="1.67" stroke="rgba(218, 165, 32, 1)"></path>
            <path d="M1413.33 5 a1.67 1.67 0 1 0 3.34 0 a1.67 1.67 0 1 0 -3.34 0zM1433.33 5 a1.67 1.67 0 1 0 3.34 0 a1.67 1.67 0 1 0 -3.34 0z" fill="rgba(218, 165, 32, 1)"></path>
            <path d="M1895 45L1875 45" stroke-width="1.67" stroke="rgba(218, 165, 32, 1)"></path>
            <path d="M1893.33 45 a1.67 1.67 0 1 0 3.34 0 a1.67 1.67 0 1 0 -3.34 0zM1873.33 45 a1.67 1.67 0 1 0 3.34 0 a1.67 1.67 0 1 0 -3.34 0z" fill="rgba(218, 165, 32, 1)"></path>
            <path d="M1195 15L1185 25L1175 25" stroke-width="1.67" stroke="rgba(218, 165, 32, 1)"></path>
            <path d="M1193.33 15 a1.67 1.67 0 1 0 3.34 0 a1.67 1.67 0 1 0 -3.34 0zM1173.33 25 a1.67 1.67 0 1 0 3.34 0 a1.67 1.67 0 1 0 -3.34 0z" fill="rgba(218, 165, 32, 1)"></path>
            <path d="M1405 5L1425 25L1435 25" stroke-width="1.67" stroke="rgba(218, 165, 32, 1)"></path>
            <path d="M1403.33 5 a1.67 1.67 0 1 0 3.34 0 a1.67 1.67 0 1 0 -3.34 0zM1433.33 25 a1.67 1.67 0 1 0 3.34 0 a1.67 1.67 0 1 0 -3.34 0z" fill="rgba(218, 165, 32, 1)"></path>
            <path d="M815 25L835 25" stroke-width="1.67" stroke="rgba(218, 165, 32, 1)"></path>
            <path d="M813.33 25 a1.67 1.67 0 1 0 3.34 0 a1.67 1.67 0 1 0 -3.34 0zM833.33 25 a1.67 1.67 0 1 0 3.34 0 a1.67 1.67 0 1 0 -3.34 0z" fill="rgba(218, 165, 32, 1)"></path>
            <path d="M465 15L445 15" stroke-width="1.67" stroke="rgba(218, 165, 32, 1)"></path>
            <path d="M463.33 15 a1.67 1.67 0 1 0 3.34 0 a1.67 1.67 0 1 0 -3.34 0zM443.33 15 a1.67 1.67 0 1 0 3.34 0 a1.67 1.67 0 1 0 -3.34 0z" fill="rgba(218, 165, 32, 1)"></path>
            <path d="M1515 15L1505 15L1495 25L1485 25" stroke-width="1.67" stroke="rgba(218, 165, 32, 1)"></path>
            <path d="M1513.33 15 a1.67 1.67 0 1 0 3.34 0 a1.67 1.67 0 1 0 -3.34 0zM1483.33 25 a1.67 1.67 0 1 0 3.34 0 a1.67 1.67 0 1 0 -3.34 0z" fill="rgba(218, 165, 32, 1)"></path>
            <path d="M1405 25L1395 15L1385 15" stroke-width="1.67" stroke="rgba(218, 165, 32, 1)"></path>
            <path d="M1403.33 25 a1.67 1.67 0 1 0 3.34 0 a1.67 1.67 0 1 0 -3.34 0zM1383.33 15 a1.67 1.67 0 1 0 3.34 0 a1.67 1.67 0 1 0 -3.34 0z" fill="rgba(218, 165, 32, 1)"></path>
            <path d="M265 45L295 45" stroke-width="1.67" stroke="rgba(218, 165, 32, 1)"></path>
            <path d="M263.33 45 a1.67 1.67 0 1 0 3.34 0 a1.67 1.67 0 1 0 -3.34 0zM293.33 45 a1.67 1.67 0 1 0 3.34 0 a1.67 1.67 0 1 0 -3.34 0z" fill="rgba(218, 165, 32, 1)"></path>
            <path d="M1305 35L1325 35" stroke-width="1.67" stroke="rgba(218, 165, 32, 1)"></path>
            <path d="M1303.33 35 a1.67 1.67 0 1 0 3.34 0 a1.67 1.67 0 1 0 -3.34 0zM1323.33 35 a1.67 1.67 0 1 0 3.34 0 a1.67 1.67 0 1 0 -3.34 0z" fill="rgba(218, 165, 32, 1)"></path>
        </g>
    </g>
    <defs>
        <mask id="SvgjsMask1030">
            <rect width="1920" height="50" fill="#ffffff"></rect>
        </mask>
    </defs>
</svg>