<svg xmlns="http://www.w3.org/2000/svg" version="1.1" xmlns:xlink="http://www.w3.org/1999/xlink" xmlns:svgjs="http://svgjs.com/svgjs" width="1920" height="1080" preserveAspectRatio="none" viewBox="0 0 1920 1080">
    <g mask="url(&quot;#SvgjsMask1217&quot;)" fill="none">
        <rect width="1920" height="1080" x="0" y="0" fill="url(#SvgjsLinearGradient1218)"></rect>
        <path d="M -417.6125583919584,840 C -225.61,744.4 158.39,332.6 542.3874416080416,362 C 926.39,391.4 1118.39,1017.6 1502.3874416080416,987 C 1886.39,956.4 2378.86,285.4 2462.3874416080416,209 C 2545.91,132.6 2028.48,525.8 1920,605" stroke="rgba(207, 181, 59, 1)" stroke-width="2"></path>
        <path d="M -1271.1561922692997,1030 C -1079.16,931.4 -695.16,547 -311.15619226929965,537 C 72.84,527 264.84,1050 648.8438077307003,980 C 1032.84,910 1354.61,248 1608.8438077307003,187 C 1863.08,126 1857.77,577.4 1920,675" stroke="rgba(212, 175, 55, 1)" stroke-width="2"></path>
        <path d="M -1168.503315087846,760 C -976.5,711 -592.5,485.2 -208.50331508784592,515 C 175.5,544.8 367.5,993.2 751.496684912154,909 C 1135.5,824.8 1477.8,140.2 1711.496684912154,94 C 1945.2,47.8 1878.3,561.2 1920,678" stroke="rgba(207, 181, 59, 1)" stroke-width="2"></path>
        <path d="M -1063.1165100595645,395 C -871.12,490.6 -487.12,881.6 -103.11651005956442,873 C 280.88,864.4 472.88,340.6 856.8834899404355,352 C 1240.88,363.4 1604.26,951.2 1816.8834899404355,930 C 2029.51,908.8 1899.38,382.8 1920,246" stroke="rgba(212, 175, 55, 1)" stroke-width="2"></path>
        <path d="M -1363.3994270183096,1010 C -1171.4,849.8 -787.4,246.6 -403.3994270183095,209 C -19.4,171.4 172.6,856 556.6005729816904,822 C 940.6,788 1243.92,58.4 1516.6005729816904,39 C 1789.28,19.6 1839.32,587.8 1920,725" stroke="rgba(207, 181, 59, 1)" stroke-width="2"></path>
        <path d="M -248.92510516452796,385 C -56.93,515 327.07,1073 711.074894835472,1035 C 1095.07,997 1287.07,286.4 1671.0748948354722,195 C 2055.07,103.6 2581.29,612.8 2631.074894835472,578 C 2680.86,543.2 2062.21,132.4 1920,21" stroke="rgba(212, 175, 55, 1)" stroke-width="2"></path>
        <path d="M -917.2436711484551,622 C -725.24,599.4 -341.24,504.4 42.756328851544936,509 C 426.76,513.6 618.76,737.2 1002.7563288515449,645 C 1386.76,552.8 1779.31,38.6 1962.7563288515448,48 C 2146.21,57.4 1928.55,563.2 1920,692" stroke="rgba(207, 181, 59, 1)" stroke-width="2"></path>
        <path d="M -1470.93958678348,162 C -1278.94,239 -894.94,499.2 -510.9395867834801,547 C -126.94,594.8 65.06,342 449.0604132165199,401 C 833.06,460 1114.87,816.2 1409.06041321652,842 C 1703.25,867.8 1817.81,592.4 1920,530" stroke="rgba(207, 181, 59, 1)" stroke-width="2"></path>
        <path d="M -1324.6900693824527,817 C -1132.69,671.6 -748.69,79.6 -364.69006938245275,90 C 19.31,100.4 211.31,800.6 595.3099306175473,869 C 979.31,937.4 1290.37,406 1555.3099306175473,432 C 1820.25,458 1847.06,885.6 1920,999" stroke="rgba(207, 181, 59, 1)" stroke-width="2"></path>
        <path d="M -177.26770781973426,331 C 14.73,383.4 398.73,620.2 782.7322921802657,593 C 1166.73,565.8 1358.73,172.8 1742.7322921802656,195 C 2126.73,217.2 2667.28,741.6 2702.7322921802656,704 C 2738.19,666.4 2076.55,146.4 1920,7" stroke="rgba(207, 181, 59, 1)" stroke-width="2"></path>
    </g>
    <defs>
        <mask id="SvgjsMask1217">
            <rect width="1920" height="1080" fill="#ffffff"></rect>
        </mask>
        <linearGradient x1="50%" y1="0%" x2="50%" y2="100%" gradientUnits="userSpaceOnUse" id="SvgjsLinearGradient1218">
            <stop stop-color="rgba(47, 57, 67, 1)" offset="0"></stop>
            <stop stop-color="rgba(24, 33, 43, 1)" offset="0.8"></stop>
        </linearGradient>
    </defs>
</svg>