<svg xmlns="http://www.w3.org/2000/svg" version="1.1" xmlns:xlink="http://www.w3.org/1999/xlink" xmlns:svgjs="http://svgjs.com/svgjs" width="1920" height="1080" preserveAspectRatio="none" viewBox="0 0 1920 1080">
    <g mask="url(&quot;#SvgjsMask1012&quot;)" fill="none">
        <rect width="1920" height="1080" x="0" y="0" fill="url(#SvgjsLinearGradient1013)"></rect>
        <g mask="url(&quot;#SvgjsMask1015&quot;)">
            <path d="M968 1096L968 1080L968 1064L968 1048L968 1032" stroke="url(#SvgjsLinearGradient1014)" stroke-width="2.67"></path>
            <path d="M964 1032 a4 4 0 1 0 8 0 a4 4 0 1 0 -8 0z" fill="url(#SvgjsLinearGradient1014)"></path>
            <path d="M936 808L952 792M936 888L952 872L952 856L952 840L952 824L952 808L968 792L968 776L968 760L968 744L968 728L968 712L952 696L952 680M920 776L936 760L936 744L936 728L952 712M904 632L888 616L888 600L872 584L872 568L872 552L872 536L872 520L872 504L872 488L872 472L872 456L872 440L872 424L872 408L872 392L856 376M936 792L936 776M952 968L968 952L968 936L984 920L984 904L984 888M904 616L920 600M952 984L968 968M920 712L920 696L904 680M888 568L904 552L904 536M888 488L888 472L888 456L888 440L888 424L888 408L888 392L888 376L888 360L888 344L888 328L888 312L888 296L888 280M952 1096L952 1080L952 1064L952 1048L952 1032L952 1016L952 1000L952 984L952 968L952 952L952 936L952 920L936 904L936 888L936 872L936 856L936 840L936 824L936 808L936 792L920 776L920 760L920 744L920 728L920 712L904 696L888 680L888 664L904 648L904 632L904 616L904 600L888 584L888 568L888 552L888 536L888 520L888 504L888 488L904 472L904 456L904 440L904 424L904 408" stroke="url(#SvgjsLinearGradient1014)" stroke-width="2.67"></path>
            <path d="M900 408 a4 4 0 1 0 8 0 a4 4 0 1 0 -8 0zM948 792 a4 4 0 1 0 8 0 a4 4 0 1 0 -8 0zM948 680 a4 4 0 1 0 8 0 a4 4 0 1 0 -8 0zM948 712 a4 4 0 1 0 8 0 a4 4 0 1 0 -8 0zM852 376 a4 4 0 1 0 8 0 a4 4 0 1 0 -8 0zM932 776 a4 4 0 1 0 8 0 a4 4 0 1 0 -8 0zM980 888 a4 4 0 1 0 8 0 a4 4 0 1 0 -8 0zM916 600 a4 4 0 1 0 8 0 a4 4 0 1 0 -8 0zM964 968 a4 4 0 1 0 8 0 a4 4 0 1 0 -8 0zM900 680 a4 4 0 1 0 8 0 a4 4 0 1 0 -8 0zM900 536 a4 4 0 1 0 8 0 a4 4 0 1 0 -8 0zM884 280 a4 4 0 1 0 8 0 a4 4 0 1 0 -8 0z" fill="url(#SvgjsLinearGradient1014)"></path>
            <path d="M1000 856L984 840L984 824M984 1016L968 1000L968 984M984 952L984 936M1000 872L984 856L968 840L968 824M984 1096L984 1080L984 1064L984 1048L984 1032L984 1016L984 1000L984 984L984 968L984 952L1000 936L1000 920L1000 904L1000 888L1000 872L1000 856L1000 840" stroke="url(#SvgjsLinearGradient1014)" stroke-width="2.67"></path>
            <path d="M996 840 a4 4 0 1 0 8 0 a4 4 0 1 0 -8 0zM980 824 a4 4 0 1 0 8 0 a4 4 0 1 0 -8 0zM964 984 a4 4 0 1 0 8 0 a4 4 0 1 0 -8 0zM980 936 a4 4 0 1 0 8 0 a4 4 0 1 0 -8 0zM964 824 a4 4 0 1 0 8 0 a4 4 0 1 0 -8 0z" fill="url(#SvgjsLinearGradient1014)"></path>
            <path d="M872 680L872 664L872 648L888 632M936 1096L936 1080L936 1064L936 1048L936 1032L936 1016L936 1000L936 984L936 968L936 952L936 936L936 920L920 904L920 888L920 872L920 856L920 840L920 824L920 808L920 792L904 776L904 760L904 744L904 728L904 712L888 696L872 680L856 664L856 648L856 632" stroke="url(#SvgjsLinearGradient1014)" stroke-width="2.67"></path>
            <path d="M852 632 a4 4 0 1 0 8 0 a4 4 0 1 0 -8 0zM884 632 a4 4 0 1 0 8 0 a4 4 0 1 0 -8 0z" fill="url(#SvgjsLinearGradient1014)"></path>
            <path d="M1016 872L1032 856L1032 840L1032 824M984 680L968 664M1000 744L1000 728M984 712L1000 696L1000 680L1000 664L1000 648L1000 632M1016 904L1032 888L1032 872L1048 856M1016 792L1000 776L1000 760L984 744M1016 808L1032 792L1032 776M1000 1096L1000 1080L1000 1064L1000 1048L1000 1032L1000 1016L1000 1000L1000 984L1000 968L1000 952L1016 936L1016 920L1016 904L1016 888L1016 872L1016 856L1016 840L1016 824L1016 808L1016 792L1016 776L1016 760L1000 744L984 728L984 712L984 696L984 680L984 664L984 648" stroke="url(#SvgjsLinearGradient1014)" stroke-width="2.67"></path>
            <path d="M980 648 a4 4 0 1 0 8 0 a4 4 0 1 0 -8 0zM1028 824 a4 4 0 1 0 8 0 a4 4 0 1 0 -8 0zM964 664 a4 4 0 1 0 8 0 a4 4 0 1 0 -8 0zM996 728 a4 4 0 1 0 8 0 a4 4 0 1 0 -8 0zM996 632 a4 4 0 1 0 8 0 a4 4 0 1 0 -8 0zM1044 856 a4 4 0 1 0 8 0 a4 4 0 1 0 -8 0zM980 744 a4 4 0 1 0 8 0 a4 4 0 1 0 -8 0zM1028 776 a4 4 0 1 0 8 0 a4 4 0 1 0 -8 0z" fill="url(#SvgjsLinearGradient1014)"></path>
            <path d="M824 632L840 616L840 600L840 584L840 568L840 552L840 536L840 520L840 504L856 488L856 472L856 456L856 440L856 424L856 408L856 392L840 376M824 552L808 536L808 520L808 504M824 584L808 568L808 552M824 440L808 424L808 408L808 392L808 376L808 360M824 456L808 440L792 424L792 408L792 392L792 376L792 360M840 648L840 632M824 488L808 472M824 472L840 456L840 440L840 424L840 408M824 600L808 584L792 568L792 552M920 1096L920 1080L920 1064L920 1048L920 1032L920 1016L920 1000L920 984L920 968L920 952L920 936L920 920L904 904L904 888L904 872L904 856L904 840L904 824L904 808L904 792L888 776L888 760L888 744L888 728L888 712L872 696L856 680L840 664L840 648L824 632L824 616L824 600L824 584L824 568L824 552L824 536L824 520L824 504L824 488L824 472L824 456L824 440L824 424L824 408L824 392" stroke="url(#SvgjsLinearGradient1014)" stroke-width="2.67"></path>
            <path d="M820 392 a4 4 0 1 0 8 0 a4 4 0 1 0 -8 0zM836 376 a4 4 0 1 0 8 0 a4 4 0 1 0 -8 0zM804 504 a4 4 0 1 0 8 0 a4 4 0 1 0 -8 0zM804 552 a4 4 0 1 0 8 0 a4 4 0 1 0 -8 0zM804 360 a4 4 0 1 0 8 0 a4 4 0 1 0 -8 0zM788 360 a4 4 0 1 0 8 0 a4 4 0 1 0 -8 0zM836 632 a4 4 0 1 0 8 0 a4 4 0 1 0 -8 0zM804 472 a4 4 0 1 0 8 0 a4 4 0 1 0 -8 0zM836 408 a4 4 0 1 0 8 0 a4 4 0 1 0 -8 0zM788 552 a4 4 0 1 0 8 0 a4 4 0 1 0 -8 0z" fill="url(#SvgjsLinearGradient1014)"></path>
            <path d="M1016 968L1016 952M1064 888L1048 872M1016 1080L1032 1064L1032 1048L1032 1032L1032 1016M1016 1096L1016 1080L1016 1064L1016 1048L1016 1032L1016 1016L1016 1000L1016 984L1016 968L1032 952L1048 936L1048 920L1048 904L1064 888L1064 872" stroke="url(#SvgjsLinearGradient1014)" stroke-width="2.67"></path>
            <path d="M1060 872 a4 4 0 1 0 8 0 a4 4 0 1 0 -8 0zM1012 952 a4 4 0 1 0 8 0 a4 4 0 1 0 -8 0zM1044 872 a4 4 0 1 0 8 0 a4 4 0 1 0 -8 0zM1028 1016 a4 4 0 1 0 8 0 a4 4 0 1 0 -8 0z" fill="url(#SvgjsLinearGradient1014)"></path>
            <path d="M888 856L872 840L872 824L872 808M888 872L872 856M904 1096L904 1080L904 1064L904 1048L904 1032L904 1016L904 1000L904 984L904 968L904 952L904 936L904 920L888 904L888 888L888 872L888 856L888 840L888 824L888 808L888 792L872 776L872 760L872 744L872 728L872 712L856 696L840 680L824 664" stroke="url(#SvgjsLinearGradient1014)" stroke-width="2.67"></path>
            <path d="M820 664 a4 4 0 1 0 8 0 a4 4 0 1 0 -8 0zM868 808 a4 4 0 1 0 8 0 a4 4 0 1 0 -8 0zM868 856 a4 4 0 1 0 8 0 a4 4 0 1 0 -8 0z" fill="url(#SvgjsLinearGradient1014)"></path>
            <path d="M856 744L840 728L840 712M856 840L840 824L840 808L840 792L840 776M872 888L872 872M808 664L792 648L792 632L792 616L792 600M856 760L840 744L824 728L824 712M888 1096L888 1080L888 1064L888 1048L888 1032L888 1016L888 1000L888 984L888 968L888 952L888 936L888 920L872 904L872 888L856 872L856 856L856 840L856 824L856 808L856 792L856 776L856 760L856 744L856 728L856 712L840 696L824 680L808 664L808 648L808 632L808 616" stroke="url(#SvgjsLinearGradient1014)" stroke-width="2.67"></path>
            <path d="M804 616 a4 4 0 1 0 8 0 a4 4 0 1 0 -8 0zM836 712 a4 4 0 1 0 8 0 a4 4 0 1 0 -8 0zM836 776 a4 4 0 1 0 8 0 a4 4 0 1 0 -8 0zM868 872 a4 4 0 1 0 8 0 a4 4 0 1 0 -8 0zM788 600 a4 4 0 1 0 8 0 a4 4 0 1 0 -8 0zM820 712 a4 4 0 1 0 8 0 a4 4 0 1 0 -8 0z" fill="url(#SvgjsLinearGradient1014)"></path>
            <path d="M1048 984L1064 968L1080 952M1048 1000L1032 984M1048 1096L1048 1080L1048 1064L1048 1048L1048 1032L1048 1016L1048 1000L1048 984L1032 968" stroke="url(#SvgjsLinearGradient1014)" stroke-width="2.67"></path>
            <path d="M1028 968 a4 4 0 1 0 8 0 a4 4 0 1 0 -8 0zM1076 952 a4 4 0 1 0 8 0 a4 4 0 1 0 -8 0zM1028 984 a4 4 0 1 0 8 0 a4 4 0 1 0 -8 0z" fill="url(#SvgjsLinearGradient1014)"></path>
            <path d="M872 984L856 968L856 952M872 1016L856 1000M872 936L856 920L840 904L840 888M840 872L824 856L824 840M872 1096L872 1080L872 1064L872 1048L872 1032L872 1016L872 1000L872 984L872 968L872 952L872 936L872 920L856 904L856 888L840 872L840 856" stroke="url(#SvgjsLinearGradient1014)" stroke-width="2.67"></path>
            <path d="M836 856 a4 4 0 1 0 8 0 a4 4 0 1 0 -8 0zM852 952 a4 4 0 1 0 8 0 a4 4 0 1 0 -8 0zM852 1000 a4 4 0 1 0 8 0 a4 4 0 1 0 -8 0zM836 888 a4 4 0 1 0 8 0 a4 4 0 1 0 -8 0zM820 840 a4 4 0 1 0 8 0 a4 4 0 1 0 -8 0z" fill="url(#SvgjsLinearGradient1014)"></path>
            <path d="M1096 536L1080 520L1080 504L1080 488L1080 472L1080 456M1080 776L1096 760M1096 696L1112 680L1112 664L1112 648L1112 632L1112 616L1112 600L1112 584L1112 568M1080 792L1064 776L1064 760L1064 744M1064 1000L1064 984M1096 488L1112 472L1128 456L1128 440L1128 424M1096 728L1080 712L1080 696M1080 888L1096 872L1096 856M1096 552L1112 536L1112 520M1080 808L1064 792L1048 776L1048 760L1048 744L1032 728M1064 1096L1064 1080L1064 1064L1064 1048L1064 1032L1064 1016L1064 1000L1080 984L1096 968L1096 952L1096 936L1080 920L1080 904L1080 888L1080 872L1080 856L1080 840L1080 824L1080 808L1080 792L1080 776L1080 760L1080 744L1096 728L1096 712L1096 696L1096 680L1096 664L1096 648L1096 632L1096 616L1096 600L1096 584L1096 568L1096 552L1096 536L1096 520L1096 504L1096 488L1096 472" stroke="url(#SvgjsLinearGradient1014)" stroke-width="2.67"></path>
            <path d="M1092 472 a4 4 0 1 0 8 0 a4 4 0 1 0 -8 0zM1076 456 a4 4 0 1 0 8 0 a4 4 0 1 0 -8 0zM1092 760 a4 4 0 1 0 8 0 a4 4 0 1 0 -8 0zM1108 568 a4 4 0 1 0 8 0 a4 4 0 1 0 -8 0zM1060 744 a4 4 0 1 0 8 0 a4 4 0 1 0 -8 0zM1060 984 a4 4 0 1 0 8 0 a4 4 0 1 0 -8 0zM1124 424 a4 4 0 1 0 8 0 a4 4 0 1 0 -8 0zM1076 696 a4 4 0 1 0 8 0 a4 4 0 1 0 -8 0zM1092 856 a4 4 0 1 0 8 0 a4 4 0 1 0 -8 0zM1108 520 a4 4 0 1 0 8 0 a4 4 0 1 0 -8 0zM1028 728 a4 4 0 1 0 8 0 a4 4 0 1 0 -8 0z" fill="url(#SvgjsLinearGradient1014)"></path>
            <path d="M856 1096L856 1080L856 1064L856 1048L856 1032" stroke="url(#SvgjsLinearGradient1014)" stroke-width="2.67"></path>
            <path d="M852 1032 a4 4 0 1 0 8 0 a4 4 0 1 0 -8 0z" fill="url(#SvgjsLinearGradient1014)"></path>
            <path d="M1144 744L1128 728L1128 712M1144 648L1128 632L1128 616L1128 600L1128 584L1128 568L1128 552L1128 536L1128 520L1128 504M1128 776L1112 760L1096 744M1112 856L1128 840M1144 632L1160 616L1160 600L1176 584L1176 568L1176 552M1112 888L1128 872M1112 920L1096 904M1144 600L1144 584L1144 568L1144 552L1144 536L1144 520M1080 1096L1080 1080L1080 1064L1080 1048L1080 1032L1080 1016L1080 1000L1096 984L1112 968L1112 952L1112 936L1112 920L1112 904L1112 888L1112 872L1112 856L1112 840L1112 824L1112 808L1112 792L1128 776L1128 760L1144 744L1144 728L1144 712L1144 696L1144 680L1144 664L1144 648L1144 632L1144 616L1144 600L1160 584L1160 568" stroke="url(#SvgjsLinearGradient1014)" stroke-width="2.67"></path>
            <path d="M1156 568 a4 4 0 1 0 8 0 a4 4 0 1 0 -8 0zM1124 712 a4 4 0 1 0 8 0 a4 4 0 1 0 -8 0zM1124 504 a4 4 0 1 0 8 0 a4 4 0 1 0 -8 0zM1092 744 a4 4 0 1 0 8 0 a4 4 0 1 0 -8 0zM1124 840 a4 4 0 1 0 8 0 a4 4 0 1 0 -8 0zM1172 552 a4 4 0 1 0 8 0 a4 4 0 1 0 -8 0zM1124 872 a4 4 0 1 0 8 0 a4 4 0 1 0 -8 0zM1092 904 a4 4 0 1 0 8 0 a4 4 0 1 0 -8 0zM1140 520 a4 4 0 1 0 8 0 a4 4 0 1 0 -8 0z" fill="url(#SvgjsLinearGradient1014)"></path>
            <path d="M824 1000L840 984L840 968L840 952L840 936M824 1032L840 1016L840 1000M808 904L824 888L824 872M808 840L808 824L808 808L824 792L824 776M824 936L824 920L824 904M840 1096L840 1080L840 1064L824 1048L824 1032L824 1016L824 1000L824 984L824 968L824 952L824 936L808 920L808 904L808 888L808 872L808 856L808 840L792 824L792 808L792 792" stroke="url(#SvgjsLinearGradient1014)" stroke-width="2.67"></path>
            <path d="M788 792 a4 4 0 1 0 8 0 a4 4 0 1 0 -8 0zM836 936 a4 4 0 1 0 8 0 a4 4 0 1 0 -8 0zM836 1000 a4 4 0 1 0 8 0 a4 4 0 1 0 -8 0zM820 872 a4 4 0 1 0 8 0 a4 4 0 1 0 -8 0zM820 776 a4 4 0 1 0 8 0 a4 4 0 1 0 -8 0zM820 904 a4 4 0 1 0 8 0 a4 4 0 1 0 -8 0z" fill="url(#SvgjsLinearGradient1014)"></path>
            <path d="M1144 808L1128 792M1208 616L1192 600L1192 584L1192 568L1192 552L1192 536L1192 520L1192 504L1192 488L1192 472L1192 456M1208 568L1224 552M1192 632L1192 616L1176 600M1144 792L1160 776L1160 760M1176 696L1160 680L1160 664L1160 648M1144 840L1160 824L1160 808M1144 904L1128 888M1096 1096L1096 1080L1096 1064L1096 1048L1112 1032L1112 1016L1112 1000L1112 984L1128 968L1128 952L1128 936L1128 920L1144 904L1144 888L1144 872L1144 856L1144 840L1144 824L1144 808L1144 792L1144 776L1144 760L1160 744L1160 728L1160 712L1176 696L1176 680L1176 664L1176 648L1192 632L1208 616L1208 600L1208 584L1208 568L1208 552" stroke="url(#SvgjsLinearGradient1014)" stroke-width="2.67"></path>
            <path d="M1204 552 a4 4 0 1 0 8 0 a4 4 0 1 0 -8 0zM1124 792 a4 4 0 1 0 8 0 a4 4 0 1 0 -8 0zM1188 456 a4 4 0 1 0 8 0 a4 4 0 1 0 -8 0zM1220 552 a4 4 0 1 0 8 0 a4 4 0 1 0 -8 0zM1172 600 a4 4 0 1 0 8 0 a4 4 0 1 0 -8 0zM1156 760 a4 4 0 1 0 8 0 a4 4 0 1 0 -8 0zM1156 648 a4 4 0 1 0 8 0 a4 4 0 1 0 -8 0zM1156 808 a4 4 0 1 0 8 0 a4 4 0 1 0 -8 0zM1124 888 a4 4 0 1 0 8 0 a4 4 0 1 0 -8 0z" fill="url(#SvgjsLinearGradient1014)"></path>
            <path d="M808 1000L792 984L792 968L792 952M808 1016L792 1000M808 1032L792 1016M824 1096L824 1080L824 1064L808 1048L808 1032L808 1016L808 1000L808 984L808 968L808 952L808 936L792 920L792 904L792 888L792 872L792 856L792 840" stroke="url(#SvgjsLinearGradient1014)" stroke-width="2.67"></path>
            <path d="M788 840 a4 4 0 1 0 8 0 a4 4 0 1 0 -8 0zM788 952 a4 4 0 1 0 8 0 a4 4 0 1 0 -8 0zM788 1000 a4 4 0 1 0 8 0 a4 4 0 1 0 -8 0zM788 1016 a4 4 0 1 0 8 0 a4 4 0 1 0 -8 0z" fill="url(#SvgjsLinearGradient1014)"></path>
            <path d="M1224 584L1224 568M1240 536L1224 520L1224 504L1224 488L1224 472M1176 760L1192 744L1192 728L1192 712M1144 1000L1128 984M1112 1080L1128 1064L1128 1048L1144 1032M1144 1016L1128 1000M1160 856L1160 840M1112 1096L1112 1080L1112 1064L1112 1048L1128 1032L1144 1016L1144 1000L1144 984L1144 968L1144 952L1144 936L1144 920L1160 904L1160 888L1160 872L1160 856L1176 840L1176 824L1176 808L1176 792L1176 776L1176 760L1176 744L1176 728L1176 712L1192 696L1192 680L1192 664L1192 648L1208 632L1224 616L1224 600L1224 584L1240 568L1240 552L1240 536L1240 520L1240 504L1240 488L1240 472" stroke="url(#SvgjsLinearGradient1014)" stroke-width="2.67"></path>
            <path d="M1236 472 a4 4 0 1 0 8 0 a4 4 0 1 0 -8 0zM1220 568 a4 4 0 1 0 8 0 a4 4 0 1 0 -8 0zM1220 472 a4 4 0 1 0 8 0 a4 4 0 1 0 -8 0zM1188 712 a4 4 0 1 0 8 0 a4 4 0 1 0 -8 0zM1124 984 a4 4 0 1 0 8 0 a4 4 0 1 0 -8 0zM1140 1032 a4 4 0 1 0 8 0 a4 4 0 1 0 -8 0zM1124 1000 a4 4 0 1 0 8 0 a4 4 0 1 0 -8 0zM1156 840 a4 4 0 1 0 8 0 a4 4 0 1 0 -8 0z" fill="url(#SvgjsLinearGradient1014)"></path>
            <path d="M760 568L760 552L760 536L760 520L744 504L744 488M776 776L792 760M760 440L760 424L760 408L760 392L760 376L760 360M760 712L776 696L776 680L776 664L776 648M776 728L776 712L792 696L792 680L792 664M776 744L792 728M792 1048L792 1032M760 472L776 456M776 536L792 520M776 520L776 504L776 488M776 824L760 808M808 1096L808 1080L808 1064L792 1048L776 1032L776 1016L776 1000L776 984L776 968L776 952L776 936L776 920L776 904L776 888L776 872L776 856L776 840L776 824L776 808L776 792L776 776L776 760L776 744L776 728L760 712L760 696L760 680L760 664L760 648L760 632L760 616L760 600L760 584L760 568L776 552L776 536L776 520L760 504L760 488L760 472L760 456L760 440L744 424L744 408" stroke="url(#SvgjsLinearGradient1014)" stroke-width="2.67"></path>
            <path d="M740 408 a4 4 0 1 0 8 0 a4 4 0 1 0 -8 0zM740 488 a4 4 0 1 0 8 0 a4 4 0 1 0 -8 0zM788 760 a4 4 0 1 0 8 0 a4 4 0 1 0 -8 0zM756 360 a4 4 0 1 0 8 0 a4 4 0 1 0 -8 0zM772 648 a4 4 0 1 0 8 0 a4 4 0 1 0 -8 0zM788 664 a4 4 0 1 0 8 0 a4 4 0 1 0 -8 0zM788 728 a4 4 0 1 0 8 0 a4 4 0 1 0 -8 0zM788 1032 a4 4 0 1 0 8 0 a4 4 0 1 0 -8 0zM772 456 a4 4 0 1 0 8 0 a4 4 0 1 0 -8 0zM788 520 a4 4 0 1 0 8 0 a4 4 0 1 0 -8 0zM772 488 a4 4 0 1 0 8 0 a4 4 0 1 0 -8 0zM756 808 a4 4 0 1 0 8 0 a4 4 0 1 0 -8 0z" fill="url(#SvgjsLinearGradient1014)"></path>
            <path d="M760 872L744 856L744 840L728 824L728 808L728 792M744 696L728 680L728 664L728 648L728 632L728 616L728 600M728 328L712 312M760 968L744 952L744 936L744 920L744 904L744 888L728 872L728 856M728 408L712 392M728 376L712 360L712 344L712 328L696 312L696 296L712 280L712 264L712 248M776 1064L776 1048M728 392L744 376L744 360L744 344L744 328L744 312L760 296M744 584L728 568L728 552L728 536M760 840L760 824M728 312L728 296L728 280L728 264L744 248M744 744L728 728L728 712L728 696M744 536L744 520M792 1096L792 1080L776 1064L760 1048L760 1032L760 1016L760 1000L760 984L760 968L760 952L760 936L760 920L760 904L760 888L760 872L760 856L760 840L744 824L744 808L760 792L760 776L760 760L744 744L744 728L744 712L744 696L744 680L744 664L744 648L744 632L744 616L744 600L744 584L744 568L744 552L744 536L728 520L728 504L728 488L744 472L744 456L744 440L728 424L728 408L728 392L728 376L728 360L728 344L728 328L728 312L744 296L744 280L744 264" stroke="url(#SvgjsLinearGradient1014)" stroke-width="2.67"></path>
            <path d="M740 264 a4 4 0 1 0 8 0 a4 4 0 1 0 -8 0zM724 792 a4 4 0 1 0 8 0 a4 4 0 1 0 -8 0zM724 600 a4 4 0 1 0 8 0 a4 4 0 1 0 -8 0zM708 312 a4 4 0 1 0 8 0 a4 4 0 1 0 -8 0zM724 856 a4 4 0 1 0 8 0 a4 4 0 1 0 -8 0zM708 392 a4 4 0 1 0 8 0 a4 4 0 1 0 -8 0zM708 248 a4 4 0 1 0 8 0 a4 4 0 1 0 -8 0zM772 1048 a4 4 0 1 0 8 0 a4 4 0 1 0 -8 0zM756 296 a4 4 0 1 0 8 0 a4 4 0 1 0 -8 0zM724 536 a4 4 0 1 0 8 0 a4 4 0 1 0 -8 0zM756 824 a4 4 0 1 0 8 0 a4 4 0 1 0 -8 0zM740 248 a4 4 0 1 0 8 0 a4 4 0 1 0 -8 0zM724 696 a4 4 0 1 0 8 0 a4 4 0 1 0 -8 0zM740 520 a4 4 0 1 0 8 0 a4 4 0 1 0 -8 0z" fill="url(#SvgjsLinearGradient1014)"></path>
            <path d="M1256 552L1272 536M1256 456L1240 440L1240 424L1240 408L1240 392L1240 376L1240 360L1240 344L1240 328L1240 312L1240 296L1240 280L1240 264L1256 248M1144 1064L1144 1048M1256 504L1272 488L1272 472L1272 456L1272 440L1288 424L1288 408L1288 392L1288 376M1192 776L1192 760M1144 1096L1144 1080L1144 1064L1160 1048L1160 1032L1160 1016L1160 1000L1160 984L1160 968L1160 952L1160 936L1160 920L1176 904L1176 888L1176 872L1176 856L1192 840L1192 824L1192 808L1192 792L1192 776L1208 760L1208 744L1208 728L1208 712L1208 696L1208 680L1208 664L1208 648L1224 632L1240 616L1240 600L1240 584L1256 568L1256 552L1256 536L1256 520L1256 504L1256 488L1256 472L1256 456L1256 440" stroke="url(#SvgjsLinearGradient1014)" stroke-width="2.67"></path>
            <path d="M1252 440 a4 4 0 1 0 8 0 a4 4 0 1 0 -8 0zM1268 536 a4 4 0 1 0 8 0 a4 4 0 1 0 -8 0zM1252 248 a4 4 0 1 0 8 0 a4 4 0 1 0 -8 0zM1140 1048 a4 4 0 1 0 8 0 a4 4 0 1 0 -8 0zM1284 376 a4 4 0 1 0 8 0 a4 4 0 1 0 -8 0zM1188 760 a4 4 0 1 0 8 0 a4 4 0 1 0 -8 0z" fill="url(#SvgjsLinearGradient1014)"></path>
            <path d="M776 1096L776 1080L760 1064L744 1048L744 1032L744 1016L744 1000L744 984" stroke="url(#SvgjsLinearGradient1014)" stroke-width="2.67"></path>
            <path d="M740 984 a4 4 0 1 0 8 0 a4 4 0 1 0 -8 0z" fill="url(#SvgjsLinearGradient1014)"></path>
            <path d="M1336 280L1336 264L1336 248M1224 664L1240 648M1224 680L1240 664M1304 408L1304 392L1304 376M1336 296L1320 280M1320 344L1320 328L1320 312L1304 296L1304 280L1304 264L1304 248M1320 360L1304 344L1304 328L1304 312L1288 296M1304 504L1288 488L1288 472L1288 456L1288 440M1256 600L1272 584M1288 520L1288 504M1336 312L1352 296L1352 280M1272 568L1272 552M1160 1096L1160 1080L1160 1064L1176 1048L1176 1032L1176 1016L1176 1000L1176 984L1176 968L1176 952L1176 936L1176 920L1192 904L1192 888L1192 872L1192 856L1208 840L1208 824L1208 808L1208 792L1208 776L1224 760L1224 744L1224 728L1224 712L1224 696L1224 680L1224 664L1224 648L1240 632L1256 616L1256 600L1256 584L1272 568L1288 552L1288 536L1288 520L1304 504L1304 488L1304 472L1304 456L1304 440L1304 424L1304 408L1320 392L1320 376L1320 360L1320 344L1336 328L1336 312L1336 296L1336 280L1320 264L1320 248" stroke="url(#SvgjsLinearGradient1014)" stroke-width="2.67"></path>
            <path d="M1316 248 a4 4 0 1 0 8 0 a4 4 0 1 0 -8 0zM1332 248 a4 4 0 1 0 8 0 a4 4 0 1 0 -8 0zM1236 648 a4 4 0 1 0 8 0 a4 4 0 1 0 -8 0zM1236 664 a4 4 0 1 0 8 0 a4 4 0 1 0 -8 0zM1300 376 a4 4 0 1 0 8 0 a4 4 0 1 0 -8 0zM1316 280 a4 4 0 1 0 8 0 a4 4 0 1 0 -8 0zM1300 248 a4 4 0 1 0 8 0 a4 4 0 1 0 -8 0zM1284 296 a4 4 0 1 0 8 0 a4 4 0 1 0 -8 0zM1284 440 a4 4 0 1 0 8 0 a4 4 0 1 0 -8 0zM1268 584 a4 4 0 1 0 8 0 a4 4 0 1 0 -8 0zM1284 504 a4 4 0 1 0 8 0 a4 4 0 1 0 -8 0zM1348 280 a4 4 0 1 0 8 0 a4 4 0 1 0 -8 0zM1268 552 a4 4 0 1 0 8 0 a4 4 0 1 0 -8 0z" fill="url(#SvgjsLinearGradient1014)"></path>
            <path d="M712 600L696 584L696 568L696 552L696 536M712 520L696 504L696 488L696 472L696 456M728 904L728 888M728 920L712 904M712 760L728 744M712 632L696 616L696 600L680 584L680 568L680 552L680 536L680 520L680 504M728 952L712 936L712 920M728 1016L712 1000L712 984L712 968L712 952M712 776L728 760M712 664L696 648M760 1096L760 1080L744 1064L728 1048L728 1032L728 1016L728 1000L728 984L728 968L728 952L728 936L728 920L728 904L712 888L712 872L712 856L712 840L712 824L712 808L712 792L712 776L712 760L712 744L712 728L712 712L712 696L712 680L712 664L712 648L712 632L712 616L712 600L712 584L712 568L712 552L712 536L712 520L712 504L712 488L712 472" stroke="url(#SvgjsLinearGradient1014)" stroke-width="2.67"></path>
            <path d="M708 472 a4 4 0 1 0 8 0 a4 4 0 1 0 -8 0zM692 536 a4 4 0 1 0 8 0 a4 4 0 1 0 -8 0zM692 456 a4 4 0 1 0 8 0 a4 4 0 1 0 -8 0zM724 888 a4 4 0 1 0 8 0 a4 4 0 1 0 -8 0zM708 904 a4 4 0 1 0 8 0 a4 4 0 1 0 -8 0zM724 744 a4 4 0 1 0 8 0 a4 4 0 1 0 -8 0zM676 504 a4 4 0 1 0 8 0 a4 4 0 1 0 -8 0zM708 920 a4 4 0 1 0 8 0 a4 4 0 1 0 -8 0zM708 952 a4 4 0 1 0 8 0 a4 4 0 1 0 -8 0zM724 760 a4 4 0 1 0 8 0 a4 4 0 1 0 -8 0zM692 648 a4 4 0 1 0 8 0 a4 4 0 1 0 -8 0z" fill="url(#SvgjsLinearGradient1014)"></path>
            <path d="M1256 664L1256 648L1256 632M1336 360L1352 344M1352 328L1352 312M1272 616L1272 600M1240 696L1240 680M1176 1096L1176 1080L1176 1064L1192 1048L1192 1032L1192 1016L1192 1000L1192 984L1192 968L1192 952L1192 936L1192 920L1208 904L1208 888L1208 872L1208 856L1224 840L1224 824L1224 808L1224 792L1224 776L1240 760L1240 744L1240 728L1240 712L1240 696L1256 680L1256 664L1272 648L1272 632L1272 616L1288 600L1288 584L1288 568L1304 552L1304 536L1304 520L1320 504L1320 488L1320 472L1320 456L1320 440L1320 424L1320 408L1336 392L1336 376L1336 360L1336 344L1352 328L1368 312" stroke="url(#SvgjsLinearGradient1014)" stroke-width="2.67"></path>
            <path d="M1364 312 a4 4 0 1 0 8 0 a4 4 0 1 0 -8 0zM1252 632 a4 4 0 1 0 8 0 a4 4 0 1 0 -8 0zM1348 344 a4 4 0 1 0 8 0 a4 4 0 1 0 -8 0zM1348 312 a4 4 0 1 0 8 0 a4 4 0 1 0 -8 0zM1268 600 a4 4 0 1 0 8 0 a4 4 0 1 0 -8 0zM1236 680 a4 4 0 1 0 8 0 a4 4 0 1 0 -8 0z" fill="url(#SvgjsLinearGradient1014)"></path>
            <path d="M696 936L680 920M696 904L680 888L680 872L680 856L680 840M696 696L680 680L680 664L680 648L696 632M696 808L680 792L680 776L680 760L680 744L680 728L680 712M696 1000L680 984M696 968L680 952L680 936M744 1096L744 1080L728 1064L712 1048L696 1032L696 1016L696 1000L696 984L696 968L696 952L696 936L696 920L696 904L696 888L696 872L696 856L696 840L696 824L696 808L696 792L696 776L696 760L696 744L696 728L696 712L696 696L696 680" stroke="url(#SvgjsLinearGradient1014)" stroke-width="2.67"></path>
            <path d="M692 680 a4 4 0 1 0 8 0 a4 4 0 1 0 -8 0zM676 920 a4 4 0 1 0 8 0 a4 4 0 1 0 -8 0zM676 840 a4 4 0 1 0 8 0 a4 4 0 1 0 -8 0zM692 632 a4 4 0 1 0 8 0 a4 4 0 1 0 -8 0zM676 712 a4 4 0 1 0 8 0 a4 4 0 1 0 -8 0zM676 984 a4 4 0 1 0 8 0 a4 4 0 1 0 -8 0zM676 936 a4 4 0 1 0 8 0 a4 4 0 1 0 -8 0z" fill="url(#SvgjsLinearGradient1014)"></path>
            <path d="M1256 712L1272 696M1192 1096L1192 1080L1192 1064L1208 1048L1208 1032L1208 1016L1208 1000L1208 984L1208 968L1208 952L1208 936L1208 920L1224 904L1224 888L1224 872L1224 856L1240 840L1240 824L1240 808L1240 792L1240 776L1256 760L1256 744L1256 728L1256 712L1256 696L1272 680L1272 664L1288 648L1288 632L1288 616" stroke="url(#SvgjsLinearGradient1014)" stroke-width="2.67"></path>
            <path d="M1284 616 a4 4 0 1 0 8 0 a4 4 0 1 0 -8 0zM1268 696 a4 4 0 1 0 8 0 a4 4 0 1 0 -8 0z" fill="url(#SvgjsLinearGradient1014)"></path>
            <path d="M664 616L680 600M648 744L632 728M664 648L648 632L648 616L648 600L648 584L648 568M664 824L648 808L648 792M680 1032L680 1016L680 1000M664 776L664 760L664 744M664 872L648 856L648 840L648 824M648 760L632 744M728 1096L728 1080L712 1064L696 1048L680 1032L664 1016L664 1000L664 984L664 968L664 952L664 936L664 920L664 904L664 888L664 872L664 856L664 840L664 824L664 808L664 792L664 776L648 760L648 744L648 728L648 712L664 696L664 680L664 664L664 648L664 632L664 616L664 600L664 584L664 568" stroke="url(#SvgjsLinearGradient1014)" stroke-width="2.67"></path>
            <path d="M660 568 a4 4 0 1 0 8 0 a4 4 0 1 0 -8 0zM676 600 a4 4 0 1 0 8 0 a4 4 0 1 0 -8 0zM628 728 a4 4 0 1 0 8 0 a4 4 0 1 0 -8 0zM644 568 a4 4 0 1 0 8 0 a4 4 0 1 0 -8 0zM644 792 a4 4 0 1 0 8 0 a4 4 0 1 0 -8 0zM676 1000 a4 4 0 1 0 8 0 a4 4 0 1 0 -8 0zM660 744 a4 4 0 1 0 8 0 a4 4 0 1 0 -8 0zM644 824 a4 4 0 1 0 8 0 a4 4 0 1 0 -8 0zM628 744 a4 4 0 1 0 8 0 a4 4 0 1 0 -8 0z" fill="url(#SvgjsLinearGradient1014)"></path>
            <path d="M1256 840L1272 824M1240 904L1256 888M1224 1016L1240 1000L1240 984L1240 968L1240 952L1240 936L1240 920L1256 904L1272 888L1272 872L1272 856M1384 312L1400 296L1400 280L1400 264L1416 248M1272 728L1272 712M1224 1032L1240 1016L1256 1000L1256 984L1256 968L1256 952L1256 936L1256 920L1272 904M1256 792L1272 776M1256 808L1272 792M1240 872L1256 856M1304 584L1304 568M1208 1096L1208 1080L1208 1064L1224 1048L1224 1032L1224 1016L1224 1000L1224 984L1224 968L1224 952L1224 936L1224 920L1240 904L1240 888L1240 872L1240 856L1256 840L1256 824L1256 808L1256 792L1256 776L1272 760L1272 744L1272 728L1288 712L1288 696L1288 680L1288 664L1304 648L1304 632L1304 616L1304 600L1304 584L1320 568L1320 552L1320 536L1320 520L1336 504L1336 488L1336 472L1336 456L1336 440L1336 424L1336 408L1352 392L1352 376L1368 360L1368 344L1368 328L1384 312L1384 296" stroke="url(#SvgjsLinearGradient1014)" stroke-width="2.67"></path>
            <path d="M1380 296 a4 4 0 1 0 8 0 a4 4 0 1 0 -8 0zM1268 824 a4 4 0 1 0 8 0 a4 4 0 1 0 -8 0zM1252 888 a4 4 0 1 0 8 0 a4 4 0 1 0 -8 0zM1268 856 a4 4 0 1 0 8 0 a4 4 0 1 0 -8 0zM1412 248 a4 4 0 1 0 8 0 a4 4 0 1 0 -8 0zM1268 712 a4 4 0 1 0 8 0 a4 4 0 1 0 -8 0zM1268 904 a4 4 0 1 0 8 0 a4 4 0 1 0 -8 0zM1268 776 a4 4 0 1 0 8 0 a4 4 0 1 0 -8 0zM1268 792 a4 4 0 1 0 8 0 a4 4 0 1 0 -8 0zM1252 856 a4 4 0 1 0 8 0 a4 4 0 1 0 -8 0zM1300 568 a4 4 0 1 0 8 0 a4 4 0 1 0 -8 0z" fill="url(#SvgjsLinearGradient1014)"></path>
            <path d="M712 1096L712 1080L696 1064L680 1048L664 1032L648 1016L648 1000L648 984L648 968" stroke="url(#SvgjsLinearGradient1014)" stroke-width="2.67"></path>
            <path d="M644 968 a4 4 0 1 0 8 0 a4 4 0 1 0 -8 0z" fill="url(#SvgjsLinearGradient1014)"></path>
            <path d="M1224 1096L1224 1080L1224 1064L1240 1048" stroke="url(#SvgjsLinearGradient1014)" stroke-width="2.67"></path>
            <path d="M1236 1048 a4 4 0 1 0 8 0 a4 4 0 1 0 -8 0z" fill="url(#SvgjsLinearGradient1014)"></path>
            <path d="M632 936L648 920L648 904M632 888L648 872M696 1096L696 1080L680 1064L664 1048L648 1032L632 1016L632 1000L632 984L632 968L632 952L632 936L632 920L632 904L632 888L632 872L632 856L632 840L632 824L632 808" stroke="url(#SvgjsLinearGradient1014)" stroke-width="2.67"></path>
            <path d="M628 808 a4 4 0 1 0 8 0 a4 4 0 1 0 -8 0zM644 904 a4 4 0 1 0 8 0 a4 4 0 1 0 -8 0zM644 872 a4 4 0 1 0 8 0 a4 4 0 1 0 -8 0z" fill="url(#SvgjsLinearGradient1014)"></path>
            <path d="M1256 1032L1256 1016M1240 1096L1240 1080L1240 1064L1256 1048L1256 1032L1272 1016L1272 1000L1272 984L1272 968L1272 952L1272 936" stroke="url(#SvgjsLinearGradient1014)" stroke-width="2.67"></path>
            <path d="M1268 936 a4 4 0 1 0 8 0 a4 4 0 1 0 -8 0zM1252 1016 a4 4 0 1 0 8 0 a4 4 0 1 0 -8 0z" fill="url(#SvgjsLinearGradient1014)"></path>
            <path d="M616 312L600 296L600 280L600 264L600 248M600 472L616 456M600 520L616 504L616 488L616 472L632 456L648 440L648 424L648 408L648 392L648 376L632 360L632 344L632 328M616 328L600 312L584 296L584 280M616 424L632 408L632 392L632 376M616 360L600 344L600 328L584 312L568 296L552 280L552 264L568 248M616 280L632 264L632 248M600 600L616 584L616 568M600 664L616 648L632 632L632 616M616 792L632 776L632 760M616 376L600 360L584 344L584 328M616 392L600 376L584 360L568 344L568 328M616 696L616 680L616 664L632 648M680 1096L680 1080L664 1064L648 1048L632 1032L616 1016L616 1000L616 984L616 968L616 952L616 936L616 920L616 904L616 888L616 872L616 856L616 840L616 824L616 808L616 792L616 776L616 760L616 744L616 728L616 712L616 696L600 680L600 664L600 648L616 632L616 616L600 600L600 584L600 568L600 552L600 536L600 520L600 504L600 488L600 472L600 456L600 440L616 424L616 408L616 392L616 376L616 360L616 344L616 328L616 312L616 296L616 280L616 264" stroke="url(#SvgjsLinearGradient1014)" stroke-width="2.67"></path>
            <path d="M612 264 a4 4 0 1 0 8 0 a4 4 0 1 0 -8 0zM596 248 a4 4 0 1 0 8 0 a4 4 0 1 0 -8 0zM612 456 a4 4 0 1 0 8 0 a4 4 0 1 0 -8 0zM628 328 a4 4 0 1 0 8 0 a4 4 0 1 0 -8 0zM580 280 a4 4 0 1 0 8 0 a4 4 0 1 0 -8 0zM628 376 a4 4 0 1 0 8 0 a4 4 0 1 0 -8 0zM564 248 a4 4 0 1 0 8 0 a4 4 0 1 0 -8 0zM628 248 a4 4 0 1 0 8 0 a4 4 0 1 0 -8 0zM612 568 a4 4 0 1 0 8 0 a4 4 0 1 0 -8 0zM628 616 a4 4 0 1 0 8 0 a4 4 0 1 0 -8 0zM628 760 a4 4 0 1 0 8 0 a4 4 0 1 0 -8 0zM580 328 a4 4 0 1 0 8 0 a4 4 0 1 0 -8 0zM564 328 a4 4 0 1 0 8 0 a4 4 0 1 0 -8 0zM628 648 a4 4 0 1 0 8 0 a4 4 0 1 0 -8 0z" fill="url(#SvgjsLinearGradient1014)"></path>
            <path d="M1352 472L1368 456L1368 440L1368 424L1368 408L1384 392L1384 376L1400 360L1400 344L1400 328L1400 312L1416 296L1416 280L1416 264L1432 248M1320 616L1336 600L1336 584M1352 488L1368 472M1288 760L1304 744L1304 728M1288 776L1304 760M1256 1096L1256 1080L1256 1064L1272 1048L1272 1032L1288 1016L1288 1000L1288 984L1288 968L1288 952L1288 936L1288 920L1288 904L1288 888L1288 872L1288 856L1288 840L1288 824L1288 808L1288 792L1288 776L1288 760L1288 744L1288 728L1304 712L1304 696L1304 680L1304 664L1320 648L1320 632L1320 616L1320 600L1320 584L1336 568L1336 552L1336 536L1336 520L1352 504L1352 488L1352 472L1352 456L1352 440L1352 424L1352 408L1368 392L1368 376L1384 360L1384 344" stroke="url(#SvgjsLinearGradient1014)" stroke-width="2.67"></path>
            <path d="M1380 344 a4 4 0 1 0 8 0 a4 4 0 1 0 -8 0zM1428 248 a4 4 0 1 0 8 0 a4 4 0 1 0 -8 0zM1332 584 a4 4 0 1 0 8 0 a4 4 0 1 0 -8 0zM1364 472 a4 4 0 1 0 8 0 a4 4 0 1 0 -8 0zM1300 728 a4 4 0 1 0 8 0 a4 4 0 1 0 -8 0zM1300 760 a4 4 0 1 0 8 0 a4 4 0 1 0 -8 0z" fill="url(#SvgjsLinearGradient1014)"></path>
            <path d="M600 936L584 920L584 904L584 888L584 872L584 856L584 840L584 824M584 680L568 664L568 648M600 776L584 760L584 744L584 728L584 712L584 696L568 680L552 664L552 648M584 552L568 536M584 440L568 424L568 408L568 392M584 504L568 488L568 472L568 456L568 440L552 424M600 792L584 776L568 760L568 744L568 728L568 712M600 952L584 936M584 520L568 504L552 488L552 472L552 456L552 440L536 424L536 408L552 392M584 584L568 568L568 552L552 536L552 520L552 504L536 488L536 472M600 808L584 792L568 776M664 1096L664 1080L648 1064L632 1048L616 1032L600 1016L600 1000L600 984L600 968L600 952L600 936L600 920L600 904L600 888L600 872L600 856L600 840L600 824L600 808L600 792L600 776L600 760L600 744L600 728L600 712L600 696L584 680L584 664L584 648L600 632L600 616L584 600L584 584L584 568L584 552L584 536L584 520L584 504L584 488L584 472L584 456L584 440L584 424L584 408" stroke="url(#SvgjsLinearGradient1014)" stroke-width="2.67"></path>
            <path d="M580 408 a4 4 0 1 0 8 0 a4 4 0 1 0 -8 0zM580 824 a4 4 0 1 0 8 0 a4 4 0 1 0 -8 0zM564 648 a4 4 0 1 0 8 0 a4 4 0 1 0 -8 0zM548 648 a4 4 0 1 0 8 0 a4 4 0 1 0 -8 0zM564 536 a4 4 0 1 0 8 0 a4 4 0 1 0 -8 0zM564 392 a4 4 0 1 0 8 0 a4 4 0 1 0 -8 0zM548 424 a4 4 0 1 0 8 0 a4 4 0 1 0 -8 0zM564 712 a4 4 0 1 0 8 0 a4 4 0 1 0 -8 0zM580 936 a4 4 0 1 0 8 0 a4 4 0 1 0 -8 0zM548 392 a4 4 0 1 0 8 0 a4 4 0 1 0 -8 0zM532 472 a4 4 0 1 0 8 0 a4 4 0 1 0 -8 0zM564 776 a4 4 0 1 0 8 0 a4 4 0 1 0 -8 0z" fill="url(#SvgjsLinearGradient1014)"></path>
            <path d="M1304 904L1320 888L1320 872L1336 856L1336 840L1336 824L1336 808M1320 760L1336 744L1336 728M1304 856L1320 840L1320 824L1320 808L1320 792M1304 792L1304 776M1304 920L1320 904L1336 888L1336 872M1304 952L1320 936L1320 920L1336 904M1272 1096L1272 1080L1272 1064L1288 1048L1288 1032L1304 1016L1304 1000L1304 984L1304 968L1304 952L1304 936L1304 920L1304 904L1304 888L1304 872L1304 856L1304 840L1304 824L1304 808L1304 792L1320 776L1320 760L1320 744L1320 728L1320 712" stroke="url(#SvgjsLinearGradient1014)" stroke-width="2.67"></path>
            <path d="M1316 712 a4 4 0 1 0 8 0 a4 4 0 1 0 -8 0zM1332 808 a4 4 0 1 0 8 0 a4 4 0 1 0 -8 0zM1332 728 a4 4 0 1 0 8 0 a4 4 0 1 0 -8 0zM1316 792 a4 4 0 1 0 8 0 a4 4 0 1 0 -8 0zM1300 776 a4 4 0 1 0 8 0 a4 4 0 1 0 -8 0zM1332 872 a4 4 0 1 0 8 0 a4 4 0 1 0 -8 0zM1332 904 a4 4 0 1 0 8 0 a4 4 0 1 0 -8 0z" fill="url(#SvgjsLinearGradient1014)"></path>
            <path d="M472 376L488 360L488 344L488 328L488 312M472 408L456 392L456 376L456 360M520 520L536 504M568 936L552 920L552 904L552 888M520 632L504 616L504 600L504 584M536 728L552 712L552 696M552 824L568 808L568 792M552 760L552 744L552 728M520 536L536 520M552 792L536 776L536 760L520 744L520 728L520 712L520 696L520 680L520 664L520 648L504 632M568 872L552 856L552 840L536 824L536 808L536 792M520 504L520 488L520 472L520 456L520 440M648 1096L648 1080L632 1064L616 1048L600 1032L584 1016L584 1000L584 984L568 968L568 952L568 936L568 920L568 904L568 888L568 872L568 856L568 840L552 824L552 808L552 792L552 776L552 760L536 744L536 728L536 712L536 696L536 680L536 664L536 648L520 632L520 616L520 600L520 584L520 568L520 552L520 536L520 520L520 504L504 488L504 472L504 456L504 440L488 424L472 408L472 392L472 376L472 360L472 344L472 328" stroke="url(#SvgjsLinearGradient1014)" stroke-width="2.67"></path>
            <path d="M468 328 a4 4 0 1 0 8 0 a4 4 0 1 0 -8 0zM484 312 a4 4 0 1 0 8 0 a4 4 0 1 0 -8 0zM452 360 a4 4 0 1 0 8 0 a4 4 0 1 0 -8 0zM532 504 a4 4 0 1 0 8 0 a4 4 0 1 0 -8 0zM548 888 a4 4 0 1 0 8 0 a4 4 0 1 0 -8 0zM500 584 a4 4 0 1 0 8 0 a4 4 0 1 0 -8 0zM548 696 a4 4 0 1 0 8 0 a4 4 0 1 0 -8 0zM564 792 a4 4 0 1 0 8 0 a4 4 0 1 0 -8 0zM548 728 a4 4 0 1 0 8 0 a4 4 0 1 0 -8 0zM532 520 a4 4 0 1 0 8 0 a4 4 0 1 0 -8 0zM500 632 a4 4 0 1 0 8 0 a4 4 0 1 0 -8 0zM532 792 a4 4 0 1 0 8 0 a4 4 0 1 0 -8 0zM516 440 a4 4 0 1 0 8 0 a4 4 0 1 0 -8 0z" fill="url(#SvgjsLinearGradient1014)"></path>
            <path d="M1320 984L1336 968L1336 952L1336 936M1320 1000L1336 984M1288 1096L1288 1080L1288 1064L1304 1048L1304 1032L1320 1016L1320 1000L1320 984L1320 968" stroke="url(#SvgjsLinearGradient1014)" stroke-width="2.67"></path>
            <path d="M1316 968 a4 4 0 1 0 8 0 a4 4 0 1 0 -8 0zM1332 936 a4 4 0 1 0 8 0 a4 4 0 1 0 -8 0zM1332 984 a4 4 0 1 0 8 0 a4 4 0 1 0 -8 0z" fill="url(#SvgjsLinearGradient1014)"></path>
            <path d="M632 1096L632 1080L616 1064L600 1048L584 1032L568 1016L568 1000L568 984L552 968L552 952" stroke="url(#SvgjsLinearGradient1014)" stroke-width="2.67"></path>
            <path d="M548 952 a4 4 0 1 0 8 0 a4 4 0 1 0 -8 0z" fill="url(#SvgjsLinearGradient1014)"></path>
            <path d="M1352 760L1368 744L1368 728L1368 712L1368 696L1368 680L1368 664L1368 648L1368 632L1368 616L1384 600L1384 584L1384 568L1384 552L1384 536M1352 584L1368 568L1368 552L1368 536L1368 520L1384 504M1352 600L1368 584M1352 840L1368 824L1368 808L1368 792L1368 776L1368 760M1320 680L1336 664L1352 648M1384 488L1400 472L1400 456L1400 440L1400 424L1400 408L1400 392L1400 376M1336 632L1336 616M1352 920L1368 904L1368 888L1368 872L1368 856L1368 840M1336 712L1352 696M1352 776L1336 760M1304 1096L1304 1080L1304 1064L1320 1048L1320 1032L1336 1016L1352 1000L1352 984L1352 968L1352 952L1352 936L1352 920L1352 904L1352 888L1352 872L1352 856L1352 840L1352 824L1352 808L1352 792L1352 776L1352 760L1352 744L1352 728L1336 712L1336 696L1320 680L1320 664L1336 648L1336 632L1352 616L1352 600L1352 584L1352 568L1352 552L1352 536L1352 520L1368 504L1384 488L1384 472L1384 456L1384 440" stroke="url(#SvgjsLinearGradient1014)" stroke-width="2.67"></path>
            <path d="M1380 440 a4 4 0 1 0 8 0 a4 4 0 1 0 -8 0zM1380 536 a4 4 0 1 0 8 0 a4 4 0 1 0 -8 0zM1380 504 a4 4 0 1 0 8 0 a4 4 0 1 0 -8 0zM1364 584 a4 4 0 1 0 8 0 a4 4 0 1 0 -8 0zM1364 760 a4 4 0 1 0 8 0 a4 4 0 1 0 -8 0zM1348 648 a4 4 0 1 0 8 0 a4 4 0 1 0 -8 0zM1396 376 a4 4 0 1 0 8 0 a4 4 0 1 0 -8 0zM1332 616 a4 4 0 1 0 8 0 a4 4 0 1 0 -8 0zM1364 840 a4 4 0 1 0 8 0 a4 4 0 1 0 -8 0zM1348 696 a4 4 0 1 0 8 0 a4 4 0 1 0 -8 0zM1332 760 a4 4 0 1 0 8 0 a4 4 0 1 0 -8 0z" fill="url(#SvgjsLinearGradient1014)"></path>
            <path d="M520 872L536 856L536 840M520 792L520 776L520 760M520 920L536 904M520 952L536 936L536 920M536 968L536 952M520 888L536 872M616 1096L616 1080L600 1064L584 1048L568 1032L552 1016L552 1000L552 984L536 968L520 952L520 936L520 920L520 904L520 888L520 872L520 856L520 840L520 824L520 808L520 792L504 776L504 760L504 744L504 728L504 712" stroke="url(#SvgjsLinearGradient1014)" stroke-width="2.67"></path>
            <path d="M500 712 a4 4 0 1 0 8 0 a4 4 0 1 0 -8 0zM532 840 a4 4 0 1 0 8 0 a4 4 0 1 0 -8 0zM516 760 a4 4 0 1 0 8 0 a4 4 0 1 0 -8 0zM532 904 a4 4 0 1 0 8 0 a4 4 0 1 0 -8 0zM532 920 a4 4 0 1 0 8 0 a4 4 0 1 0 -8 0zM532 952 a4 4 0 1 0 8 0 a4 4 0 1 0 -8 0zM532 872 a4 4 0 1 0 8 0 a4 4 0 1 0 -8 0z" fill="url(#SvgjsLinearGradient1014)"></path>
            <path d="M1368 968L1368 952L1368 936L1368 920M1384 792L1400 776L1400 760M1416 424L1432 408L1432 392L1432 376L1448 360M1384 824L1400 808L1400 792L1416 776M1400 632L1416 616L1416 600L1416 584L1416 568L1432 552L1448 536L1448 520M1400 664L1416 648L1416 632L1432 616L1432 600L1432 584L1432 568L1448 552L1464 536M1432 472L1416 456M1384 920L1400 904L1400 888L1400 872L1400 856L1400 840L1400 824L1416 808M1384 744L1384 728L1384 712L1384 696L1384 680L1384 664L1384 648L1384 632L1384 616M1432 536L1416 520L1416 504L1416 488L1416 472M1432 504L1448 488L1448 472M1400 712L1416 696L1416 680L1416 664L1432 648M1320 1096L1320 1080L1320 1064L1336 1048L1336 1032L1352 1016L1368 1000L1368 984L1368 968L1384 952L1384 936L1384 920L1384 904L1384 888L1384 872L1384 856L1384 840L1384 824L1384 808L1384 792L1384 776L1384 760L1384 744L1400 728L1400 712L1400 696L1400 680L1400 664L1400 648L1400 632L1400 616L1400 600L1400 584L1400 568L1416 552L1432 536L1432 520L1432 504L1432 488L1432 472L1432 456L1416 440L1416 424L1416 408L1416 392L1416 376L1432 360L1432 344" stroke="url(#SvgjsLinearGradient1014)" stroke-width="2.67"></path>
            <path d="M1428 344 a4 4 0 1 0 8 0 a4 4 0 1 0 -8 0zM1364 920 a4 4 0 1 0 8 0 a4 4 0 1 0 -8 0zM1396 760 a4 4 0 1 0 8 0 a4 4 0 1 0 -8 0zM1444 360 a4 4 0 1 0 8 0 a4 4 0 1 0 -8 0zM1412 776 a4 4 0 1 0 8 0 a4 4 0 1 0 -8 0zM1444 520 a4 4 0 1 0 8 0 a4 4 0 1 0 -8 0zM1460 536 a4 4 0 1 0 8 0 a4 4 0 1 0 -8 0zM1412 456 a4 4 0 1 0 8 0 a4 4 0 1 0 -8 0zM1412 808 a4 4 0 1 0 8 0 a4 4 0 1 0 -8 0zM1380 616 a4 4 0 1 0 8 0 a4 4 0 1 0 -8 0zM1412 472 a4 4 0 1 0 8 0 a4 4 0 1 0 -8 0zM1444 472 a4 4 0 1 0 8 0 a4 4 0 1 0 -8 0zM1428 648 a4 4 0 1 0 8 0 a4 4 0 1 0 -8 0z" fill="url(#SvgjsLinearGradient1014)"></path>
            <path d="M504 808L488 792L472 776L472 760M504 904L488 888L488 872L488 856M488 744L472 728M504 840L488 824M600 1096L600 1080L584 1064L568 1048L552 1032L536 1016L536 1000L536 984L520 968L504 952L504 936L504 920L504 904L504 888L504 872L504 856L504 840L504 824L504 808L504 792L488 776L488 760L488 744L488 728" stroke="url(#SvgjsLinearGradient1014)" stroke-width="2.67"></path>
            <path d="M484 728 a4 4 0 1 0 8 0 a4 4 0 1 0 -8 0zM468 760 a4 4 0 1 0 8 0 a4 4 0 1 0 -8 0zM484 856 a4 4 0 1 0 8 0 a4 4 0 1 0 -8 0zM468 728 a4 4 0 1 0 8 0 a4 4 0 1 0 -8 0zM484 824 a4 4 0 1 0 8 0 a4 4 0 1 0 -8 0z" fill="url(#SvgjsLinearGradient1014)"></path>
            <path d="M1480 696L1464 680L1448 664L1448 648L1448 632L1448 616L1448 600L1448 584M1496 344L1512 328L1512 312L1512 296L1512 280M1448 792L1432 776M1480 632L1464 616L1464 600M1464 728L1464 712L1464 696L1448 680L1432 664M1416 904L1416 888L1416 872L1416 856L1416 840L1416 824M1496 392L1480 376L1480 360L1480 344L1480 328M1496 296L1480 280L1480 264L1480 248M1496 456L1480 440L1480 424L1480 408M1480 504L1480 488L1480 472L1480 456L1464 440L1464 424L1464 408L1464 392L1464 376L1464 360L1464 344L1448 328L1432 312L1432 296L1432 280L1432 264M1480 664L1464 648L1464 632M1480 536L1496 520L1496 504M1464 744L1448 728L1448 712L1448 696L1432 680M1336 1096L1336 1080L1336 1064L1352 1048L1352 1032L1368 1016L1384 1000L1384 984L1384 968L1400 952L1416 936L1416 920L1416 904L1432 888L1432 872L1432 856L1432 840L1432 824L1432 808L1448 792L1448 776L1448 760L1464 744L1464 728L1480 712L1480 696L1480 680L1480 664L1480 648L1480 632L1480 616L1480 600L1480 584L1480 568L1480 552L1480 536L1480 520L1480 504L1496 488L1496 472L1496 456L1496 440L1496 424L1496 408L1496 392L1496 376L1496 360L1496 344L1496 328L1496 312L1496 296L1496 280L1496 264L1496 248" stroke="url(#SvgjsLinearGradient1014)" stroke-width="2.67"></path>
            <path d="M1492 248 a4 4 0 1 0 8 0 a4 4 0 1 0 -8 0zM1444 584 a4 4 0 1 0 8 0 a4 4 0 1 0 -8 0zM1508 280 a4 4 0 1 0 8 0 a4 4 0 1 0 -8 0zM1428 776 a4 4 0 1 0 8 0 a4 4 0 1 0 -8 0zM1460 600 a4 4 0 1 0 8 0 a4 4 0 1 0 -8 0zM1428 664 a4 4 0 1 0 8 0 a4 4 0 1 0 -8 0zM1412 824 a4 4 0 1 0 8 0 a4 4 0 1 0 -8 0zM1476 328 a4 4 0 1 0 8 0 a4 4 0 1 0 -8 0zM1476 248 a4 4 0 1 0 8 0 a4 4 0 1 0 -8 0zM1476 408 a4 4 0 1 0 8 0 a4 4 0 1 0 -8 0zM1428 264 a4 4 0 1 0 8 0 a4 4 0 1 0 -8 0zM1460 632 a4 4 0 1 0 8 0 a4 4 0 1 0 -8 0zM1492 504 a4 4 0 1 0 8 0 a4 4 0 1 0 -8 0zM1428 680 a4 4 0 1 0 8 0 a4 4 0 1 0 -8 0z" fill="url(#SvgjsLinearGradient1014)"></path>
            <path d="M408 696L424 680M408 648L392 632L392 616L392 600L392 584L392 568M472 904L472 888M440 824L440 808L440 792M456 872L472 856L488 840M392 536L408 520L408 504L408 488L408 472L408 456L408 440M408 728L424 712L424 696L440 680L440 664L440 648L440 632L440 616L440 600M408 616L424 600L424 584L424 568L424 552L408 536M408 744L424 728L440 712L440 696M584 1096L584 1080L568 1064L552 1048L536 1032L520 1016L520 1000L520 984L504 968L488 952L488 936L488 920L472 904L456 888L456 872L456 856L456 840L440 824L424 808L424 792L408 776L408 760L408 744L408 728L408 712L408 696L408 680L408 664L408 648L408 632L408 616L408 600L408 584L408 568L392 552L392 536L392 520" stroke="url(#SvgjsLinearGradient1014)" stroke-width="2.67"></path>
            <path d="M388 520 a4 4 0 1 0 8 0 a4 4 0 1 0 -8 0zM420 680 a4 4 0 1 0 8 0 a4 4 0 1 0 -8 0zM388 568 a4 4 0 1 0 8 0 a4 4 0 1 0 -8 0zM468 888 a4 4 0 1 0 8 0 a4 4 0 1 0 -8 0zM436 792 a4 4 0 1 0 8 0 a4 4 0 1 0 -8 0zM484 840 a4 4 0 1 0 8 0 a4 4 0 1 0 -8 0zM404 440 a4 4 0 1 0 8 0 a4 4 0 1 0 -8 0zM436 600 a4 4 0 1 0 8 0 a4 4 0 1 0 -8 0zM404 536 a4 4 0 1 0 8 0 a4 4 0 1 0 -8 0zM436 696 a4 4 0 1 0 8 0 a4 4 0 1 0 -8 0z" fill="url(#SvgjsLinearGradient1014)"></path>
            <path d="M1352 1096L1352 1080L1352 1064L1368 1048L1368 1032L1384 1016L1400 1000L1400 984L1400 968L1416 952L1432 936L1432 920L1432 904L1448 888L1448 872L1448 856L1448 840L1448 824L1448 808L1464 792L1464 776L1464 760" stroke="url(#SvgjsLinearGradient1014)" stroke-width="2.67"></path>
            <path d="M1460 760 a4 4 0 1 0 8 0 a4 4 0 1 0 -8 0z" fill="url(#SvgjsLinearGradient1014)"></path>
            <path d="M440 856L424 840M472 936L472 920M568 1096L568 1080L552 1064L536 1048L520 1032L504 1016L504 1000L504 984L488 968L472 952L472 936L456 920L456 904L440 888L440 872L440 856L440 840L424 824L408 808L408 792L392 776L392 760L392 744L392 728L392 712L392 696L392 680L392 664" stroke="url(#SvgjsLinearGradient1014)" stroke-width="2.67"></path>
            <path d="M388 664 a4 4 0 1 0 8 0 a4 4 0 1 0 -8 0zM420 840 a4 4 0 1 0 8 0 a4 4 0 1 0 -8 0zM468 920 a4 4 0 1 0 8 0 a4 4 0 1 0 -8 0z" fill="url(#SvgjsLinearGradient1014)"></path>
            <path d="M1496 696L1512 680L1512 664L1512 648L1512 632L1512 616M1368 1096L1368 1080L1368 1064L1384 1048L1384 1032L1400 1016L1416 1000L1416 984L1416 968L1432 952L1448 936L1448 920L1448 904L1464 888L1464 872L1464 856L1464 840L1464 824L1464 808L1480 792L1480 776L1480 760L1480 744L1480 728L1496 712L1496 696L1496 680L1496 664L1496 648L1496 632L1496 616L1496 600L1496 584L1496 568" stroke="url(#SvgjsLinearGradient1014)" stroke-width="2.67"></path>
            <path d="M1492 568 a4 4 0 1 0 8 0 a4 4 0 1 0 -8 0zM1508 616 a4 4 0 1 0 8 0 a4 4 0 1 0 -8 0z" fill="url(#SvgjsLinearGradient1014)"></path>
            <path d="M392 504L376 488M376 552L360 536L360 520L360 504L360 488L360 472M376 632L360 616M376 520L376 504M376 648L360 632M376 584L360 568L360 552L344 536L344 520L344 504L344 488L344 472L344 456L344 440M376 664L360 648M424 872L424 856M376 600L360 584L344 568L344 552M376 680L360 664M552 1096L552 1080L536 1064L520 1048L504 1032L488 1016L488 1000L488 984L472 968L456 952L440 936L440 920L440 904L424 888L424 872L408 856L408 840L408 824L392 808L392 792L376 776L376 760L376 744L376 728L376 712L376 696L376 680L376 664L376 648L376 632L376 616L376 600L376 584L376 568L376 552L376 536L376 520L392 504L392 488L392 472" stroke="url(#SvgjsLinearGradient1014)" stroke-width="2.67"></path>
            <path d="M388 472 a4 4 0 1 0 8 0 a4 4 0 1 0 -8 0zM372 488 a4 4 0 1 0 8 0 a4 4 0 1 0 -8 0zM356 472 a4 4 0 1 0 8 0 a4 4 0 1 0 -8 0zM356 616 a4 4 0 1 0 8 0 a4 4 0 1 0 -8 0zM372 504 a4 4 0 1 0 8 0 a4 4 0 1 0 -8 0zM356 632 a4 4 0 1 0 8 0 a4 4 0 1 0 -8 0zM340 440 a4 4 0 1 0 8 0 a4 4 0 1 0 -8 0zM356 648 a4 4 0 1 0 8 0 a4 4 0 1 0 -8 0zM420 856 a4 4 0 1 0 8 0 a4 4 0 1 0 -8 0zM340 552 a4 4 0 1 0 8 0 a4 4 0 1 0 -8 0zM356 664 a4 4 0 1 0 8 0 a4 4 0 1 0 -8 0z" fill="url(#SvgjsLinearGradient1014)"></path>
            <path d="M1400 1048L1400 1032M1416 1032L1432 1016M1384 1096L1384 1080L1384 1064L1400 1048L1416 1032L1416 1016L1432 1000" stroke="url(#SvgjsLinearGradient1014)" stroke-width="2.67"></path>
            <path d="M1428 1000 a4 4 0 1 0 8 0 a4 4 0 1 0 -8 0zM1396 1032 a4 4 0 1 0 8 0 a4 4 0 1 0 -8 0zM1428 1016 a4 4 0 1 0 8 0 a4 4 0 1 0 -8 0z" fill="url(#SvgjsLinearGradient1014)"></path>
            <path d="M328 616L344 600L344 584M360 712L344 696M360 696L360 680M344 632L344 616M360 728L344 712M536 1096L536 1080L520 1064L504 1048L488 1032L472 1016L472 1000L472 984L456 968L440 952L424 936L424 920L424 904L408 888L408 872L392 856L392 840L392 824L376 808L376 792L360 776L360 760L360 744L360 728L360 712L360 696L344 680L344 664L344 648L344 632L328 616L328 600L328 584L328 568L328 552L328 536L328 520L328 504L328 488L328 472L328 456" stroke="url(#SvgjsLinearGradient1014)" stroke-width="2.67"></path>
            <path d="M324 456 a4 4 0 1 0 8 0 a4 4 0 1 0 -8 0zM340 584 a4 4 0 1 0 8 0 a4 4 0 1 0 -8 0zM340 696 a4 4 0 1 0 8 0 a4 4 0 1 0 -8 0zM356 680 a4 4 0 1 0 8 0 a4 4 0 1 0 -8 0zM340 616 a4 4 0 1 0 8 0 a4 4 0 1 0 -8 0zM340 712 a4 4 0 1 0 8 0 a4 4 0 1 0 -8 0z" fill="url(#SvgjsLinearGradient1014)"></path>
            <path d="M1512 568L1528 552L1528 536L1528 520L1528 504L1528 488L1528 472L1528 456L1528 440L1528 424L1544 408L1544 392L1544 376L1544 360L1544 344L1544 328L1544 312L1544 296L1544 280M1480 824L1496 808M1528 616L1528 600L1528 584L1528 568L1544 552L1544 536L1544 520L1544 504L1544 488L1544 472M1464 968L1448 952M1512 408L1528 392M1512 712L1512 696M1464 984L1448 968M1496 792L1512 776L1512 760L1512 744L1512 728M1480 840L1496 824M1528 632L1544 616L1544 600L1544 584L1544 568L1560 552L1560 536M1400 1080L1400 1064M1528 648L1544 632L1560 616L1560 600L1560 584M1512 552L1496 536M1400 1096L1400 1080L1416 1064L1432 1048L1448 1032L1448 1016L1448 1000L1464 984L1464 968L1464 952L1464 936L1464 920L1464 904L1480 888L1480 872L1480 856L1480 840L1480 824L1480 808L1496 792L1496 776L1496 760L1496 744L1496 728L1512 712L1528 696L1528 680L1528 664L1528 648L1528 632L1528 616L1512 600L1512 584L1512 568L1512 552L1512 536L1512 520L1512 504L1512 488L1512 472L1512 456L1512 440L1512 424L1512 408L1512 392L1512 376L1512 360L1528 344L1528 328L1528 312L1528 296L1528 280L1528 264L1528 248" stroke="url(#SvgjsLinearGradient1014)" stroke-width="2.67"></path>
            <path d="M1524 248 a4 4 0 1 0 8 0 a4 4 0 1 0 -8 0zM1540 280 a4 4 0 1 0 8 0 a4 4 0 1 0 -8 0zM1492 808 a4 4 0 1 0 8 0 a4 4 0 1 0 -8 0zM1540 472 a4 4 0 1 0 8 0 a4 4 0 1 0 -8 0zM1444 952 a4 4 0 1 0 8 0 a4 4 0 1 0 -8 0zM1524 392 a4 4 0 1 0 8 0 a4 4 0 1 0 -8 0zM1508 696 a4 4 0 1 0 8 0 a4 4 0 1 0 -8 0zM1444 968 a4 4 0 1 0 8 0 a4 4 0 1 0 -8 0zM1508 728 a4 4 0 1 0 8 0 a4 4 0 1 0 -8 0zM1492 824 a4 4 0 1 0 8 0 a4 4 0 1 0 -8 0zM1556 536 a4 4 0 1 0 8 0 a4 4 0 1 0 -8 0zM1396 1064 a4 4 0 1 0 8 0 a4 4 0 1 0 -8 0zM1556 584 a4 4 0 1 0 8 0 a4 4 0 1 0 -8 0zM1492 536 a4 4 0 1 0 8 0 a4 4 0 1 0 -8 0z" fill="url(#SvgjsLinearGradient1014)"></path>
            <path d="M312 408L296 392M328 664L312 648L312 632M312 424L328 408L344 392L344 376L344 360L344 344M312 376L328 360L328 344M376 840L376 824M344 760L344 744L344 728M312 440L296 424L296 408M328 296L344 280L344 264L344 248M312 456L296 440M312 392L328 376M312 568L296 552L296 536L296 520M328 696L312 680L312 664M328 328L312 312L312 296L312 280M520 1096L520 1080L504 1064L488 1048L472 1032L456 1016L456 1000L456 984L440 968L424 952L408 936L408 920L408 904L392 888L392 872L376 856L376 840L360 824L360 808L360 792L344 776L344 760L328 744L328 728L328 712L328 696L328 680L328 664L328 648L328 632L312 616L312 600L312 584L312 568L312 552L312 536L312 520L312 504L312 488L312 472L312 456L312 440L312 424L312 408L312 392L312 376L312 360L312 344L328 328L328 312L328 296L328 280L328 264" stroke="url(#SvgjsLinearGradient1014)" stroke-width="2.67"></path>
            <path d="M324 264 a4 4 0 1 0 8 0 a4 4 0 1 0 -8 0zM292 392 a4 4 0 1 0 8 0 a4 4 0 1 0 -8 0zM308 632 a4 4 0 1 0 8 0 a4 4 0 1 0 -8 0zM340 344 a4 4 0 1 0 8 0 a4 4 0 1 0 -8 0zM324 344 a4 4 0 1 0 8 0 a4 4 0 1 0 -8 0zM372 824 a4 4 0 1 0 8 0 a4 4 0 1 0 -8 0zM340 728 a4 4 0 1 0 8 0 a4 4 0 1 0 -8 0zM292 408 a4 4 0 1 0 8 0 a4 4 0 1 0 -8 0zM340 248 a4 4 0 1 0 8 0 a4 4 0 1 0 -8 0zM292 440 a4 4 0 1 0 8 0 a4 4 0 1 0 -8 0zM324 376 a4 4 0 1 0 8 0 a4 4 0 1 0 -8 0zM292 520 a4 4 0 1 0 8 0 a4 4 0 1 0 -8 0zM308 664 a4 4 0 1 0 8 0 a4 4 0 1 0 -8 0zM308 280 a4 4 0 1 0 8 0 a4 4 0 1 0 -8 0z" fill="url(#SvgjsLinearGradient1014)"></path>
            <path d="M1560 504L1576 488L1576 472L1576 456L1576 440M1576 600L1592 584L1592 568L1592 552L1608 536L1608 520L1608 504M1560 344L1576 328L1576 312L1576 296L1576 280M1560 376L1576 360L1576 344L1592 328L1592 312L1592 296L1608 280L1624 264L1624 248M1528 776L1544 760L1544 744L1544 728L1544 712L1560 696M1512 856L1496 840M1560 408L1576 392L1576 376L1592 360L1592 344L1608 328L1608 312L1608 296L1624 280L1640 264L1640 248M1560 440L1544 424M1576 536L1576 520L1576 504L1592 488L1592 472L1592 456L1592 440L1592 424L1592 408L1592 392L1592 376M1544 664L1544 648M1560 648L1560 632M1560 424L1576 408M1416 1096L1416 1080L1432 1064L1448 1048L1464 1032L1464 1016L1464 1000L1480 984L1480 968L1480 952L1480 936L1480 920L1480 904L1496 888L1496 872L1512 856L1512 840L1512 824L1512 808L1528 792L1528 776L1528 760L1528 744L1528 728L1528 712L1544 696L1544 680L1544 664L1560 648L1576 632L1576 616L1576 600L1576 584L1576 568L1576 552L1576 536L1560 520L1560 504L1560 488L1560 472L1560 456L1560 440L1560 424L1560 408L1560 392L1560 376L1560 360L1560 344L1560 328" stroke="url(#SvgjsLinearGradient1014)" stroke-width="2.67"></path>
            <path d="M1556 328 a4 4 0 1 0 8 0 a4 4 0 1 0 -8 0zM1572 440 a4 4 0 1 0 8 0 a4 4 0 1 0 -8 0zM1604 504 a4 4 0 1 0 8 0 a4 4 0 1 0 -8 0zM1572 280 a4 4 0 1 0 8 0 a4 4 0 1 0 -8 0zM1620 248 a4 4 0 1 0 8 0 a4 4 0 1 0 -8 0zM1556 696 a4 4 0 1 0 8 0 a4 4 0 1 0 -8 0zM1492 840 a4 4 0 1 0 8 0 a4 4 0 1 0 -8 0zM1636 248 a4 4 0 1 0 8 0 a4 4 0 1 0 -8 0zM1540 424 a4 4 0 1 0 8 0 a4 4 0 1 0 -8 0zM1588 376 a4 4 0 1 0 8 0 a4 4 0 1 0 -8 0zM1540 648 a4 4 0 1 0 8 0 a4 4 0 1 0 -8 0zM1556 632 a4 4 0 1 0 8 0 a4 4 0 1 0 -8 0zM1572 408 a4 4 0 1 0 8 0 a4 4 0 1 0 -8 0z" fill="url(#SvgjsLinearGradient1014)"></path>
            <path d="M296 296L280 280L280 264L280 248M296 600L296 584L296 568M296 504L280 488L280 472L264 456L264 440L264 424M280 408L264 392L264 376M280 584L264 568L264 552L264 536L264 520L280 504M296 632L280 616L264 600L248 584L248 568L248 552M296 328L280 312L280 296L264 280L248 264L248 248M296 680L280 664L280 648M296 344L280 328L264 312L264 296L248 280M296 376L280 360L280 344L264 328L248 312M312 712L312 696M280 392L280 376M296 472L296 456M504 1096L504 1080L488 1064L472 1048L456 1032L440 1016L440 1000L440 984L424 968L408 952L392 936L392 920L392 904L376 888L376 872L360 856L360 840L344 824L344 808L344 792L328 776L328 760L312 744L312 728L312 712L296 696L296 680L296 664L296 648L296 632L296 616L296 600L280 584L280 568L280 552L280 536L280 520L296 504L296 488L296 472L280 456L280 440L280 424L280 408L280 392L296 376L296 360L296 344L296 328L296 312L296 296L296 280L296 264L312 248" stroke="url(#SvgjsLinearGradient1014)" stroke-width="2.67"></path>
            <path d="M308 248 a4 4 0 1 0 8 0 a4 4 0 1 0 -8 0zM276 248 a4 4 0 1 0 8 0 a4 4 0 1 0 -8 0zM292 568 a4 4 0 1 0 8 0 a4 4 0 1 0 -8 0zM260 424 a4 4 0 1 0 8 0 a4 4 0 1 0 -8 0zM260 376 a4 4 0 1 0 8 0 a4 4 0 1 0 -8 0zM276 504 a4 4 0 1 0 8 0 a4 4 0 1 0 -8 0zM244 552 a4 4 0 1 0 8 0 a4 4 0 1 0 -8 0zM244 248 a4 4 0 1 0 8 0 a4 4 0 1 0 -8 0zM276 648 a4 4 0 1 0 8 0 a4 4 0 1 0 -8 0zM244 280 a4 4 0 1 0 8 0 a4 4 0 1 0 -8 0zM244 312 a4 4 0 1 0 8 0 a4 4 0 1 0 -8 0zM308 696 a4 4 0 1 0 8 0 a4 4 0 1 0 -8 0zM276 376 a4 4 0 1 0 8 0 a4 4 0 1 0 -8 0zM292 456 a4 4 0 1 0 8 0 a4 4 0 1 0 -8 0z" fill="url(#SvgjsLinearGradient1014)"></path>
            <path d="M1480 1016L1496 1000M1528 872L1544 856L1544 840L1544 824M1480 1032L1496 1016M1496 952L1512 936L1512 920M1432 1096L1432 1080L1448 1064L1464 1048L1480 1032L1480 1016L1480 1000L1496 984L1496 968L1496 952L1496 936L1496 920L1496 904L1512 888L1528 872L1528 856" stroke="url(#SvgjsLinearGradient1014)" stroke-width="2.67"></path>
            <path d="M1524 856 a4 4 0 1 0 8 0 a4 4 0 1 0 -8 0zM1492 1000 a4 4 0 1 0 8 0 a4 4 0 1 0 -8 0zM1540 824 a4 4 0 1 0 8 0 a4 4 0 1 0 -8 0zM1492 1016 a4 4 0 1 0 8 0 a4 4 0 1 0 -8 0zM1508 920 a4 4 0 1 0 8 0 a4 4 0 1 0 -8 0z" fill="url(#SvgjsLinearGradient1014)"></path>
            <path d="M328 824L312 808L312 792L296 776L296 760L280 744L280 728M344 856L328 840L312 824L296 808L296 792M424 1016L408 1000L408 984M376 936L360 920L360 904L344 888L344 872L328 856M488 1096L488 1080L472 1064L456 1048L440 1032L424 1016L424 1000L424 984L408 968L392 952L376 936L376 920L376 904L360 888L360 872L344 856L344 840L328 824L328 808L328 792L312 776L312 760L296 744L296 728L296 712L280 696" stroke="url(#SvgjsLinearGradient1014)" stroke-width="2.67"></path>
            <path d="M276 696 a4 4 0 1 0 8 0 a4 4 0 1 0 -8 0zM276 728 a4 4 0 1 0 8 0 a4 4 0 1 0 -8 0zM292 792 a4 4 0 1 0 8 0 a4 4 0 1 0 -8 0zM404 984 a4 4 0 1 0 8 0 a4 4 0 1 0 -8 0zM324 856 a4 4 0 1 0 8 0 a4 4 0 1 0 -8 0z" fill="url(#SvgjsLinearGradient1014)"></path>
        </g>
    </g>
    <defs>
        <mask id="SvgjsMask1012">
            <rect width="1920" height="1080" fill="#ffffff"></rect>
        </mask>
        <linearGradient x1="50%" y1="0%" x2="50%" y2="100%" gradientUnits="userSpaceOnUse" id="SvgjsLinearGradient1013">
            <stop stop-color="rgba(47, 57, 67, 1)" offset="0.02"></stop>
            <stop stop-color="rgba(24, 33, 43, 1)" offset="0.86"></stop>
        </linearGradient>
        <linearGradient x1="960" y1="216" x2="960" y2="1080" gradientUnits="userSpaceOnUse" id="SvgjsLinearGradient1014">
            <stop stop-color="rgba(230, 211, 180, 1)" offset="0"></stop>
            <stop stop-color="rgba(238, 207, 163, 1)" offset="0.5"></stop>
            <stop stop-color="rgba(218, 172, 122, 1)" offset="1"></stop>
        </linearGradient>
        <mask id="SvgjsMask1015">
            <rect width="1920" height="1080" fill="white"></rect>
            <path d="M966 1032 a2 2 0 1 0 4 0 a2 2 0 1 0 -4 0z" fill="black"></path>
            <path d="M902 408 a2 2 0 1 0 4 0 a2 2 0 1 0 -4 0zM950 792 a2 2 0 1 0 4 0 a2 2 0 1 0 -4 0zM950 680 a2 2 0 1 0 4 0 a2 2 0 1 0 -4 0zM950 712 a2 2 0 1 0 4 0 a2 2 0 1 0 -4 0zM854 376 a2 2 0 1 0 4 0 a2 2 0 1 0 -4 0zM934 776 a2 2 0 1 0 4 0 a2 2 0 1 0 -4 0zM982 888 a2 2 0 1 0 4 0 a2 2 0 1 0 -4 0zM918 600 a2 2 0 1 0 4 0 a2 2 0 1 0 -4 0zM966 968 a2 2 0 1 0 4 0 a2 2 0 1 0 -4 0zM902 680 a2 2 0 1 0 4 0 a2 2 0 1 0 -4 0zM902 536 a2 2 0 1 0 4 0 a2 2 0 1 0 -4 0zM886 280 a2 2 0 1 0 4 0 a2 2 0 1 0 -4 0z" fill="black"></path>
            <path d="M998 840 a2 2 0 1 0 4 0 a2 2 0 1 0 -4 0zM982 824 a2 2 0 1 0 4 0 a2 2 0 1 0 -4 0zM966 984 a2 2 0 1 0 4 0 a2 2 0 1 0 -4 0zM982 936 a2 2 0 1 0 4 0 a2 2 0 1 0 -4 0zM966 824 a2 2 0 1 0 4 0 a2 2 0 1 0 -4 0z" fill="black"></path>
            <path d="M854 632 a2 2 0 1 0 4 0 a2 2 0 1 0 -4 0zM886 632 a2 2 0 1 0 4 0 a2 2 0 1 0 -4 0z" fill="black"></path>
            <path d="M982 648 a2 2 0 1 0 4 0 a2 2 0 1 0 -4 0zM1030 824 a2 2 0 1 0 4 0 a2 2 0 1 0 -4 0zM966 664 a2 2 0 1 0 4 0 a2 2 0 1 0 -4 0zM998 728 a2 2 0 1 0 4 0 a2 2 0 1 0 -4 0zM998 632 a2 2 0 1 0 4 0 a2 2 0 1 0 -4 0zM1046 856 a2 2 0 1 0 4 0 a2 2 0 1 0 -4 0zM982 744 a2 2 0 1 0 4 0 a2 2 0 1 0 -4 0zM1030 776 a2 2 0 1 0 4 0 a2 2 0 1 0 -4 0z" fill="black"></path>
            <path d="M822 392 a2 2 0 1 0 4 0 a2 2 0 1 0 -4 0zM838 376 a2 2 0 1 0 4 0 a2 2 0 1 0 -4 0zM806 504 a2 2 0 1 0 4 0 a2 2 0 1 0 -4 0zM806 552 a2 2 0 1 0 4 0 a2 2 0 1 0 -4 0zM806 360 a2 2 0 1 0 4 0 a2 2 0 1 0 -4 0zM790 360 a2 2 0 1 0 4 0 a2 2 0 1 0 -4 0zM838 632 a2 2 0 1 0 4 0 a2 2 0 1 0 -4 0zM806 472 a2 2 0 1 0 4 0 a2 2 0 1 0 -4 0zM838 408 a2 2 0 1 0 4 0 a2 2 0 1 0 -4 0zM790 552 a2 2 0 1 0 4 0 a2 2 0 1 0 -4 0z" fill="black"></path>
            <path d="M1062 872 a2 2 0 1 0 4 0 a2 2 0 1 0 -4 0zM1014 952 a2 2 0 1 0 4 0 a2 2 0 1 0 -4 0zM1046 872 a2 2 0 1 0 4 0 a2 2 0 1 0 -4 0zM1030 1016 a2 2 0 1 0 4 0 a2 2 0 1 0 -4 0z" fill="black"></path>
            <path d="M822 664 a2 2 0 1 0 4 0 a2 2 0 1 0 -4 0zM870 808 a2 2 0 1 0 4 0 a2 2 0 1 0 -4 0zM870 856 a2 2 0 1 0 4 0 a2 2 0 1 0 -4 0z" fill="black"></path>
            <path d="M806 616 a2 2 0 1 0 4 0 a2 2 0 1 0 -4 0zM838 712 a2 2 0 1 0 4 0 a2 2 0 1 0 -4 0zM838 776 a2 2 0 1 0 4 0 a2 2 0 1 0 -4 0zM870 872 a2 2 0 1 0 4 0 a2 2 0 1 0 -4 0zM790 600 a2 2 0 1 0 4 0 a2 2 0 1 0 -4 0zM822 712 a2 2 0 1 0 4 0 a2 2 0 1 0 -4 0z" fill="black"></path>
            <path d="M1030 968 a2 2 0 1 0 4 0 a2 2 0 1 0 -4 0zM1078 952 a2 2 0 1 0 4 0 a2 2 0 1 0 -4 0zM1030 984 a2 2 0 1 0 4 0 a2 2 0 1 0 -4 0z" fill="black"></path>
            <path d="M838 856 a2 2 0 1 0 4 0 a2 2 0 1 0 -4 0zM854 952 a2 2 0 1 0 4 0 a2 2 0 1 0 -4 0zM854 1000 a2 2 0 1 0 4 0 a2 2 0 1 0 -4 0zM838 888 a2 2 0 1 0 4 0 a2 2 0 1 0 -4 0zM822 840 a2 2 0 1 0 4 0 a2 2 0 1 0 -4 0z" fill="black"></path>
            <path d="M1094 472 a2 2 0 1 0 4 0 a2 2 0 1 0 -4 0zM1078 456 a2 2 0 1 0 4 0 a2 2 0 1 0 -4 0zM1094 760 a2 2 0 1 0 4 0 a2 2 0 1 0 -4 0zM1110 568 a2 2 0 1 0 4 0 a2 2 0 1 0 -4 0zM1062 744 a2 2 0 1 0 4 0 a2 2 0 1 0 -4 0zM1062 984 a2 2 0 1 0 4 0 a2 2 0 1 0 -4 0zM1126 424 a2 2 0 1 0 4 0 a2 2 0 1 0 -4 0zM1078 696 a2 2 0 1 0 4 0 a2 2 0 1 0 -4 0zM1094 856 a2 2 0 1 0 4 0 a2 2 0 1 0 -4 0zM1110 520 a2 2 0 1 0 4 0 a2 2 0 1 0 -4 0zM1030 728 a2 2 0 1 0 4 0 a2 2 0 1 0 -4 0z" fill="black"></path>
            <path d="M854 1032 a2 2 0 1 0 4 0 a2 2 0 1 0 -4 0z" fill="black"></path>
            <path d="M1158 568 a2 2 0 1 0 4 0 a2 2 0 1 0 -4 0zM1126 712 a2 2 0 1 0 4 0 a2 2 0 1 0 -4 0zM1126 504 a2 2 0 1 0 4 0 a2 2 0 1 0 -4 0zM1094 744 a2 2 0 1 0 4 0 a2 2 0 1 0 -4 0zM1126 840 a2 2 0 1 0 4 0 a2 2 0 1 0 -4 0zM1174 552 a2 2 0 1 0 4 0 a2 2 0 1 0 -4 0zM1126 872 a2 2 0 1 0 4 0 a2 2 0 1 0 -4 0zM1094 904 a2 2 0 1 0 4 0 a2 2 0 1 0 -4 0zM1142 520 a2 2 0 1 0 4 0 a2 2 0 1 0 -4 0z" fill="black"></path>
            <path d="M790 792 a2 2 0 1 0 4 0 a2 2 0 1 0 -4 0zM838 936 a2 2 0 1 0 4 0 a2 2 0 1 0 -4 0zM838 1000 a2 2 0 1 0 4 0 a2 2 0 1 0 -4 0zM822 872 a2 2 0 1 0 4 0 a2 2 0 1 0 -4 0zM822 776 a2 2 0 1 0 4 0 a2 2 0 1 0 -4 0zM822 904 a2 2 0 1 0 4 0 a2 2 0 1 0 -4 0z" fill="black"></path>
            <path d="M1206 552 a2 2 0 1 0 4 0 a2 2 0 1 0 -4 0zM1126 792 a2 2 0 1 0 4 0 a2 2 0 1 0 -4 0zM1190 456 a2 2 0 1 0 4 0 a2 2 0 1 0 -4 0zM1222 552 a2 2 0 1 0 4 0 a2 2 0 1 0 -4 0zM1174 600 a2 2 0 1 0 4 0 a2 2 0 1 0 -4 0zM1158 760 a2 2 0 1 0 4 0 a2 2 0 1 0 -4 0zM1158 648 a2 2 0 1 0 4 0 a2 2 0 1 0 -4 0zM1158 808 a2 2 0 1 0 4 0 a2 2 0 1 0 -4 0zM1126 888 a2 2 0 1 0 4 0 a2 2 0 1 0 -4 0z" fill="black"></path>
            <path d="M790 840 a2 2 0 1 0 4 0 a2 2 0 1 0 -4 0zM790 952 a2 2 0 1 0 4 0 a2 2 0 1 0 -4 0zM790 1000 a2 2 0 1 0 4 0 a2 2 0 1 0 -4 0zM790 1016 a2 2 0 1 0 4 0 a2 2 0 1 0 -4 0z" fill="black"></path>
            <path d="M1238 472 a2 2 0 1 0 4 0 a2 2 0 1 0 -4 0zM1222 568 a2 2 0 1 0 4 0 a2 2 0 1 0 -4 0zM1222 472 a2 2 0 1 0 4 0 a2 2 0 1 0 -4 0zM1190 712 a2 2 0 1 0 4 0 a2 2 0 1 0 -4 0zM1126 984 a2 2 0 1 0 4 0 a2 2 0 1 0 -4 0zM1142 1032 a2 2 0 1 0 4 0 a2 2 0 1 0 -4 0zM1126 1000 a2 2 0 1 0 4 0 a2 2 0 1 0 -4 0zM1158 840 a2 2 0 1 0 4 0 a2 2 0 1 0 -4 0z" fill="black"></path>
            <path d="M742 408 a2 2 0 1 0 4 0 a2 2 0 1 0 -4 0zM742 488 a2 2 0 1 0 4 0 a2 2 0 1 0 -4 0zM790 760 a2 2 0 1 0 4 0 a2 2 0 1 0 -4 0zM758 360 a2 2 0 1 0 4 0 a2 2 0 1 0 -4 0zM774 648 a2 2 0 1 0 4 0 a2 2 0 1 0 -4 0zM790 664 a2 2 0 1 0 4 0 a2 2 0 1 0 -4 0zM790 728 a2 2 0 1 0 4 0 a2 2 0 1 0 -4 0zM790 1032 a2 2 0 1 0 4 0 a2 2 0 1 0 -4 0zM774 456 a2 2 0 1 0 4 0 a2 2 0 1 0 -4 0zM790 520 a2 2 0 1 0 4 0 a2 2 0 1 0 -4 0zM774 488 a2 2 0 1 0 4 0 a2 2 0 1 0 -4 0zM758 808 a2 2 0 1 0 4 0 a2 2 0 1 0 -4 0z" fill="black"></path>
            <path d="M742 264 a2 2 0 1 0 4 0 a2 2 0 1 0 -4 0zM726 792 a2 2 0 1 0 4 0 a2 2 0 1 0 -4 0zM726 600 a2 2 0 1 0 4 0 a2 2 0 1 0 -4 0zM710 312 a2 2 0 1 0 4 0 a2 2 0 1 0 -4 0zM726 856 a2 2 0 1 0 4 0 a2 2 0 1 0 -4 0zM710 392 a2 2 0 1 0 4 0 a2 2 0 1 0 -4 0zM710 248 a2 2 0 1 0 4 0 a2 2 0 1 0 -4 0zM774 1048 a2 2 0 1 0 4 0 a2 2 0 1 0 -4 0zM758 296 a2 2 0 1 0 4 0 a2 2 0 1 0 -4 0zM726 536 a2 2 0 1 0 4 0 a2 2 0 1 0 -4 0zM758 824 a2 2 0 1 0 4 0 a2 2 0 1 0 -4 0zM742 248 a2 2 0 1 0 4 0 a2 2 0 1 0 -4 0zM726 696 a2 2 0 1 0 4 0 a2 2 0 1 0 -4 0zM742 520 a2 2 0 1 0 4 0 a2 2 0 1 0 -4 0z" fill="black"></path>
            <path d="M1254 440 a2 2 0 1 0 4 0 a2 2 0 1 0 -4 0zM1270 536 a2 2 0 1 0 4 0 a2 2 0 1 0 -4 0zM1254 248 a2 2 0 1 0 4 0 a2 2 0 1 0 -4 0zM1142 1048 a2 2 0 1 0 4 0 a2 2 0 1 0 -4 0zM1286 376 a2 2 0 1 0 4 0 a2 2 0 1 0 -4 0zM1190 760 a2 2 0 1 0 4 0 a2 2 0 1 0 -4 0z" fill="black"></path>
            <path d="M742 984 a2 2 0 1 0 4 0 a2 2 0 1 0 -4 0z" fill="black"></path>
            <path d="M1318 248 a2 2 0 1 0 4 0 a2 2 0 1 0 -4 0zM1334 248 a2 2 0 1 0 4 0 a2 2 0 1 0 -4 0zM1238 648 a2 2 0 1 0 4 0 a2 2 0 1 0 -4 0zM1238 664 a2 2 0 1 0 4 0 a2 2 0 1 0 -4 0zM1302 376 a2 2 0 1 0 4 0 a2 2 0 1 0 -4 0zM1318 280 a2 2 0 1 0 4 0 a2 2 0 1 0 -4 0zM1302 248 a2 2 0 1 0 4 0 a2 2 0 1 0 -4 0zM1286 296 a2 2 0 1 0 4 0 a2 2 0 1 0 -4 0zM1286 440 a2 2 0 1 0 4 0 a2 2 0 1 0 -4 0zM1270 584 a2 2 0 1 0 4 0 a2 2 0 1 0 -4 0zM1286 504 a2 2 0 1 0 4 0 a2 2 0 1 0 -4 0zM1350 280 a2 2 0 1 0 4 0 a2 2 0 1 0 -4 0zM1270 552 a2 2 0 1 0 4 0 a2 2 0 1 0 -4 0z" fill="black"></path>
            <path d="M710 472 a2 2 0 1 0 4 0 a2 2 0 1 0 -4 0zM694 536 a2 2 0 1 0 4 0 a2 2 0 1 0 -4 0zM694 456 a2 2 0 1 0 4 0 a2 2 0 1 0 -4 0zM726 888 a2 2 0 1 0 4 0 a2 2 0 1 0 -4 0zM710 904 a2 2 0 1 0 4 0 a2 2 0 1 0 -4 0zM726 744 a2 2 0 1 0 4 0 a2 2 0 1 0 -4 0zM678 504 a2 2 0 1 0 4 0 a2 2 0 1 0 -4 0zM710 920 a2 2 0 1 0 4 0 a2 2 0 1 0 -4 0zM710 952 a2 2 0 1 0 4 0 a2 2 0 1 0 -4 0zM726 760 a2 2 0 1 0 4 0 a2 2 0 1 0 -4 0zM694 648 a2 2 0 1 0 4 0 a2 2 0 1 0 -4 0z" fill="black"></path>
            <path d="M1366 312 a2 2 0 1 0 4 0 a2 2 0 1 0 -4 0zM1254 632 a2 2 0 1 0 4 0 a2 2 0 1 0 -4 0zM1350 344 a2 2 0 1 0 4 0 a2 2 0 1 0 -4 0zM1350 312 a2 2 0 1 0 4 0 a2 2 0 1 0 -4 0zM1270 600 a2 2 0 1 0 4 0 a2 2 0 1 0 -4 0zM1238 680 a2 2 0 1 0 4 0 a2 2 0 1 0 -4 0z" fill="black"></path>
            <path d="M694 680 a2 2 0 1 0 4 0 a2 2 0 1 0 -4 0zM678 920 a2 2 0 1 0 4 0 a2 2 0 1 0 -4 0zM678 840 a2 2 0 1 0 4 0 a2 2 0 1 0 -4 0zM694 632 a2 2 0 1 0 4 0 a2 2 0 1 0 -4 0zM678 712 a2 2 0 1 0 4 0 a2 2 0 1 0 -4 0zM678 984 a2 2 0 1 0 4 0 a2 2 0 1 0 -4 0zM678 936 a2 2 0 1 0 4 0 a2 2 0 1 0 -4 0z" fill="black"></path>
            <path d="M1286 616 a2 2 0 1 0 4 0 a2 2 0 1 0 -4 0zM1270 696 a2 2 0 1 0 4 0 a2 2 0 1 0 -4 0z" fill="black"></path>
            <path d="M662 568 a2 2 0 1 0 4 0 a2 2 0 1 0 -4 0zM678 600 a2 2 0 1 0 4 0 a2 2 0 1 0 -4 0zM630 728 a2 2 0 1 0 4 0 a2 2 0 1 0 -4 0zM646 568 a2 2 0 1 0 4 0 a2 2 0 1 0 -4 0zM646 792 a2 2 0 1 0 4 0 a2 2 0 1 0 -4 0zM678 1000 a2 2 0 1 0 4 0 a2 2 0 1 0 -4 0zM662 744 a2 2 0 1 0 4 0 a2 2 0 1 0 -4 0zM646 824 a2 2 0 1 0 4 0 a2 2 0 1 0 -4 0zM630 744 a2 2 0 1 0 4 0 a2 2 0 1 0 -4 0z" fill="black"></path>
            <path d="M1382 296 a2 2 0 1 0 4 0 a2 2 0 1 0 -4 0zM1270 824 a2 2 0 1 0 4 0 a2 2 0 1 0 -4 0zM1254 888 a2 2 0 1 0 4 0 a2 2 0 1 0 -4 0zM1270 856 a2 2 0 1 0 4 0 a2 2 0 1 0 -4 0zM1414 248 a2 2 0 1 0 4 0 a2 2 0 1 0 -4 0zM1270 712 a2 2 0 1 0 4 0 a2 2 0 1 0 -4 0zM1270 904 a2 2 0 1 0 4 0 a2 2 0 1 0 -4 0zM1270 776 a2 2 0 1 0 4 0 a2 2 0 1 0 -4 0zM1270 792 a2 2 0 1 0 4 0 a2 2 0 1 0 -4 0zM1254 856 a2 2 0 1 0 4 0 a2 2 0 1 0 -4 0zM1302 568 a2 2 0 1 0 4 0 a2 2 0 1 0 -4 0z" fill="black"></path>
            <path d="M646 968 a2 2 0 1 0 4 0 a2 2 0 1 0 -4 0z" fill="black"></path>
            <path d="M1238 1048 a2 2 0 1 0 4 0 a2 2 0 1 0 -4 0z" fill="black"></path>
            <path d="M630 808 a2 2 0 1 0 4 0 a2 2 0 1 0 -4 0zM646 904 a2 2 0 1 0 4 0 a2 2 0 1 0 -4 0zM646 872 a2 2 0 1 0 4 0 a2 2 0 1 0 -4 0z" fill="black"></path>
            <path d="M1270 936 a2 2 0 1 0 4 0 a2 2 0 1 0 -4 0zM1254 1016 a2 2 0 1 0 4 0 a2 2 0 1 0 -4 0z" fill="black"></path>
            <path d="M614 264 a2 2 0 1 0 4 0 a2 2 0 1 0 -4 0zM598 248 a2 2 0 1 0 4 0 a2 2 0 1 0 -4 0zM614 456 a2 2 0 1 0 4 0 a2 2 0 1 0 -4 0zM630 328 a2 2 0 1 0 4 0 a2 2 0 1 0 -4 0zM582 280 a2 2 0 1 0 4 0 a2 2 0 1 0 -4 0zM630 376 a2 2 0 1 0 4 0 a2 2 0 1 0 -4 0zM566 248 a2 2 0 1 0 4 0 a2 2 0 1 0 -4 0zM630 248 a2 2 0 1 0 4 0 a2 2 0 1 0 -4 0zM614 568 a2 2 0 1 0 4 0 a2 2 0 1 0 -4 0zM630 616 a2 2 0 1 0 4 0 a2 2 0 1 0 -4 0zM630 760 a2 2 0 1 0 4 0 a2 2 0 1 0 -4 0zM582 328 a2 2 0 1 0 4 0 a2 2 0 1 0 -4 0zM566 328 a2 2 0 1 0 4 0 a2 2 0 1 0 -4 0zM630 648 a2 2 0 1 0 4 0 a2 2 0 1 0 -4 0z" fill="black"></path>
            <path d="M1382 344 a2 2 0 1 0 4 0 a2 2 0 1 0 -4 0zM1430 248 a2 2 0 1 0 4 0 a2 2 0 1 0 -4 0zM1334 584 a2 2 0 1 0 4 0 a2 2 0 1 0 -4 0zM1366 472 a2 2 0 1 0 4 0 a2 2 0 1 0 -4 0zM1302 728 a2 2 0 1 0 4 0 a2 2 0 1 0 -4 0zM1302 760 a2 2 0 1 0 4 0 a2 2 0 1 0 -4 0z" fill="black"></path>
            <path d="M582 408 a2 2 0 1 0 4 0 a2 2 0 1 0 -4 0zM582 824 a2 2 0 1 0 4 0 a2 2 0 1 0 -4 0zM566 648 a2 2 0 1 0 4 0 a2 2 0 1 0 -4 0zM550 648 a2 2 0 1 0 4 0 a2 2 0 1 0 -4 0zM566 536 a2 2 0 1 0 4 0 a2 2 0 1 0 -4 0zM566 392 a2 2 0 1 0 4 0 a2 2 0 1 0 -4 0zM550 424 a2 2 0 1 0 4 0 a2 2 0 1 0 -4 0zM566 712 a2 2 0 1 0 4 0 a2 2 0 1 0 -4 0zM582 936 a2 2 0 1 0 4 0 a2 2 0 1 0 -4 0zM550 392 a2 2 0 1 0 4 0 a2 2 0 1 0 -4 0zM534 472 a2 2 0 1 0 4 0 a2 2 0 1 0 -4 0zM566 776 a2 2 0 1 0 4 0 a2 2 0 1 0 -4 0z" fill="black"></path>
            <path d="M1318 712 a2 2 0 1 0 4 0 a2 2 0 1 0 -4 0zM1334 808 a2 2 0 1 0 4 0 a2 2 0 1 0 -4 0zM1334 728 a2 2 0 1 0 4 0 a2 2 0 1 0 -4 0zM1318 792 a2 2 0 1 0 4 0 a2 2 0 1 0 -4 0zM1302 776 a2 2 0 1 0 4 0 a2 2 0 1 0 -4 0zM1334 872 a2 2 0 1 0 4 0 a2 2 0 1 0 -4 0zM1334 904 a2 2 0 1 0 4 0 a2 2 0 1 0 -4 0z" fill="black"></path>
            <path d="M470 328 a2 2 0 1 0 4 0 a2 2 0 1 0 -4 0zM486 312 a2 2 0 1 0 4 0 a2 2 0 1 0 -4 0zM454 360 a2 2 0 1 0 4 0 a2 2 0 1 0 -4 0zM534 504 a2 2 0 1 0 4 0 a2 2 0 1 0 -4 0zM550 888 a2 2 0 1 0 4 0 a2 2 0 1 0 -4 0zM502 584 a2 2 0 1 0 4 0 a2 2 0 1 0 -4 0zM550 696 a2 2 0 1 0 4 0 a2 2 0 1 0 -4 0zM566 792 a2 2 0 1 0 4 0 a2 2 0 1 0 -4 0zM550 728 a2 2 0 1 0 4 0 a2 2 0 1 0 -4 0zM534 520 a2 2 0 1 0 4 0 a2 2 0 1 0 -4 0zM502 632 a2 2 0 1 0 4 0 a2 2 0 1 0 -4 0zM534 792 a2 2 0 1 0 4 0 a2 2 0 1 0 -4 0zM518 440 a2 2 0 1 0 4 0 a2 2 0 1 0 -4 0z" fill="black"></path>
            <path d="M1318 968 a2 2 0 1 0 4 0 a2 2 0 1 0 -4 0zM1334 936 a2 2 0 1 0 4 0 a2 2 0 1 0 -4 0zM1334 984 a2 2 0 1 0 4 0 a2 2 0 1 0 -4 0z" fill="black"></path>
            <path d="M550 952 a2 2 0 1 0 4 0 a2 2 0 1 0 -4 0z" fill="black"></path>
            <path d="M1382 440 a2 2 0 1 0 4 0 a2 2 0 1 0 -4 0zM1382 536 a2 2 0 1 0 4 0 a2 2 0 1 0 -4 0zM1382 504 a2 2 0 1 0 4 0 a2 2 0 1 0 -4 0zM1366 584 a2 2 0 1 0 4 0 a2 2 0 1 0 -4 0zM1366 760 a2 2 0 1 0 4 0 a2 2 0 1 0 -4 0zM1350 648 a2 2 0 1 0 4 0 a2 2 0 1 0 -4 0zM1398 376 a2 2 0 1 0 4 0 a2 2 0 1 0 -4 0zM1334 616 a2 2 0 1 0 4 0 a2 2 0 1 0 -4 0zM1366 840 a2 2 0 1 0 4 0 a2 2 0 1 0 -4 0zM1350 696 a2 2 0 1 0 4 0 a2 2 0 1 0 -4 0zM1334 760 a2 2 0 1 0 4 0 a2 2 0 1 0 -4 0z" fill="black"></path>
            <path d="M502 712 a2 2 0 1 0 4 0 a2 2 0 1 0 -4 0zM534 840 a2 2 0 1 0 4 0 a2 2 0 1 0 -4 0zM518 760 a2 2 0 1 0 4 0 a2 2 0 1 0 -4 0zM534 904 a2 2 0 1 0 4 0 a2 2 0 1 0 -4 0zM534 920 a2 2 0 1 0 4 0 a2 2 0 1 0 -4 0zM534 952 a2 2 0 1 0 4 0 a2 2 0 1 0 -4 0zM534 872 a2 2 0 1 0 4 0 a2 2 0 1 0 -4 0z" fill="black"></path>
            <path d="M1430 344 a2 2 0 1 0 4 0 a2 2 0 1 0 -4 0zM1366 920 a2 2 0 1 0 4 0 a2 2 0 1 0 -4 0zM1398 760 a2 2 0 1 0 4 0 a2 2 0 1 0 -4 0zM1446 360 a2 2 0 1 0 4 0 a2 2 0 1 0 -4 0zM1414 776 a2 2 0 1 0 4 0 a2 2 0 1 0 -4 0zM1446 520 a2 2 0 1 0 4 0 a2 2 0 1 0 -4 0zM1462 536 a2 2 0 1 0 4 0 a2 2 0 1 0 -4 0zM1414 456 a2 2 0 1 0 4 0 a2 2 0 1 0 -4 0zM1414 808 a2 2 0 1 0 4 0 a2 2 0 1 0 -4 0zM1382 616 a2 2 0 1 0 4 0 a2 2 0 1 0 -4 0zM1414 472 a2 2 0 1 0 4 0 a2 2 0 1 0 -4 0zM1446 472 a2 2 0 1 0 4 0 a2 2 0 1 0 -4 0zM1430 648 a2 2 0 1 0 4 0 a2 2 0 1 0 -4 0z" fill="black"></path>
            <path d="M486 728 a2 2 0 1 0 4 0 a2 2 0 1 0 -4 0zM470 760 a2 2 0 1 0 4 0 a2 2 0 1 0 -4 0zM486 856 a2 2 0 1 0 4 0 a2 2 0 1 0 -4 0zM470 728 a2 2 0 1 0 4 0 a2 2 0 1 0 -4 0zM486 824 a2 2 0 1 0 4 0 a2 2 0 1 0 -4 0z" fill="black"></path>
            <path d="M1494 248 a2 2 0 1 0 4 0 a2 2 0 1 0 -4 0zM1446 584 a2 2 0 1 0 4 0 a2 2 0 1 0 -4 0zM1510 280 a2 2 0 1 0 4 0 a2 2 0 1 0 -4 0zM1430 776 a2 2 0 1 0 4 0 a2 2 0 1 0 -4 0zM1462 600 a2 2 0 1 0 4 0 a2 2 0 1 0 -4 0zM1430 664 a2 2 0 1 0 4 0 a2 2 0 1 0 -4 0zM1414 824 a2 2 0 1 0 4 0 a2 2 0 1 0 -4 0zM1478 328 a2 2 0 1 0 4 0 a2 2 0 1 0 -4 0zM1478 248 a2 2 0 1 0 4 0 a2 2 0 1 0 -4 0zM1478 408 a2 2 0 1 0 4 0 a2 2 0 1 0 -4 0zM1430 264 a2 2 0 1 0 4 0 a2 2 0 1 0 -4 0zM1462 632 a2 2 0 1 0 4 0 a2 2 0 1 0 -4 0zM1494 504 a2 2 0 1 0 4 0 a2 2 0 1 0 -4 0zM1430 680 a2 2 0 1 0 4 0 a2 2 0 1 0 -4 0z" fill="black"></path>
            <path d="M390 520 a2 2 0 1 0 4 0 a2 2 0 1 0 -4 0zM422 680 a2 2 0 1 0 4 0 a2 2 0 1 0 -4 0zM390 568 a2 2 0 1 0 4 0 a2 2 0 1 0 -4 0zM470 888 a2 2 0 1 0 4 0 a2 2 0 1 0 -4 0zM438 792 a2 2 0 1 0 4 0 a2 2 0 1 0 -4 0zM486 840 a2 2 0 1 0 4 0 a2 2 0 1 0 -4 0zM406 440 a2 2 0 1 0 4 0 a2 2 0 1 0 -4 0zM438 600 a2 2 0 1 0 4 0 a2 2 0 1 0 -4 0zM406 536 a2 2 0 1 0 4 0 a2 2 0 1 0 -4 0zM438 696 a2 2 0 1 0 4 0 a2 2 0 1 0 -4 0z" fill="black"></path>
            <path d="M1462 760 a2 2 0 1 0 4 0 a2 2 0 1 0 -4 0z" fill="black"></path>
            <path d="M390 664 a2 2 0 1 0 4 0 a2 2 0 1 0 -4 0zM422 840 a2 2 0 1 0 4 0 a2 2 0 1 0 -4 0zM470 920 a2 2 0 1 0 4 0 a2 2 0 1 0 -4 0z" fill="black"></path>
            <path d="M1494 568 a2 2 0 1 0 4 0 a2 2 0 1 0 -4 0zM1510 616 a2 2 0 1 0 4 0 a2 2 0 1 0 -4 0z" fill="black"></path>
            <path d="M390 472 a2 2 0 1 0 4 0 a2 2 0 1 0 -4 0zM374 488 a2 2 0 1 0 4 0 a2 2 0 1 0 -4 0zM358 472 a2 2 0 1 0 4 0 a2 2 0 1 0 -4 0zM358 616 a2 2 0 1 0 4 0 a2 2 0 1 0 -4 0zM374 504 a2 2 0 1 0 4 0 a2 2 0 1 0 -4 0zM358 632 a2 2 0 1 0 4 0 a2 2 0 1 0 -4 0zM342 440 a2 2 0 1 0 4 0 a2 2 0 1 0 -4 0zM358 648 a2 2 0 1 0 4 0 a2 2 0 1 0 -4 0zM422 856 a2 2 0 1 0 4 0 a2 2 0 1 0 -4 0zM342 552 a2 2 0 1 0 4 0 a2 2 0 1 0 -4 0zM358 664 a2 2 0 1 0 4 0 a2 2 0 1 0 -4 0z" fill="black"></path>
            <path d="M1430 1000 a2 2 0 1 0 4 0 a2 2 0 1 0 -4 0zM1398 1032 a2 2 0 1 0 4 0 a2 2 0 1 0 -4 0zM1430 1016 a2 2 0 1 0 4 0 a2 2 0 1 0 -4 0z" fill="black"></path>
            <path d="M326 456 a2 2 0 1 0 4 0 a2 2 0 1 0 -4 0zM342 584 a2 2 0 1 0 4 0 a2 2 0 1 0 -4 0zM342 696 a2 2 0 1 0 4 0 a2 2 0 1 0 -4 0zM358 680 a2 2 0 1 0 4 0 a2 2 0 1 0 -4 0zM342 616 a2 2 0 1 0 4 0 a2 2 0 1 0 -4 0zM342 712 a2 2 0 1 0 4 0 a2 2 0 1 0 -4 0z" fill="black"></path>
            <path d="M1526 248 a2 2 0 1 0 4 0 a2 2 0 1 0 -4 0zM1542 280 a2 2 0 1 0 4 0 a2 2 0 1 0 -4 0zM1494 808 a2 2 0 1 0 4 0 a2 2 0 1 0 -4 0zM1542 472 a2 2 0 1 0 4 0 a2 2 0 1 0 -4 0zM1446 952 a2 2 0 1 0 4 0 a2 2 0 1 0 -4 0zM1526 392 a2 2 0 1 0 4 0 a2 2 0 1 0 -4 0zM1510 696 a2 2 0 1 0 4 0 a2 2 0 1 0 -4 0zM1446 968 a2 2 0 1 0 4 0 a2 2 0 1 0 -4 0zM1510 728 a2 2 0 1 0 4 0 a2 2 0 1 0 -4 0zM1494 824 a2 2 0 1 0 4 0 a2 2 0 1 0 -4 0zM1558 536 a2 2 0 1 0 4 0 a2 2 0 1 0 -4 0zM1398 1064 a2 2 0 1 0 4 0 a2 2 0 1 0 -4 0zM1558 584 a2 2 0 1 0 4 0 a2 2 0 1 0 -4 0zM1494 536 a2 2 0 1 0 4 0 a2 2 0 1 0 -4 0z" fill="black"></path>
            <path d="M326 264 a2 2 0 1 0 4 0 a2 2 0 1 0 -4 0zM294 392 a2 2 0 1 0 4 0 a2 2 0 1 0 -4 0zM310 632 a2 2 0 1 0 4 0 a2 2 0 1 0 -4 0zM342 344 a2 2 0 1 0 4 0 a2 2 0 1 0 -4 0zM326 344 a2 2 0 1 0 4 0 a2 2 0 1 0 -4 0zM374 824 a2 2 0 1 0 4 0 a2 2 0 1 0 -4 0zM342 728 a2 2 0 1 0 4 0 a2 2 0 1 0 -4 0zM294 408 a2 2 0 1 0 4 0 a2 2 0 1 0 -4 0zM342 248 a2 2 0 1 0 4 0 a2 2 0 1 0 -4 0zM294 440 a2 2 0 1 0 4 0 a2 2 0 1 0 -4 0zM326 376 a2 2 0 1 0 4 0 a2 2 0 1 0 -4 0zM294 520 a2 2 0 1 0 4 0 a2 2 0 1 0 -4 0zM310 664 a2 2 0 1 0 4 0 a2 2 0 1 0 -4 0zM310 280 a2 2 0 1 0 4 0 a2 2 0 1 0 -4 0z" fill="black"></path>
            <path d="M1558 328 a2 2 0 1 0 4 0 a2 2 0 1 0 -4 0zM1574 440 a2 2 0 1 0 4 0 a2 2 0 1 0 -4 0zM1606 504 a2 2 0 1 0 4 0 a2 2 0 1 0 -4 0zM1574 280 a2 2 0 1 0 4 0 a2 2 0 1 0 -4 0zM1622 248 a2 2 0 1 0 4 0 a2 2 0 1 0 -4 0zM1558 696 a2 2 0 1 0 4 0 a2 2 0 1 0 -4 0zM1494 840 a2 2 0 1 0 4 0 a2 2 0 1 0 -4 0zM1638 248 a2 2 0 1 0 4 0 a2 2 0 1 0 -4 0zM1542 424 a2 2 0 1 0 4 0 a2 2 0 1 0 -4 0zM1590 376 a2 2 0 1 0 4 0 a2 2 0 1 0 -4 0zM1542 648 a2 2 0 1 0 4 0 a2 2 0 1 0 -4 0zM1558 632 a2 2 0 1 0 4 0 a2 2 0 1 0 -4 0zM1574 408 a2 2 0 1 0 4 0 a2 2 0 1 0 -4 0z" fill="black"></path>
            <path d="M310 248 a2 2 0 1 0 4 0 a2 2 0 1 0 -4 0zM278 248 a2 2 0 1 0 4 0 a2 2 0 1 0 -4 0zM294 568 a2 2 0 1 0 4 0 a2 2 0 1 0 -4 0zM262 424 a2 2 0 1 0 4 0 a2 2 0 1 0 -4 0zM262 376 a2 2 0 1 0 4 0 a2 2 0 1 0 -4 0zM278 504 a2 2 0 1 0 4 0 a2 2 0 1 0 -4 0zM246 552 a2 2 0 1 0 4 0 a2 2 0 1 0 -4 0zM246 248 a2 2 0 1 0 4 0 a2 2 0 1 0 -4 0zM278 648 a2 2 0 1 0 4 0 a2 2 0 1 0 -4 0zM246 280 a2 2 0 1 0 4 0 a2 2 0 1 0 -4 0zM246 312 a2 2 0 1 0 4 0 a2 2 0 1 0 -4 0zM310 696 a2 2 0 1 0 4 0 a2 2 0 1 0 -4 0zM278 376 a2 2 0 1 0 4 0 a2 2 0 1 0 -4 0zM294 456 a2 2 0 1 0 4 0 a2 2 0 1 0 -4 0z" fill="black"></path>
            <path d="M1526 856 a2 2 0 1 0 4 0 a2 2 0 1 0 -4 0zM1494 1000 a2 2 0 1 0 4 0 a2 2 0 1 0 -4 0zM1542 824 a2 2 0 1 0 4 0 a2 2 0 1 0 -4 0zM1494 1016 a2 2 0 1 0 4 0 a2 2 0 1 0 -4 0zM1510 920 a2 2 0 1 0 4 0 a2 2 0 1 0 -4 0z" fill="black"></path>
            <path d="M278 696 a2 2 0 1 0 4 0 a2 2 0 1 0 -4 0zM278 728 a2 2 0 1 0 4 0 a2 2 0 1 0 -4 0zM294 792 a2 2 0 1 0 4 0 a2 2 0 1 0 -4 0zM406 984 a2 2 0 1 0 4 0 a2 2 0 1 0 -4 0zM326 856 a2 2 0 1 0 4 0 a2 2 0 1 0 -4 0z" fill="black"></path>
        </mask>
    </defs>
</svg>